<svg xmlns="http://www.w3.org/2000/svg" xmlns:xlink="http://www.w3.org/1999/xlink" viewBox="0 0 2200 1800">
    <style>
        .small { font: 40px verdana; alignment-baseline:hanging; }
        .large { font: 80px verdana; alignment-baseline:hanging; }
        .small-italic { font: 40px verdana; font-style:italic; alignment-baseline:hanging; }
        .small-sans { font: 44px monospace; alignment-baseline:hanging; }
        .small-condensed { font: 42px arial; font-stretch:condensed; alignment-baseline:hanging; }
    </style>
    <defs>
        <g id="data" transform="scale(1.5,1.5) translate(0,0)">
            <path d="M57.53,88.57c.28,1.32,2.42,2.65,5.75,3.76a52.88,52.88,0,0,0,16,2.21,52.78,52.78,0,0,0,16-2.21c3.58-1.19,5.79-2.64,5.79-4h0V78.57a19.32,19.32,0,0,1-4.82,2.28,55.84,55.84,0,0,1-17,2.38,55.81,55.81,0,0,1-17-2.38,19.45,19.45,0,0,1-4.77-2.24v10ZM20,57.75a2.83,2.83,0,0,1-2.69-2.93A2.79,2.79,0,0,1,20,51.9h22.9a2.83,2.83,0,0,1,2.68,2.92,2.79,2.79,0,0,1-2.68,2.93Zm65.85-40h9.61a6.73,6.73,0,0,1,4.84,2,6.82,6.82,0,0,1,2,4.83V57.25H96.42V24.64a1,1,0,0,0-1-1H85.84V57.25H80V6.86a1,1,0,0,0-.28-.7,1,1,0,0,0-.7-.28H6.82a1,1,0,0,0-.69.28,1,1,0,0,0-.28.7V88.38a.94.94,0,0,0,1,1H45v5.89H22.31v10.93a1,1,0,0,0,.28.69,1,1,0,0,0,.7.28H45V113H23.32a6.77,6.77,0,0,1-4.84-2,6.84,6.84,0,0,1-2-4.84V95.24H6.86a6.77,6.77,0,0,1-4.84-2,6.85,6.85,0,0,1-2-4.84V6.86A6.77,6.77,0,0,1,2,2,6.83,6.83,0,0,1,6.86,0H79a6.73,6.73,0,0,1,4.83,2,6.79,6.79,0,0,1,2,4.84V17.79ZM20,26.35a2.83,2.83,0,0,1-2.68-2.92A2.79,2.79,0,0,1,20,20.5H65.79a2.84,2.84,0,0,1,2.68,2.93,2.78,2.78,0,0,1-2.68,2.92Zm0,15.7a2.83,2.83,0,0,1-2.68-2.92A2.79,2.79,0,0,1,20,36.2H65.79a2.83,2.83,0,0,1,2.68,2.93,2.78,2.78,0,0,1-2.68,2.92Zm43.3,35.3a52.91,52.91,0,0,0,16,2.2,52.81,52.81,0,0,0,16-2.2c3.58-1.19,5.79-2.64,5.79-4S99,70.44,95.38,69.24a52.81,52.81,0,0,0-16-2.2,52.91,52.91,0,0,0-16,2.2c-7.59,2.54-7.8,5.51,0,8.11Zm37.9,30.24a19.6,19.6,0,0,1-4.81,2.28,56.17,56.17,0,0,1-17,2.37,56.15,56.15,0,0,1-17-2.37,19.82,19.82,0,0,1-4.77-2.25v9.3c.28,1.32,2.42,2.65,5.75,3.76a52.91,52.91,0,0,0,16,2.2,52.81,52.81,0,0,0,16-2.2,13.06,13.06,0,0,0,5.18-2.74c.74-.8.62-1.33.62-2.29v-8.06Zm-43.65-4.7c.28,1.32,2.42,2.65,5.75,3.76a52.91,52.91,0,0,0,16,2.2,52.81,52.81,0,0,0,16-2.2c3.58-1.2,5.79-2.64,5.79-4.06h0v-9a19.68,19.68,0,0,1-4.82,2.28,56.17,56.17,0,0,1-17,2.37,56.15,56.15,0,0,1-17-2.37,19.82,19.82,0,0,1-4.77-2.25v9.3Z"></path>
        </g>
        <g id="data_check" transform="scale(1.3,1.3) translate(0,0)">
            <path fill-rule="evenodd" d="M95.7,65.5c15.01,0,27.18,12.17,27.18,27.18c0,15.01-12.17,27.18-27.18,27.18 c-15.01,0-27.18-12.17-27.18-27.18C68.52,77.67,80.69,65.5,95.7,65.5L95.7,65.5z M82.76,97.32c-0.74-0.71-1.11-1.65-1.13-2.59 c-0.02-0.95,0.32-1.9,1.03-2.64c0.71-0.73,1.64-1.11,2.59-1.13c0.95-0.02,1.9,0.32,2.64,1.03l4.77,4.53l11.06-14.48l0,0 c0.03-0.05,0.08-0.08,0.12-0.12c3.6-3.11,8.42,2.29,4.92,5.51l-13.59,16.89l0,0c-0.03,0.03-0.06,0.07-0.09,0.09 c-0.71,0.62-1.61,0.93-2.5,0.91c-0.9-0.02-1.8-0.36-2.5-1.03L82.76,97.32L82.76,97.32z M17.69,26.67 c8.1,2.71,19.38,4.38,31.91,4.38s23.81-1.67,31.91-4.38c7.11-2.37,11.51-5.25,11.51-8.06c0-2.81-4.4-5.69-11.51-8.06 c-8.1-2.7-19.38-4.38-31.91-4.38s-23.81,1.67-31.91,4.38C2.6,15.59,2.18,21.5,17.69,26.67L17.69,26.67z M6.24,47.86 c0.56,2.62,4.83,5.26,11.45,7.47c8.1,2.71,19.38,4.38,31.91,4.38s23.81-1.67,31.91-4.38c7.11-2.37,11.51-5.25,11.51-8.06h0.03 v-19.3c-2.53,1.73-5.78,3.26-9.59,4.53c-8.73,2.91-20.71,4.72-33.86,4.72c-13.16,0-25.13-1.8-33.86-4.72 c-3.77-1.26-6.98-2.76-9.49-4.47V47.86L6.24,47.86z M63.3,92.54c-4.35,0.44-8.95,0.67-13.7,0.67c-13.16,0-25.13-1.8-33.86-4.72 c-3.77-1.26-6.98-2.76-9.49-4.47v18.49c0.56,2.62,4.83,5.26,11.45,7.47c8.1,2.7,19.38,4.38,31.91,4.38c7.52,0,14.58-0.6,20.78-1.67 c1.56,1.94,3.33,3.7,5.29,5.24c-7.53,1.65-16.49,2.6-26.07,2.6c-13.16,0-25.13-1.8-33.86-4.72c-4.6-1.54-15.67-6.58-15.67-12.62 c0-0.71,0-1.3,0-1.98C0.06,73.69,0,46.15,0,18.61c0-5.76,6.01-10.65,15.73-13.9C24.46,1.8,36.44,0,49.6,0 c13.16,0,25.13,1.8,33.86,4.72c8.85,2.95,14.62,7.27,15.59,12.37c0.12,0.32,0.18,0.67,0.18,1.04v42.37 c-1.2-0.14-2.42-0.21-3.66-0.21c-0.85,0-1.68,0.03-2.51,0.1v-3.74c-2.53,1.73-5.78,3.26-9.59,4.53 c-8.73,2.91-20.71,4.72-33.86,4.72c-13.16,0-25.13-1.8-33.86-4.72c-3.77-1.26-6.98-2.76-9.49-4.47v18.49 c0.56,2.62,4.83,5.26,11.45,7.47c8.1,2.7,19.38,4.38,31.91,4.38c5.01,0,9.82-0.27,14.31-0.76C63.51,88.3,63.3,90.4,63.3,92.54 L63.3,92.54z"></path>
        </g>
        <g id="raw_data">
            <text x="180" y="60" class="small">Raw</text>
            <text x="180" y="110" class="small">data</text>
            <use x="0" y="0" xlink:href="#data"/>
        </g>
        <g id="final_data">
            <text x="180" y="25" class="small">Filtered, aggregated,</text>
            <text x="180" y="75" class="small">enriched, validated data</text>
            <use x="0" y="0" xlink:href="#data_check"/>
        </g>
        <g id="arrow_down" transform="scale(.2,.2) translate(0,0)">
            <path fill-rule="nonzero" d="M372.87 355.28c5.06-4.43 5.53-12.09 1.06-17.09-4.47-5.01-12.2-5.47-17.26-1.05L200.78 473.26V12.15c0-6.71-5.5-12.15-12.28-12.15-6.78 0-12.28 5.44-12.28 12.15v461.11L20.33 337.14c-5.06-4.42-12.79-3.96-17.26 1.05-4.47 5-4 12.66 1.06 17.09L180.2 509.02c4.55 4.18 11.65 4.33 16.4.18l176.27-153.92z"></path>
        </g>
        <g id="repair"  transform="scale(2,2) translate(0,0)">
            <path d="M19,70.15c-4.75,1-9.66,1.1-14.42-3.79C1.4,63.1-.19,58.23,0,53.13c12.17,14.15,27-3.34,9-12.43,8.69-4.12,16.89-.25,21.24,7.76,2.06,3.78,3.29,5.76,4.86,7.11a8.58,8.58,0,0,0,.9.69A8.1,8.1,0,0,1,39.8,51.8,7.14,7.14,0,0,1,43.05,51c3.18,0,7.14,1.9,7.81,5.14h0a1.61,1.61,0,0,1,.44-.06h2.31a1.5,1.5,0,0,1,.37,0,5.6,5.6,0,0,1,5,4.59,1.65,1.65,0,0,1,.71-.16H62a1.5,1.5,0,0,1,.37,0c3.31.51,4.65,2.55,5.12,5.12l.26,0h2.31a1.5,1.5,0,0,1,.37,0c3.8.59,5.29,3.08,5.87,6.08,7-1.07,14.57-5.27,22,2.33a17.78,17.78,0,0,1,4.57,13.23c-12.17-14.15-27,3.34-9,12.43-7.47,3.54-14.59,1.17-19.2-4.66a30.06,30.06,0,0,1-2.34,4.92c-.38.62-.77,1.26-1.27,2.14a.16.16,0,0,0,0,.07,19.77,19.77,0,0,1-1.3,2h1.6a2.51,2.51,0,0,1,2.5,2.5v13.61a2.51,2.51,0,0,1-2.5,2.5H35.13a2.51,2.51,0,0,1-2.5-2.5V106.77a2.51,2.51,0,0,1,2.5-2.5H36a18,18,0,0,1-.9-3.79L22.64,80.07,22.58,80a22.48,22.48,0,0,1-2.5-4.24,12.37,12.37,0,0,1-1.08-4,10.22,10.22,0,0,1,0-1.57Zm92-33.29a2,2,0,0,0-.37-.74,1.51,1.51,0,0,0-.57-.46,1.61,1.61,0,0,0-.7-.22,2.62,2.62,0,0,0-.76.09l-.06,0-7.36,2.24a3,3,0,0,1-3.63-1.55c-.38-.64-.75-1.27-1.2-2s-1-1.38-1.39-2S94,31,93.4,30.38s-1-1.14-1.69-1.83A3.09,3.09,0,0,1,91.22,25l3.91-7.35a1.63,1.63,0,0,0,.13-1.46,2.07,2.07,0,0,0-.31-.65,1.82,1.82,0,0,0-.61-.49l-9.26-4.93a2.81,2.81,0,0,0-.68-.26,2.72,2.72,0,0,0-.82.11,1.31,1.31,0,0,0-.61.33,1.82,1.82,0,0,0-.49.61l-3.6,6.75a3.13,3.13,0,0,1-3.69,1.52c-.82-.21-1.59-.41-2.27-.55s-1.54-.28-2.36-.39a23.32,23.32,0,0,0-2.4-.19c-.84-.06-1.62,0-2.37-.06a3,3,0,0,1-3-2.18l-2.5-8.1c0-.06,0-.06,0-.1a2.52,2.52,0,0,0-.3-.66,2.09,2.09,0,0,0-1.26-.61,1.94,1.94,0,0,0-.82.11L48,9.48a1.9,1.9,0,0,0-.74.36,1.71,1.71,0,0,0-.47.57,1.5,1.5,0,0,0-.21.71,2.29,2.29,0,0,0,.09.75l0,.05,2.25,7.35a3.08,3.08,0,0,1-1.56,3.64c-.64.37-1.27.74-2,1.2s-1.38.95-2,1.39-1.3,1-1.91,1.54-1.15,1-1.83,1.7a3.1,3.1,0,0,1-3.59.48l-7.34-3.91a1.88,1.88,0,0,0-.75-.23,3.3,3.3,0,0,0-.69.07,1.31,1.31,0,0,0-.61.32,1.75,1.75,0,0,0-.49.62l-.4.74a24.3,24.3,0,0,0-6.73-.35l1.78-3.35a8.61,8.61,0,0,1,2-2.49,8.51,8.51,0,0,1,2.81-1.5,8.08,8.08,0,0,1,3.18-.33,8.57,8.57,0,0,1,3,1l5.43,2.9.4-.33c.7-.61,1.45-1.19,2.2-1.78s1.56-1.18,2.3-1.66l.26-.19-1.5-5.05a7.44,7.44,0,0,1-.33-3.17,7.84,7.84,0,0,1,.92-3.06,7.75,7.75,0,0,1,2-2.46,8.26,8.26,0,0,1,2.82-1.5L56.28.41l0,0A8.58,8.58,0,0,1,59.43,0a7.71,7.71,0,0,1,3.06.92A8.54,8.54,0,0,1,65,3a7.27,7.27,0,0,1,1.39,2.81l1.83,5.88a2.12,2.12,0,0,0,.43,0c.9.05,1.83.16,2.81.25s1.87.28,2.81.46a1,1,0,0,1,.39.1l2.46-4.63a7.84,7.84,0,0,1,4.82-3.92l.06,0a7.71,7.71,0,0,1,3.11-.31,8.44,8.44,0,0,1,3,.89l9.25,4.94a8.58,8.58,0,0,1,2.49,2,7.68,7.68,0,0,1,1.5,2.82,8,8,0,0,1,.33,3.17,8.31,8.31,0,0,1-1,3l-2.9,5.44c.11.11.23.28.34.39.6.71,1.19,1.45,1.77,2.2s1.19,1.56,1.66,2.3l.19.27,5.05-1.51a7.43,7.43,0,0,1,3.17-.32,8,8,0,0,1,3.06.91,7.67,7.67,0,0,1,2.46,2l0,.08a8.26,8.26,0,0,1,1.5,2.82l3,9.91.05,0a8.8,8.8,0,0,1,.35,3.13,7.87,7.87,0,0,1-.92,3.06,8.54,8.54,0,0,1-2,2.46A7.31,7.31,0,0,1,114.63,55l-5.88,1.83c0,.15,0,.32,0,.47,0,.91-.15,1.83-.24,2.71,0,0,0,.11,0,.15A26.84,26.84,0,0,1,108,63l-.07.34,4.67,2.49a7.52,7.52,0,0,1,2.47,2,8,8,0,0,1,1.45,2.79l0,.07a7.66,7.66,0,0,1,.31,3.1,8.25,8.25,0,0,1-.9,3l-.74,1.39-1.32-.71a25.71,25.71,0,0,0-4.34-7.75c-.14-.19-.29-.37-.45-.55a27.07,27.07,0,0,0-7.55-6.25c.09-.37.18-.75.26-1.13.13-.75.28-1.54.37-2.42,0,0,0-.11,0-.15.11-.81.17-1.54.23-2.27s.09-1.59.07-2.37a3,3,0,0,1,2.18-3l8.09-2.5s.07,0,.11,0a2.31,2.31,0,0,0,.65-.3,1.52,1.52,0,0,0,.41-.55,1.77,1.77,0,0,0,.21-.71,1.94,1.94,0,0,0-.11-.82L111,36.8l0,.06Zm-34-3.09a21.79,21.79,0,0,1,3.93,2.64,23.11,23.11,0,0,1,3.3,3.33,29.87,29.87,0,0,1,2.5,3.79,21.32,21.32,0,0,1,1.72,4.13,20.05,20.05,0,0,1,.86,4.44,20.89,20.89,0,0,1,0,4.54c0,.11,0,.19,0,.26a23,23,0,0,1-.68,3.77c-1.64.16-3.27.42-4.88.71l-1.48-.79c.13-.34.24-.69.35-1.05a18.63,18.63,0,0,0,.64-3.14.8.8,0,0,1,0-.22,17.14,17.14,0,0,0,0-3.44,17.56,17.56,0,0,0-.62-3.23,14.89,14.89,0,0,0-1.28-3,18.34,18.34,0,0,0-1.91-2.87A16.74,16.74,0,0,0,77,41.19a18.31,18.31,0,0,0-6.2-3.3,18.63,18.63,0,0,0-3.14-.64.57.57,0,0,1-.22,0,18.76,18.76,0,0,0-3.44,0,17.57,17.57,0,0,0-3.23.63,14.89,14.89,0,0,0-3,1.28,18.26,18.26,0,0,0-2.87,1.9,17.35,17.35,0,0,0-2.43,2.42c-.23.27-.46.56-.68.87l-5.46-2.91a20.4,20.4,0,0,1,1.42-1.9A22.63,22.63,0,0,1,51,36.26a28.91,28.91,0,0,1,3.79-2.51A24.63,24.63,0,0,1,59,32a22,22,0,0,1,4.39-.88,21.63,21.63,0,0,1,4.55,0c.1,0,.19.05.25,0a23.26,23.26,0,0,1,4.35.84,26.43,26.43,0,0,1,4.39,1.79l0,0Zm-37.89,24h0v.1h0l0,0V58h0v.21h0v.11h0v.11h0v.34h0V59h0v.12h0v.23h0v.13h0v.13h0V60h0v.13h0v.14h0v.25h0V79a1.68,1.68,0,1,1-3.35,0v-3.1h0a1.84,1.84,0,0,1-.25-.17L31.8,73.16l-4.34-3.57A6.52,6.52,0,0,0,26,68.66H24.87a2.57,2.57,0,0,0-1.45.06,1.46,1.46,0,0,0-.79.81h-.1a5.44,5.44,0,0,0-.2,2.11,8.87,8.87,0,0,0,.81,2.9A18.68,18.68,0,0,0,25.26,78s.07.1.1.16l12.7,20.76a1.68,1.68,0,0,1,.28.76h0a11.41,11.41,0,0,0,1.31,4.59H65a11,11,0,0,0,3.08-3.63.47.47,0,0,1,.06-.09c.36-.62.84-1.41,1.31-2.18a29.64,29.64,0,0,0,2.86-6.82v0l0-.06,0-.1,0-.06v0l0-.1,0-.07v0l0-.1.06-.2,0-.1h0l0-.09,0-.1v0l0-.07,0-.1v-.1l0-.1V90l0-.1,0-.09h0l0-.1,0-.1h0l0-.08,0-.1v0l0-.07,0-.1v-.1l0-.1,0-.07v0l0-.1,0-.08v0l0-.09,0-.1h0l0-.09,0-.1v-.1l0-.09v-.29l0-.1v-.1l0-.09v-.1h0v-.09l0-.1v-.84h0v-1l-.13-5.7a1.94,1.94,0,0,1,0-.24c0-.08,0-.62,0-1.34v-.18h0V76.84h0v-.19h0V75.36h0v-.19h0V74.1h0v-.17h0v-.18h0v-.19l0-.09v-.64l0-.08,0-.09,0-.09h0v-.09l0-.07h0l0-.09v-.08l0-.09V72a3.67,3.67,0,0,0-2.89-3H67.74c0,.47,0,.93,0,1.4h0v0h0v0h0v0h0v.1h0v0h0v.08h0V71h0v0h0v0h0v.1h0v0h0v0h0v0h0v.07h0v0h0v0h0v0h0v0h0v.05h0v0h0v0h0v0h0v0h0v.05h0v0h0v0h0v0h0v0h0v0h0v0h0v0h0v.05c-.06.93-.11,1.84-.11,2.7a1.68,1.68,0,0,1-3.36,0c0-.86.07-1.86.13-2.9v-.33h0v-.17h0v-.15h0v-.33h0v-.17h0v-.15h0v-.17h0V70.2h0v-.34h0v-.33h0V69.2h0V69c0-2.52-.45-4.71-2.48-5.08H59.7a1.37,1.37,0,0,1-.36,0c0,.94,0,1.92-.08,2.87v1c-.06.93-.11,1.83-.11,2.69a1.68,1.68,0,1,1-3.36,0c0-.86.07-1.86.13-2.9v-.17h0v-.15h0v-.16h0v-.17h0v-.17h0v-.17h0v-.32h0v-.16h0v-.17h0v-.14h0v-.17h0v-.17h0v-.07c.08-2.84-.23-5.46-2.47-5.87H51.29a1.49,1.49,0,0,1-.43-.06v6.49a1.68,1.68,0,0,1-3.36,0v-8.2c0-2.32-2.3-3.32-4.45-3.32a3.85,3.85,0,0,0-1.74.42,5,5,0,0,0-2.26,3ZM35.29,70l-1.58-.65a19.89,19.89,0,0,0-2.2-.75l2.41,2,1.37,1.12V70Z"></path>
        </g>
        <g id="envelope" transform="scale(.8,.8) translate(0,0)">
            <rect fill="white" x="0" y="0" width="123" height="89" rx="8" ry="8"/>
            <path d="M7.048,0h108.784c1.939,0,3.701,0.794,4.977,2.069c1.277,1.277,2.07,3.042,2.07,4.979v74.759 c0,1.461-0.451,2.822-1.221,3.951c-0.141,0.365-0.361,0.705-0.662,0.994c-0.201,0.189-0.422,0.344-0.656,0.461 c-1.225,1.021-2.799,1.643-4.508,1.643H7.048c-1.937,0-3.701-0.793-4.979-2.07C0.794,85.51,0,83.748,0,81.807V7.048 c0-1.941,0.792-3.704,2.068-4.979C3.344,0.792,5.107,0,7.048,0L7.048,0z M5.406,78.842l38.124-38.22L5.406,9.538V78.842 L5.406,78.842z M47.729,44.045L8.424,83.449h105.701L76.563,44.051L64.18,54.602l0,0c-0.971,0.83-2.425,0.877-3.453,0.043 L47.729,44.045L47.729,44.045z M80.674,40.549l36.799,38.598V9.198L80.674,40.549L80.674,40.549z M8.867,5.406l53.521,43.639 l51.223-43.639H8.867L8.867,5.406z"></path>
        </g>
        <g id="layers" transform="scale(2,2) translate(0,0)">
            <path d="M4.84,27.31H90.76a4.77,4.77,0,0,1,3.4,1.41,4.84,4.84,0,0,1,1.41,3.4V93.47a4.75,4.75,0,0,1-1.41,3.39,1.36,1.36,0,0,1-.25.22,4.67,4.67,0,0,1-3.18,1.19H4.81A4.81,4.81,0,0,1,0,93.47V32.12a4.77,4.77,0,0,1,1.41-3.4,4.83,4.83,0,0,1,3.4-1.41Z M89.86,33H5.75V92.53H89.86V33Z"></path>
            <path d="M32.15,0h85.92a4.77,4.77,0,0,1,3.4,1.41,4.84,4.84,0,0,1,1.41,3.4V66.16a4.75,4.75,0,0,1-1.41,3.39,1.09,1.09,0,0,1-.25.22A4.67,4.67,0,0,1,118,71h-5.38V65.22h4.51V5.71H33.06v4.2H27.31V4.81a4.77,4.77,0,0,1,1.41-3.4A4.84,4.84,0,0,1,32.12,0Z"></path>
            <path d="M18.5,13.66h85.92a4.75,4.75,0,0,1,3.39,1.41,4.8,4.8,0,0,1,1.41,3.39V79.81a4.77,4.77,0,0,1-1.41,3.4,1.4,1.4,0,0,1-.25.22,4.67,4.67,0,0,1-3.18,1.19H99V78.88h4.51V19.37H19.4v4.2H13.65V18.46a4.81,4.81,0,0,1,4.81-4.8Z"></path>
        </g>
        <g id="cogs" transform="scale(.2,.2) translate(0,0)">
            <path fill-rule="evenodd" d="m307.28 396.06-.09 15.75c-.04 7.37-6.06 13.36-13.41 13.34l-14.62-.07c-2.17 7.14-5.24 13.89-9.14 20.08l10.77 10.88c5.19 5.24 5.16 13.75-.05 18.94l-11.18 11.1c-5.26 5.17-13.77 5.14-18.96-.1L239 474.29a83.026 83.026 0 0 1-19.32 7.57l-.09 16.81c-.03 7.35-6.07 13.36-13.45 13.32l-15.74-.06c-7.35-.02-13.36-6.09-13.32-13.45l.06-16.96a84.247 84.247 0 0 1-19.08-7.8l-11.91 11.81c-5.2 5.19-13.72 5.16-18.91-.08l-11.09-11.2c-5.19-5.21-5.16-13.72.06-18.91l11.28-11.15a83.952 83.952 0 0 1-8.8-19.79l-15.15-.07c-7.37-.03-13.38-6.1-13.34-13.45l.08-15.74c.04-7.38 6.07-13.39 13.42-13.35l13.73.06a82.18 82.18 0 0 1 8.36-21.77l-9.11-9.18c-5.19-5.21-5.15-13.76.07-18.95l11.18-11.06c5.25-5.19 13.75-5.16 18.94.07l8.3 8.38c6.95-4.31 14.59-7.57 22.66-9.7l.06-11.39c.03-7.35 6.09-13.34 13.44-13.31l15.75.07c7.36.02 13.36 6.08 13.33 13.44l-.04 11.21c8.14 2.13 15.81 5.5 22.79 9.83l8.17-8.1c5.21-5.15 13.72-5.12 18.91.1l11.08 11.18c5.19 5.22 5.16 13.77-.05 18.94l-8.83 8.72c3.8 6.87 6.65 14.35 8.38 22.24l13.11.06c7.38.04 13.39 6.06 13.35 13.43zM145.58 86.79c31.46.98 56.18 27.28 55.18 58.79-.96 31.46-27.28 56.18-58.77 55.22-31.46-1-56.19-27.32-55.2-58.81.98-31.46 27.28-56.2 58.79-55.2zm96.28 316.88c-.1 23.79-19.51 43.04-43.3 42.9-23.84-.1-43.06-19.47-42.94-43.27.09-23.84 19.51-43.04 43.3-42.94 23.83.09 43.05 19.48 42.94 43.31zm112.82-175.21c19.22-3.55 37.65 9.13 41.21 28.35 3.57 19.2-9.15 37.65-28.35 41.24-19.22 3.54-37.66-9.15-41.21-28.36-3.54-19.22 9.15-37.69 28.35-41.23zM137.87.01l20.82.67c9.71.31 17.44 8.51 17.12 18.25l-.59 19.26c9.36 3.14 18.16 7.48 26.21 12.85l14.79-13.88c7.1-6.67 18.36-6.32 25.01.78l14.27 15.18c6.69 7.09 6.31 18.38-.78 25.04l-15.87 14.9c4.11 8.1 7.29 16.77 9.33 25.85l22.21.7c9.75.3 17.45 8.51 17.17 18.26l-.67 20.82c-.31 9.71-8.51 17.44-18.26 17.12l-22.44-.68c-2.63 8.82-6.34 17.18-10.96 24.92l15.18 16.17c6.66 7.1 6.32 18.36-.78 25.01l-15.18 14.27c-7.1 6.66-18.38 6.31-25.05-.78l-14.33-15.27c-8.23 4.71-17.11 8.42-26.48 10.9l-.63 20.04c-.31 9.75-8.51 17.45-18.26 17.17l-20.79-.67c-9.75-.31-17.47-8.51-17.17-18.26l.58-18.1a110.615 110.615 0 0 1-28.51-11.84l-12.47 11.72c-7.07 6.66-18.35 6.32-25.02-.78l-14.25-15.18c-6.66-7.1-6.32-18.35.78-25.05l11.37-10.68a108.9 108.9 0 0 1-12-30.29l-15.06-.47C7.43 167.65-.27 159.45.01 149.7l.67-20.83c.31-9.71 8.51-17.43 18.25-17.13l14.83.48c3.11-10.71 7.8-20.74 13.79-29.82L37.16 71.34c-6.67-7.07-6.32-18.35.78-25.02l15.18-14.25c7.09-6.66 18.35-6.32 25.04.78l11.21 11.94c9.24-4.77 19.21-8.27 29.7-10.28l.54-17.35c.3-9.73 8.51-17.43 18.26-17.15zm200.67 176.87 12.74-2.35c5.94-1.1 11.68 2.86 12.78 8.8l2.17 11.78c6.09.66 12 2.13 17.6 4.31l7.12-10.38c3.43-4.96 10.28-6.22 15.27-2.8l10.66 7.32c4.96 3.43 6.22 10.28 2.83 15.27l-7.67 11.13c3.58 4.37 6.64 9.21 9.05 14.42l13.57-2.51c5.94-1.1 11.7 2.89 12.8 8.83l2.36 12.69c1.09 5.94-2.86 11.69-8.8 12.79l-13.71 2.55a67.108 67.108 0 0 1-3.36 16.55l11.35 7.8c4.96 3.43 6.25 10.31 2.82 15.27l-7.32 10.66c-3.42 4.96-10.31 6.24-15.27 2.83l-10.72-7.37c-4.36 3.94-9.27 7.32-14.61 10.1l2.27 12.22c1.09 5.94-2.87 11.73-8.8 12.81l-12.73 2.36c-5.9 1.1-11.69-2.86-12.79-8.83l-2.03-11.03a67.976 67.976 0 0 1-18.83-3.42l-6.02 8.73c-3.41 5-10.28 6.25-15.28 2.84l-10.65-7.32c-4.97-3.44-6.26-10.28-2.83-15.28l5.49-7.97a68.21 68.21 0 0 1-11.28-16.78l-9.16 1.69c-5.94 1.1-11.7-2.86-12.8-8.8l-2.36-12.69c-1.09-5.94 2.86-11.72 8.8-12.82l9.05-1.67c.47-6.88 2.01-13.57 4.43-19.86l-7.76-5.34c-4.97-3.42-6.25-10.31-2.82-15.27l7.32-10.64c3.42-5.01 10.31-6.26 15.27-2.84l8.38 5.75c4.97-4.09 10.56-7.55 16.63-10.15l-1.96-10.56c-1.1-5.97 2.86-11.71 8.8-12.82z"/>
        </g>
        <g id="db_inter" transform="scale(1,1) translate(0,0)">
            <path fill-rule="evenodd" d="M16.49,24.88C24.05,27.41,34.57,29,46.26,29S68.48,27.41,76,24.88c6.63-2.22,10.73-4.9,10.73-7.52S82.67,12.06,76,9.84C68.48,7.33,58,5.75,46.27,5.75S24.06,7.33,16.49,9.84c-14.06,4.7-14.46,10.21,0,15ZM64.91,55.34h48.73a9.27,9.27,0,0,1,9.24,9.24v42.58a9.27,9.27,0,0,1-9.24,9.25H64.91a9.27,9.27,0,0,1-9.24-9.25V64.58a9.27,9.27,0,0,1,9.24-9.24ZM91.09,99.18H118v12H91.09v-12Zm-30.89,0H87.13v12H60.2v-12Zm0-31.89H87.13v12H60.2v-12Zm0,15.94H87.13v12H60.2v-12ZM91.09,67.29H118v12H91.09v-12Zm0,15.94H118v12H91.09v-12ZM5.82,45.77c.52,2.45,4.5,4.91,10.68,7,7.22,2.42,17.16,3.95,28.24,4.08v5.77c-11.67-.13-22.25-1.78-30.05-4.39A35.86,35.86,0,0,1,5.84,54V71.27c.52,2.45,4.5,4.91,10.68,7,7.22,2.4,17.15,3.94,28.22,4.07v5.75c-11.67-.14-22.25-1.78-30.05-4.4A36.08,36.08,0,0,1,5.83,79.5V96.75c.52,2.45,4.51,4.91,10.68,7,7.22,2.41,17.16,4,28.23,4.08v5.75c-11.67-.13-22.24-1.78-30-4.4C10.4,107.72,0,103,0,97.38V95.55C0,69.86,0,43.06,0,17.41c0-5.43,5.61-10,14.66-13C22.82,1.68,34,0,46.27,0S69.7,1.68,77.87,4.41s13.64,6.78,14.55,11.53a3,3,0,0,1,.16,1v28.6H86.8V26.09a36.69,36.69,0,0,1-8.93,4.22c-8.15,2.75-19.31,4.41-31.58,4.41S22.83,33,14.66,30.31A36.26,36.26,0,0,1,5.8,26.14V45.77Z"></path>
        </g>
        <g id="db_wf" transform="scale(1,1) translate(0,0)">
            <path fill-rule="evenodd" d="M95.7,65.5c15.01,0,27.18,12.17,27.18,27.18c0,15.01-12.17,27.18-27.18,27.18 c-15.01,0-27.18-12.17-27.18-27.18C68.52,77.67,80.69,65.5,95.7,65.5L95.7,65.5z M95.96,86.85c3.24,0,5.86,2.63,5.86,5.86 s-2.63,5.86-5.86,5.86s-5.86-2.63-5.86-5.86S92.72,86.85,95.96,86.85L95.96,86.85z M106.25,79.94l2.32,2.32 c0.61,0.61,0.61,1.61,0,2.22l-1.87,1.87c0.52,0.97,0.91,2.02,1.16,3.09h2.42c0.87,0,1.57,0.71,1.57,1.57v3.28 c0,0.86-0.71,1.57-1.57,1.57h-2.64c-0.32,1.06-0.78,2.07-1.37,3l1.71,1.71c0.61,0.61,0.61,1.61,0,2.22l-2.32,2.32 c-0.61,0.61-1.61,0.61-2.22,0l-1.87-1.87c-0.97,0.52-2.02,0.92-3.09,1.16v2.42c0,0.86-0.71,1.57-1.57,1.57l-3.28,0 c-0.86,0-1.57-0.71-1.57-1.57v-2.64c-1.06-0.32-2.07-0.78-3-1.37l-1.71,1.71c-0.61,0.61-1.61,0.61-2.22,0l-2.32-2.32 c-0.61-0.61-0.61-1.61,0-2.22l1.87-1.87c-0.52-0.97-0.91-2.02-1.16-3.09l-2.42,0c-0.86,0-1.57-0.71-1.57-1.57v-3.28 c0-0.86,0.71-1.57,1.57-1.57h2.64c0.32-1.06,0.78-2.07,1.37-3.01l-1.71-1.71c-0.61-0.61-0.61-1.61,0-2.22l2.32-2.32 c0.61-0.61,1.61-0.61,2.22,0l1.87,1.87c0.96-0.52,2-0.91,3.09-1.16v-2.42c0-0.86,0.71-1.57,1.57-1.57h3.28 c0.86,0,1.57,0.71,1.57,1.57v2.64c1.06,0.32,2.07,0.78,3.01,1.37l1.71-1.71C104.64,79.33,105.64,79.33,106.25,79.94L106.25,79.94 L106.25,79.94z M17.69,26.67c8.1,2.71,19.38,4.38,31.91,4.38c12.53,0,23.81-1.67,31.91-4.38c7.11-2.37,11.51-5.25,11.51-8.06 c0-2.81-4.4-5.69-11.51-8.06c-8.1-2.7-19.38-4.38-31.91-4.38c-12.53,0-23.81,1.67-31.91,4.38C2.6,15.59,2.18,21.5,17.69,26.67 L17.69,26.67z M6.24,47.86c0.56,2.62,4.83,5.26,11.45,7.47c8.1,2.71,19.38,4.38,31.91,4.38s23.81-1.67,31.91-4.38 c7.11-2.37,11.51-5.25,11.51-8.06h0.03v-19.3c-2.53,1.73-5.78,3.26-9.59,4.53c-8.73,2.91-20.71,4.72-33.86,4.72 c-13.16,0-25.13-1.8-33.86-4.72c-3.77-1.26-6.98-2.76-9.49-4.47V47.86L6.24,47.86z M63.3,92.54c-4.35,0.44-8.95,0.67-13.7,0.67 c-13.16,0-25.13-1.8-33.86-4.72c-3.77-1.26-6.98-2.76-9.49-4.47v18.49c0.56,2.62,4.83,5.26,11.45,7.47 c8.1,2.7,19.38,4.38,31.91,4.38c7.52,0,14.58-0.6,20.78-1.67c1.56,1.94,3.33,3.7,5.29,5.24c-7.53,1.65-16.49,2.6-26.07,2.6 c-13.16,0-25.13-1.8-33.86-4.72c-4.6-1.54-15.67-6.58-15.67-12.62c0-0.71,0-1.3,0-1.98C0.06,73.69,0,46.15,0,18.61 c0-5.76,6.01-10.65,15.73-13.9C24.46,1.8,36.44,0,49.6,0c13.16,0,25.13,1.8,33.86,4.72c8.85,2.95,14.62,7.27,15.59,12.37 c0.12,0.32,0.18,0.67,0.18,1.04v42.37c-1.2-0.14-2.42-0.21-3.66-0.21c-0.85,0-1.68,0.03-2.51,0.1v-3.74 c-2.53,1.73-5.78,3.26-9.59,4.53c-8.73,2.91-20.71,4.72-33.86,4.72c-13.16,0-25.13-1.8-33.86-4.72c-3.77-1.26-6.98-2.76-9.49-4.47 v18.49c0.56,2.62,4.83,5.26,11.45,7.47c8.1,2.7,19.38,4.38,31.91,4.38c5.01,0,9.82-0.27,14.31-0.76 C63.51,88.3,63.3,90.4,63.3,92.54L63.3,92.54z"></path>
        </g>
        <g id="old_stuff">
            <text x="50" y="80" class="small-sans">SQL queries</text>
            <text x="440" y="140" class="small-italic">Shell scripts</text>
            <text x="350" y="250" class="small-sans">CuStoM cOdE</text>
            <text x="240" y="370" class="small">Multiple points of fai...</text>
            <text x="150" y="480" class="small-condensed">Performance bottlenecks</text>
            <use x="0" y="160" xlink:href="#repair"/>
        </g>
        <g id="scissors" transform="scale(0.7,0.7) translate(0,0)">
            <path fill-rule="evenodd" d="M95.36,19.84c11-5.17,20.18-5.08,27.52-.1l-65,37.45a12.92,12.92,0,0,1-7.22,3c-2.42.13-3.29-.56-5.39-.95a7.22,7.22,0,0,0-5.4,1l-1.71,1.56c-1.53,1.39-3.37,2.6-3.07,5,.2,1.58,1.55,2.91,3.69,4.06A15.4,15.4,0,0,1,42.56,76,17.92,17.92,0,0,1,44,82.5c-.39,7.55-3.92,14.07-12.41,19-9.68,6-17.86,5.27-25.18.86C2,98.93,0,94.82,0,90.16,0,83,3.41,77.26,8.73,72.78A73.68,73.68,0,0,1,20.66,65.1l14-10.95.25.85L95.36,19.84Zm0,66.1c11,5.17,20.18,5.08,27.52.1L69.16,55.09,55.53,62.78,95.36,85.94ZM42.29,46.56a7.4,7.4,0,0,1-2.41-1L38.17,44c-1.53-1.39-3.37-2.6-3.07-5,.2-1.59,1.55-2.92,3.69-4.06a15.44,15.44,0,0,0,3.77-5.2A17.86,17.86,0,0,0,44,23.29c-.39-7.55-3.92-14.08-12.41-19C21.93-1.63,13.75-.95,6.43,3.46,2,6.85,0,11,0,15.63,0,22.74,3.41,28.53,8.73,33a73,73,0,0,0,11.93,7.68L34.24,51.31l.6-.35.06-.18.12.08,7.27-4.3ZM32.85,30.43c3.91-2.55,4.31-6.85,2.87-10.95C34.57,16.19,32.1,13.35,28.4,11A21.36,21.36,0,0,0,15.88,7.77c-8.44.77-10,8.29-6.35,14.86a17.07,17.07,0,0,0,7.37,6.92A24.19,24.19,0,0,0,24.44,32a12.16,12.16,0,0,0,8.41-1.56ZM55.08,53.11a3.58,3.58,0,1,1-3.57-3.58,3.57,3.57,0,0,1,3.57,3.58ZM32.85,75.36c3.91,2.55,4.31,6.84,2.87,10.94-1.15,3.3-3.62,6.13-7.32,8.53A21.44,21.44,0,0,1,15.88,98c-8.44-.78-10-8.3-6.35-14.87a17,17,0,0,1,7.37-6.91,23.94,23.94,0,0,1,7.54-2.45,12.16,12.16,0,0,1,8.41,1.57Z"/>
        </g>
        <g id="split_data">
            <text x="0" y="0" class="small">Split data into chunks</text>
            <use x="180" y="60" xlink:href="#scissors"/>
        </g>
        <g id="queue">
            <text x="20" y="0" class="small">Task</text>
            <text x="0" y="50" class="small">queue</text>
            <use x="40" y="150" xlink:href="#envelope"/>
            <use x="20" y="130" xlink:href="#envelope"/>
            <use x="0" y="110" xlink:href="#envelope"/>
        </g>
        <g id="instances">
            <text x="80" y="0" class="small">Capillaries processors:</text>
            <text x="20" y="50" class="small">run user-defined transforms</text>
            <text x="0" y="100" class="small">against data chunks in parallel</text>
            <text x="180" y="150" class="small"></text>
            <use x="185" y="160" xlink:href="#layers"/>
            <use x="235" y="230" xlink:href="#cogs"/>
        </g>
        <g id="intermediate_db">
            <text x="0" y="0" class="small">Intermediate</text>
            <text x="30" y="50" class="small">data store</text>
            <use x="70" y="100" xlink:href="#db_inter"/>
        </g>
        <g id="arrow_top_left" transform="scale(.3,.3) translate(0,0)">
            <path fill-rule="nonzero" d="m341.7 293.95-93.14 14.25c-5.44.81-10.54-2.95-11.35-8.4l-.07-2.4c3.71-53.69 14.74-116.66 52.3-169.86 32.18-45.61 83.52-83.68 165.77-102.02-15.36-3.02-30.2-4.76-44.52-5.35-73.73-3.03-134.02 24.58-179.99 65.33-46.34 41.07-78.31 95.46-95.12 145.47-8.21 24.41-12.77 47.69-13.59 67.74-.21 5.5-4.85 9.78-10.35 9.57l-76.61-13.7L184.15 474.8 341.7 293.95zm-83.67-7.4 107.44-16.45c2.85-.48 5.89.26 8.23 2.31 4.16 3.62 4.6 9.94.98 14.09L191.5 496.79l-1.18 1.13c-4.24 3.51-10.55 2.91-14.05-1.33L2.27 286.3c-1.78-2.19-2.65-5.12-2.11-8.11.96-5.4 6.15-9.02 11.55-8.05l91.15 16.42c1.87-19.05 6.5-40.13 13.83-61.91 17.78-52.91 51.67-110.53 100.81-154.08C267 26.7 331.94-3.03 411.47.25c29.1 1.18 60.14 6.83 93.04 17.82 3.87 1.01 6.93 4.29 7.42 8.49.64 5.47-3.27 10.46-8.74 11.1-102.9 12.27-162.64 52.09-197.42 101.36-32.12 45.51-43.41 99.54-47.74 147.53z"/>
        </g>
        <g id="arrow_left_bottom" transform="scale(.3,.3) translate(0,0)">
            <path fill-rule="nonzero" d="M269.99 146.47l16.43 107.39c-47.97-4.33-101.97-15.61-147.47-47.71C89.7 171.39 49.9 111.66 37.64 8.81 37 3.34 32.02-.57 26.55.07c-4.21.49-7.49 3.55-8.49 7.43C7.09 40.36 1.43 71.41.25 100.48c-3.28 79.5 26.44 144.42 70.3 193.9 43.55 49.12 101.14 82.99 154.03 100.77 21.75 7.31 42.82 11.95 61.85 13.81l-16.4 91.11c-.96 5.4 2.65 10.58 8.05 11.55 2.99.54 5.92-.34 8.09-2.13l210.21-173.9c4.24-3.5 4.84-9.81 1.34-14.05l-1.15-1.16-210.18-183.11c-4.15-3.62-10.47-3.18-14.09.97-2.05 2.34-2.79 5.38-2.31 8.23zm38.08 116.85l-14.25-93.09L474.6 327.71 294.46 476.76l13.69-76.57c.21-5.5-4.07-10.13-9.57-10.34-20.03-.82-43.3-5.39-67.68-13.59-49.99-16.8-104.37-48.76-145.42-95.08-40.76-45.97-68.35-106.2-65.32-179.92.59-14.3 2.33-29.14 5.35-44.48 18.33 82.21 56.39 133.53 101.97 165.69 53.17 37.54 116.12 48.56 169.79 52.27l2.4-.07c5.45-.8 9.21-5.9 8.4-11.35z"/>
        </g>
        <g id="arrow_bottom_right" transform="scale(.3,.3) translate(0,0)">
            <path fill-rule="nonzero" d="m170.31 206.26 93.13-14.25c5.44-.81 10.54 2.95 11.35 8.39l.07 2.41c-3.72 53.69-14.75 116.67-52.29 169.86-32.18 45.61-83.53 83.69-165.77 102.02 15.36 3.02 30.2 4.76 44.51 5.35 73.74 3.03 134.01-24.57 180-65.33 46.34-41.07 78.31-95.48 95.12-145.48 8.21-24.4 12.77-47.69 13.59-67.73.21-5.51 4.85-9.79 10.35-9.58l76.6 13.71L327.86 25.41 170.31 206.26zm83.66 7.4-107.43 16.45c-2.85.48-5.89-.26-8.23-2.31-4.16-3.62-4.6-9.94-.98-14.1L320.51 3.42l1.18-1.14c4.24-3.5 10.55-2.9 14.06 1.34L509.73 213.9c1.78 2.2 2.65 5.12 2.11 8.12-.96 5.4-6.15 9.01-11.55 8.05l-91.14-16.42c-1.87 19.05-6.51 40.13-13.83 61.9-17.78 52.91-51.66 110.52-100.81 154.08-49.52 43.88-114.45 73.6-193.98 70.33-29.1-1.19-60.14-6.83-93.04-17.82-3.87-1.01-6.93-4.3-7.42-8.49-.64-5.47 3.27-10.46 8.74-11.1 102.89-12.26 162.66-52.09 197.43-101.36 32.12-45.5 43.4-99.54 47.73-147.53z"/>
        </g>
        <g id="arrow_right_top" transform="scale(.3,.3) translate(0,0)">
            <path fill-rule="nonzero" d="m206.18 341.56-14.24-93.1c-.81-5.44 2.95-10.54 8.39-11.35l2.4-.06c53.67 3.7 116.61 14.73 169.8 52.27 45.57 32.17 83.63 83.49 101.96 165.7 3.02-15.35 4.76-30.19 5.35-44.5 3.03-73.7-24.57-133.96-65.3-179.92-41.06-46.32-95.43-78.28-145.41-95.07-24.39-8.21-47.67-12.77-67.71-13.59-5.5-.21-9.78-4.85-9.57-10.35l13.69-76.58L25.4 184.07l180.78 157.49zm7.4-83.63 16.43 107.39c.48 2.85-.26 5.89-2.31 8.23-3.62 4.15-9.93 4.59-14.09.97L3.42 191.42l-1.14-1.18c-3.5-4.24-2.9-10.54 1.34-14.05L213.81 2.27c2.2-1.78 5.12-2.65 8.11-2.11 5.41.96 9.02 6.15 8.05 11.55l-16.4 91.11c19.04 1.87 40.11 6.51 61.87 13.82 52.9 17.77 110.47 51.64 154.02 100.77 43.85 49.48 73.57 114.39 70.29 193.89-1.18 29.08-6.83 60.12-17.81 93-1.01 3.87-4.29 6.92-8.49 7.42-5.47.64-10.45-3.28-11.09-8.74-12.27-102.85-52.06-162.58-101.31-197.34-45.5-32.1-99.5-43.39-147.47-47.71z"/>
        </g>
        <g id="new_stuff">
            <use x="320" y="20" xlink:href="#split_data"/>
            <use x="100" y="40" xlink:href="#arrow_top_left"/>
            <use x="40" y="230" xlink:href="#queue"/>
            <use x="140" y="480" xlink:href="#arrow_left_bottom"/>
            <use x="255" y="300" xlink:href="#instances"/>
            <use x="840" y="480" xlink:href="#arrow_bottom_right"/>
            <use x="880" y="230" xlink:href="#intermediate_db"/>
            <use x="800" y="40" xlink:href="#arrow_right_top"/>
        </g>
        <g id="in_out">
            <use x="280" y="20" xlink:href="#raw_data"/>
            <use x="350" y="230" xlink:href="#arrow_down"/>
            <use x="350" y="1060" xlink:href="#arrow_down"/>
            <use x="90" y="1180" xlink:href="#final_data"/>
        </g>
        <g id="before">
            <use x="0" y="0" xlink:href="#in_out"/>
            <use x="50" y="400" xlink:href="#old_stuff"/>
        </g>
        <g id="after">
            <use x="190" y="0" xlink:href="#in_out"/>
            <use x="30" y="360" xlink:href="#new_stuff"/>
        </g>
        <g id="before_text">
            <text x="220" y="0" class="large">BEFORE</text>
            <text x="0" y="150" class="small">Data processing scalability challenges</text>
            <text x="60" y="200" class="small">handled with custom solutions.</text>
        </g>
        <g id="after_text">
            <text x="380" y="0" class="large">AFTER</text>
            <text x="0" y="120" class="small">Data goes through multipe transform cycles, each cycle</text>
            <text x="40" y="170" class="small">may include transforms like filter, apply calculations,</text>
            <text x="30" y="220" class="small">join, denormalize etc. Users focus on transform logic</text>
            <text x="160" y="270" class="small">and data quality control, not scalability.</text>
        </g>
    </defs>
    <rect fill="white" x="0" y="0" width="2200" height="1800" />
    <use x="30" y="50" xlink:href="#before_text"/>
    <use x="0" y="420" xlink:href="#before"/>
    <use x="1050" y="50" xlink:href="#after_text"/>
    <use x="990" y="420" xlink:href="#after"/>
</svg>