<?xml version="1.0" encoding="UTF-8" standalone="no"?><!DOCTYPE svg PUBLIC "-//W3C//DTD SVG 1.1//EN" "http://www.w3.org/Graphics/SVG/1.1/DTD/svg11.dtd"><!-- Generated by graphviz version 2.40.1 (20161225.0304)
 --><!-- Title: indexes Pages: 1 --><svg xmlns="http://www.w3.org/2000/svg" xmlns:xlink="http://www.w3.org/1999/xlink" width="1414pt" height="692pt" viewBox="0.00 0.00 1414.08 692.20">
<g id="graph0" class="graph" transform="scale(1 1) rotate(0) translate(36 656.2)">
<title>indexes</title>
<polygon fill="#ffffff" stroke="transparent" points="-36,36 -36,-656.2 1378.077,-656.2 1378.077,36 -36,36"/>
<!-- taxed_order_items_go -->
<g id="node1" class="node">
<title>taxed_order_items_go</title>
<g id="a_node1"><a xlink:title="Apply Go-based calculations to order items">
<polygon fill="#ffffff" stroke="#000000" points="438.346,-220.1 438.346,-308.1 653.29,-308.1 653.29,-220.1 438.346,-220.1"/>
<text text-anchor="middle" x="545.818" y="-286.1" font-family="Helvetica,sans-Serif" font-size="20.00" fill="#000000">taxed_order_items_go</text>
<polyline fill="none" stroke="#000000" points="438.346,-276.1 653.29,-276.1 "/>
<text text-anchor="middle" x="545.818" y="-254.1" font-family="Helvetica,sans-Serif" font-size="20.00" fill="#000000">creates table:</text>
<text text-anchor="middle" x="545.818" y="-230.1" font-family="Helvetica,sans-Serif" font-size="20.00" fill="#000000">taxed_order_items_go</text>
</a>
</g>
</g>
<!-- file_taxed_order_items_go -->
<g id="node2" class="node">
<title>file_taxed_order_items_go</title>
<g id="a_node2"><a xlink:title="Write Go-based calculations to CSV file, batch by batch">
<polygon fill="#ffffff" stroke="#000000" points="0,-73.5 0,-161.5 653.636,-161.5 653.636,-73.5 0,-73.5"/>
<text text-anchor="middle" x="326.818" y="-139.5" font-family="Helvetica,sans-Serif" font-size="20.00" fill="#000000">file_taxed_order_items_go</text>
<polyline fill="none" stroke="#000000" points="0,-129.5 653.636,-129.5 "/>
<text text-anchor="middle" x="326.818" y="-107.5" font-family="Helvetica,sans-Serif" font-size="20.00" fill="#000000">creates file:</text>
<text text-anchor="middle" x="326.818" y="-83.5" font-family="Helvetica,sans-Serif" font-size="20.00" fill="#000000">/tmp/capi_out/py_calc/taxed_order_items_go_{batch_idx|string}.csv</text>
</a>
</g>
</g>
<!-- taxed_order_items_go&#45;&gt;file_taxed_order_items_go -->
<g id="edge1" class="edge">
<title>taxed_order_items_go-&gt;file_taxed_order_items_go</title>
<path fill="none" stroke="#000000" d="M479.8138,-219.9164C455.0335,-203.3283 426.7044,-184.3646 401.2137,-167.3009"/>
<polygon fill="#000000" stroke="#000000" points="402.944,-164.2474 392.687,-161.5931 399.05,-170.0644 402.944,-164.2474"/>
<text text-anchor="middle" x="586.8538" y="-185.4" font-family="Helvetica,sans-Serif" font-size="18.00" fill="#000000">taxed_order_items_go (2 batches)</text>
</g>
<!-- /tmp/capi_out/py_calc/taxed_order_items_go_{batch_idx|string}.csv -->
<g id="node3" class="node">
<title>/tmp/capi_out/py_calc/taxed_order_items_go_{batch_idx|string}.csv</title>
<g id="a_node3"><a xlink:title="Target data file(s)">
<polygon fill="none" stroke="#000000" points="647.4541,-36 .1819,-36 .1819,0 653.4541,0 653.4541,-30 647.4541,-36"/>
<polyline fill="none" stroke="#000000" points="647.4541,-36 647.4541,-30 "/>
<polyline fill="none" stroke="#000000" points="653.4541,-30 647.4541,-30 "/>
<text text-anchor="middle" x="326.818" y="-12" font-family="Helvetica,sans-Serif" font-size="20.00" fill="#000000">/tmp/capi_out/py_calc/taxed_order_items_go_{batch_idx|string}.csv</text>
</a>
</g>
</g>
<!-- file_taxed_order_items_go&#45;&gt;/tmp/capi_out/py_calc/taxed_order_items_go_{batch_idx|string}.csv -->
<g id="edge2" class="edge">
<title>file_taxed_order_items_go-&gt;/tmp/capi_out/py_calc/taxed_order_items_go_{batch_idx|string}.csv</title>
<path fill="none" stroke="#000000" stroke-dasharray="1,5" d="M326.818,-73.2784C326.818,-64.082 326.818,-54.6304 326.818,-46.2016"/>
<polygon fill="#000000" stroke="#000000" points="330.3181,-46.1684 326.818,-36.1685 323.3181,-46.1685 330.3181,-46.1684"/>
</g>
<!-- order_items -->
<g id="node4" class="node">
<title>order_items</title>
<g id="a_node4"><a xlink:title="Load order item data from CSV files to a table, one input file - one batch">
<polygon fill="#ffffff" stroke="#000000" points="583.473,-366.7 583.473,-454.7 756.163,-454.7 756.163,-366.7 583.473,-366.7"/>
<text text-anchor="middle" x="669.818" y="-432.7" font-family="Helvetica,sans-Serif" font-size="20.00" fill="#000000">read_order_items</text>
<polyline fill="none" stroke="#000000" points="583.473,-422.7 756.163,-422.7 "/>
<text text-anchor="middle" x="669.818" y="-400.7" font-family="Helvetica,sans-Serif" font-size="20.00" fill="#000000">creates table:</text>
<text text-anchor="middle" x="669.818" y="-376.7" font-family="Helvetica,sans-Serif" font-size="20.00" fill="#000000">order_items</text>
</a>
</g>
</g>
<!-- order_items&#45;&gt;taxed_order_items_go -->
<g id="edge7" class="edge">
<title>order_items-&gt;taxed_order_items_go</title>
<path fill="none" stroke="#000000" d="M597.5996,-366.5633C591.0988,-360.8813 585.0105,-354.7419 579.7858,-348.2 572.5654,-339.1593 566.6916,-328.3802 561.9861,-317.6054"/>
<polygon fill="#000000" stroke="#000000" points="565.1612,-316.1222 558.1473,-308.1815 558.6785,-318.763 565.1612,-316.1222"/>
<text text-anchor="middle" x="679.8341" y="-332" font-family="Helvetica,sans-Serif" font-size="18.00" fill="#000000">order_items (10 batches)</text>
</g>
<!-- taxed_order_items_py -->
<g id="node5" class="node">
<title>taxed_order_items_py</title>
<g id="a_node5"><a xlink:title="Apply Python-based calculations to order items">
<polygon fill="#ffffff" stroke="#000000" points="751.905,-220.1 751.905,-308.1 965.731,-308.1 965.731,-220.1 751.905,-220.1"/>
<text text-anchor="middle" x="858.818" y="-286.1" font-family="Helvetica,sans-Serif" font-size="20.00" fill="#000000">taxed_order_items_py</text>
<polyline fill="none" stroke="#000000" points="751.905,-276.1 965.731,-276.1 "/>
<text text-anchor="middle" x="858.818" y="-254.1" font-family="Helvetica,sans-Serif" font-size="20.00" fill="#000000">creates table:</text>
<text text-anchor="middle" x="858.818" y="-230.1" font-family="Helvetica,sans-Serif" font-size="20.00" fill="#000000">taxed_order_items_py</text>
</a>
</g>
</g>
<!-- order_items&#45;&gt;taxed_order_items_py -->
<g id="edge3" class="edge">
<title>order_items-&gt;taxed_order_items_py</title>
<path fill="none" stroke="#000000" d="M756.4201,-368.0014C766.3346,-361.8552 776.0261,-355.2158 784.818,-348.2 796.5516,-338.8368 807.9369,-327.4743 818.1172,-316.1693"/>
<polygon fill="#000000" stroke="#000000" points="820.9919,-318.2002 824.9621,-308.3773 815.7328,-313.5803 820.9919,-318.2002"/>
<text text-anchor="middle" x="906.8341" y="-332" font-family="Helvetica,sans-Serif" font-size="18.00" fill="#000000">order_items (10 batches)</text>
</g>
<!-- file_taxed_order_items_py -->
<g id="node6" class="node">
<title>file_taxed_order_items_py</title>
<g id="a_node6"><a xlink:title="Write Python-based calculations to CSV file, batch by batch">
<polygon fill="#ffffff" stroke="#000000" points="689.559,-73.5 689.559,-161.5 1342.077,-161.5 1342.077,-73.5 689.559,-73.5"/>
<text text-anchor="middle" x="1015.818" y="-139.5" font-family="Helvetica,sans-Serif" font-size="20.00" fill="#000000">file_taxed_order_items_py</text>
<polyline fill="none" stroke="#000000" points="689.559,-129.5 1342.077,-129.5 "/>
<text text-anchor="middle" x="1015.818" y="-107.5" font-family="Helvetica,sans-Serif" font-size="20.00" fill="#000000">creates file:</text>
<text text-anchor="middle" x="1015.818" y="-83.5" font-family="Helvetica,sans-Serif" font-size="20.00" fill="#000000">/tmp/capi_out/py_calc/taxed_order_items_py_{batch_idx|string}.csv</text>
</a>
</g>
</g>
<!-- taxed_order_items_py&#45;&gt;file_taxed_order_items_py -->
<g id="edge4" class="edge">
<title>taxed_order_items_py-&gt;file_taxed_order_items_py</title>
<path fill="none" stroke="#000000" d="M906.3492,-219.7173C923.5649,-203.6421 943.1471,-185.3571 960.943,-168.74"/>
<polygon fill="#000000" stroke="#000000" points="963.528,-171.1149 968.4483,-161.7318 958.7506,-165.9985 963.528,-171.1149"/>
<text text-anchor="middle" x="1082.3507" y="-185.4" font-family="Helvetica,sans-Serif" font-size="18.00" fill="#000000">taxed_order_items_py (2 batches)</text>
</g>
<!-- /tmp/capi_out/py_calc/taxed_order_items_py_{batch_idx|string}.csv -->
<g id="node7" class="node">
<title>/tmp/capi_out/py_calc/taxed_order_items_py_{batch_idx|string}.csv</title>
<g id="a_node7"><a xlink:title="Target data file(s)">
<polygon fill="none" stroke="#000000" points="1335.8362,-36 689.7998,-36 689.7998,0 1341.8362,0 1341.8362,-30 1335.8362,-36"/>
<polyline fill="none" stroke="#000000" points="1335.8362,-36 1335.8362,-30 "/>
<polyline fill="none" stroke="#000000" points="1341.8362,-30 1335.8362,-30 "/>
<text text-anchor="middle" x="1015.818" y="-12" font-family="Helvetica,sans-Serif" font-size="20.00" fill="#000000">/tmp/capi_out/py_calc/taxed_order_items_py_{batch_idx|string}.csv</text>
</a>
</g>
</g>
<!-- file_taxed_order_items_py&#45;&gt;/tmp/capi_out/py_calc/taxed_order_items_py_{batch_idx|string}.csv -->
<g id="edge5" class="edge">
<title>file_taxed_order_items_py-&gt;/tmp/capi_out/py_calc/taxed_order_items_py_{batch_idx|string}.csv</title>
<path fill="none" stroke="#000000" stroke-dasharray="1,5" d="M1015.818,-73.2784C1015.818,-64.082 1015.818,-54.6304 1015.818,-46.2016"/>
<polygon fill="#000000" stroke="#000000" points="1019.3181,-46.1684 1015.818,-36.1685 1012.3181,-46.1685 1019.3181,-46.1684"/>
</g>
<!-- /tmp/capi_in/py_calc/olist_order_items_dataset00.csv -->
<g id="node8" class="node">
<title>/tmp/capi_in/py_calc/olist_order_items_dataset00.csv</title>
<g id="a_node8"><a xlink:title="Source data file(s)">
<polygon fill="none" stroke="#000000" points="934.7962,-620.2 931.7962,-624.2 910.7962,-624.2 907.7962,-620.2 404.8398,-620.2 404.8398,-492.2 934.7962,-492.2 934.7962,-620.2"/>
<text text-anchor="middle" x="669.818" y="-598.2" font-family="Helvetica,sans-Serif" font-size="20.00" fill="#000000">/tmp/capi_in/py_calc/olist_order_items_dataset00.csv</text>
<text text-anchor="middle" x="669.818" y="-574.2" font-family="Helvetica,sans-Serif" font-size="20.00" fill="#000000">/tmp/capi_in/py_calc/olist_order_items_dataset01.csv</text>
<text text-anchor="middle" x="669.818" y="-550.2" font-family="Helvetica,sans-Serif" font-size="20.00" fill="#000000">/tmp/capi_in/py_calc/olist_order_items_dataset02.csv</text>
<text text-anchor="middle" x="669.818" y="-526.2" font-family="Helvetica,sans-Serif" font-size="20.00" fill="#000000">/tmp/capi_in/py_calc/olist_order_items_dataset03.csv</text>
<text text-anchor="middle" x="669.818" y="-502.2" font-family="Helvetica,sans-Serif" font-size="20.00" fill="#000000">/tmp/capi_in/py_calc/olist_order_items_dataset04.csv</text>
</a>
</g>
</g>
<!-- /tmp/capi_in/py_calc/olist_order_items_dataset00.csv&#45;&gt;order_items -->
<g id="edge6" class="edge">
<title>/tmp/capi_in/py_calc/olist_order_items_dataset00.csv-&gt;order_items</title>
<path fill="none" stroke="#000000" stroke-dasharray="1,5" d="M669.818,-491.958C669.818,-482.9845 669.818,-473.8358 669.818,-465.0684"/>
<polygon fill="#000000" stroke="#000000" points="673.3181,-464.9845 669.818,-454.9845 666.3181,-464.9846 673.3181,-464.9845"/>
</g>
</g>
</svg>