<?xml version="1.0" encoding="UTF-8" standalone="no"?><!DOCTYPE svg PUBLIC "-//W3C//DTD SVG 1.1//EN" "http://www.w3.org/Graphics/SVG/1.1/DTD/svg11.dtd"><!-- Generated by graphviz version 2.40.1 (20161225.0304)
 --><!-- Title: indexes Pages: 1 --><svg xmlns="http://www.w3.org/2000/svg" xmlns:xlink="http://www.w3.org/1999/xlink" width="646pt" height="454pt" viewBox="0.00 0.00 645.92 453.60">
<g id="graph0" class="graph" transform="scale(1 1) rotate(0) translate(36 417.6)">
<title>indexes</title>
<polygon fill="#ffffff" stroke="transparent" points="-36,36 -36,-417.6 609.916,-417.6 609.916,36 -36,36"/>
<!-- /tmp/capi_in/proto_file_reader_creator_quicktest/products.csv -->
<g id="node1" class="node">
<title>/tmp/capi_in/proto_file_reader_creator_quicktest/products.csv</title>
<g id="a_node1"><a xlink:title="Source data file(s)">
<polygon fill="none" stroke="#000000" points="567.6361,-381.6 564.6361,-385.6 543.6361,-385.6 540.6361,-381.6 6.2799,-381.6 6.2799,-345.6 567.6361,-345.6 567.6361,-381.6"/>
<text text-anchor="middle" x="286.958" y="-357.6" font-family="Helvetica,sans-Serif" font-size="20.00" fill="#000000">/tmp/capi_in/proto_file_reader_creator_quicktest/products.csv</text>
</a>
</g>
</g>
<!-- products_csv -->
<g id="node2" class="node">
<title>products_csv</title>
<g id="a_node2"><a xlink:title="Read file /tmp/capi_in/proto_file_reader_creator_quicktest/products.csv to table">
<polygon fill="#ffffff" stroke="#000000" stroke-width="6" points="218.94,-220.1 218.94,-308.1 354.976,-308.1 354.976,-220.1 218.94,-220.1"/>
<text text-anchor="middle" x="286.958" y="-286.1" font-family="Helvetica,sans-Serif" font-size="20.00" fill="#000000">read_file</text>
<polyline fill="none" stroke="#000000" stroke-width="6" points="218.94,-276.1 354.976,-276.1 "/>
<text text-anchor="middle" x="286.958" y="-254.1" font-family="Helvetica,sans-Serif" font-size="20.00" fill="#000000">creates table:</text>
<text text-anchor="middle" x="286.958" y="-230.1" font-family="Helvetica,sans-Serif" font-size="20.00" fill="#000000">products_csv</text>
</a>
</g>
</g>
<!-- /tmp/capi_in/proto_file_reader_creator_quicktest/products.csv&#45;&gt;products_csv -->
<g id="edge1" class="edge">
<title>/tmp/capi_in/proto_file_reader_creator_quicktest/products.csv-&gt;products_csv</title>
<path fill="none" stroke="#000000" stroke-dasharray="1,5" d="M286.958,-345.3502C286.958,-337.6053 286.958,-328.1302 286.958,-318.421"/>
<polygon fill="#000000" stroke="#000000" points="290.4581,-318.2808 286.958,-308.2808 283.4581,-318.2809 290.4581,-318.2808"/>
</g>
<!-- write_file -->
<g id="node3" class="node">
<title>write_file</title>
<g id="a_node3"><a xlink:title="Write from table to file /tmp/capi_out/proto_file_reader_creator_quicktest/products.csv">
<polygon fill="#ffffff" stroke="#000000" points="0,-73.5 0,-161.5 573.916,-161.5 573.916,-73.5 0,-73.5"/>
<text text-anchor="middle" x="286.958" y="-139.5" font-family="Helvetica,sans-Serif" font-size="20.00" fill="#000000">write_file</text>
<polyline fill="none" stroke="#000000" points="0,-129.5 573.916,-129.5 "/>
<text text-anchor="middle" x="286.958" y="-107.5" font-family="Helvetica,sans-Serif" font-size="20.00" fill="#000000">creates file:</text>
<text text-anchor="middle" x="286.958" y="-83.5" font-family="Helvetica,sans-Serif" font-size="20.00" fill="#000000">/tmp/capi_out/proto_file_reader_creator_quicktest/products.csv</text>
</a>
</g>
</g>
<!-- products_csv&#45;&gt;write_file -->
<g id="edge2" class="edge">
<title>products_csv-&gt;write_file</title>
<path fill="none" stroke="#000000" d="M286.958,-219.7173C286.958,-204.6468 286.958,-187.6341 286.958,-171.8743"/>
<polygon fill="#000000" stroke="#000000" points="290.4581,-171.7318 286.958,-161.7318 283.4581,-171.7319 290.4581,-171.7318"/>
<text text-anchor="middle" x="403.9643" y="-185.4" font-family="Helvetica,sans-Serif" font-size="18.00" fill="#000000">products_csv (no parallelism)</text>
</g>
<!-- /tmp/capi_out/proto_file_reader_creator_quicktest/products.csv -->
<g id="node4" class="node">
<title>/tmp/capi_out/proto_file_reader_creator_quicktest/products.csv</title>
<g id="a_node4"><a xlink:title="Target data file(s)">
<polygon fill="none" stroke="#000000" points="567.874,-36 .042,-36 .042,0 573.874,0 573.874,-30 567.874,-36"/>
<polyline fill="none" stroke="#000000" points="567.874,-36 567.874,-30 "/>
<polyline fill="none" stroke="#000000" points="573.874,-30 567.874,-30 "/>
<text text-anchor="middle" x="286.958" y="-12" font-family="Helvetica,sans-Serif" font-size="20.00" fill="#000000">/tmp/capi_out/proto_file_reader_creator_quicktest/products.csv</text>
</a>
</g>
</g>
<!-- write_file&#45;&gt;/tmp/capi_out/proto_file_reader_creator_quicktest/products.csv -->
<g id="edge3" class="edge">
<title>write_file-&gt;/tmp/capi_out/proto_file_reader_creator_quicktest/products.csv</title>
<path fill="none" stroke="#000000" stroke-dasharray="1,5" d="M286.958,-73.2784C286.958,-64.082 286.958,-54.6304 286.958,-46.2016"/>
<polygon fill="#000000" stroke="#000000" points="290.4581,-46.1684 286.958,-36.1685 283.4581,-46.1685 290.4581,-46.1684"/>
</g>
</g>
</svg>