<?xml version="1.0" encoding="UTF-8" standalone="no"?><!DOCTYPE svg PUBLIC "-//W3C//DTD SVG 1.1//EN" "http://www.w3.org/Graphics/SVG/1.1/DTD/svg11.dtd"><!-- Generated by graphviz version 2.40.1 (20161225.0304)
 --><!-- Title: indexes Pages: 1 --><svg xmlns="http://www.w3.org/2000/svg" xmlns:xlink="http://www.w3.org/1999/xlink" width="2172pt" height="1223pt" viewBox="0.00 0.00 2171.84 1223.40">
<g id="graph0" class="graph" transform="scale(1 1) rotate(0) translate(36 1187.4)">
<title>indexes</title>
<polygon fill="#ffffff" stroke="transparent" points="-36,36 -36,-1187.4 2135.8438,-1187.4 2135.8438,36 -36,36"/>
<!-- deal_seller_summaries -->
<g id="node1" class="node">
<title>deal_seller_summaries</title>
<g id="a_node1"><a xlink:title="For each deal/seller, calculate aggregates from calculated loan summaries">
<polygon fill="#ffffff" stroke="#000000" points="1659.39,-220.1 1659.39,-340.1 1914.308,-340.1 1914.308,-220.1 1659.39,-220.1"/>
<text text-anchor="middle" x="1786.849" y="-318.1" font-family="Helvetica,sans-Serif" font-size="20.00" fill="#000000">05_deal_seller_summaries</text>
<polyline fill="none" stroke="#000000" points="1659.39,-308.1 1914.308,-308.1 "/>
<text text-anchor="middle" x="1786.849" y="-286.1" font-family="Helvetica,sans-Serif" font-size="20.00" fill="#000000">creates table:</text>
<text text-anchor="middle" x="1786.849" y="-262.1" font-family="Helvetica,sans-Serif" font-size="20.00" fill="#000000">deal_seller_summaries</text>
<polyline fill="none" stroke="#000000" points="1659.39,-252.1 1914.308,-252.1 "/>
<text text-anchor="middle" x="1786.849" y="-230.1" font-family="Helvetica,sans-Serif" font-size="20.00" fill="#000000">group:true, join:left</text>
</a>
</g>
</g>
<!-- 05_write_file_deal_seller_summaries -->
<g id="node2" class="node">
<title>05_write_file_deal_seller_summaries</title>
<g id="a_node2"><a xlink:title="Write from table to file deal_seller_summaries.parquet">
<polygon fill="#ffffff" stroke="#000000" points="1476.556,-73.5 1476.556,-161.5 2097.142,-161.5 2097.142,-73.5 1476.556,-73.5"/>
<text text-anchor="middle" x="1786.849" y="-139.5" font-family="Helvetica,sans-Serif" font-size="20.00" fill="#000000">05_write_file_deal_seller_summaries</text>
<polyline fill="none" stroke="#000000" points="1476.556,-129.5 2097.142,-129.5 "/>
<text text-anchor="middle" x="1786.849" y="-107.5" font-family="Helvetica,sans-Serif" font-size="20.00" fill="#000000">creates file:</text>
<text text-anchor="middle" x="1786.849" y="-83.5" font-family="Helvetica,sans-Serif" font-size="20.00" fill="#000000">/tmp/capi_out/fannie_mae_quicktest/deal_seller_summaries.parquet</text>
</a>
</g>
</g>
<!-- deal_seller_summaries&#45;&gt;05_write_file_deal_seller_summaries -->
<g id="edge1" class="edge">
<title>deal_seller_summaries-&gt;05_write_file_deal_seller_summaries</title>
<path fill="none" stroke="#000000" d="M1786.849,-220.0157C1786.849,-204.2859 1786.849,-187.4169 1786.849,-171.9964"/>
<polygon fill="#000000" stroke="#000000" points="1790.3491,-171.5839 1786.849,-161.584 1783.3491,-171.584 1790.3491,-171.5839"/>
<text text-anchor="middle" x="1943.3464" y="-185.4" font-family="Helvetica,sans-Serif" font-size="18.00" fill="#000000">deal_seller_summaries (no parallelism)</text>
</g>
<!-- /tmp/capi_out/fannie_mae_quicktest/deal_seller_summaries.parquet -->
<g id="node3" class="node">
<title>/tmp/capi_out/fannie_mae_quicktest/deal_seller_summaries.parquet</title>
<g id="a_node3"><a xlink:title="Target data file(s)">
<polygon fill="none" stroke="#000000" points="2090.9351,-36 1476.7629,-36 1476.7629,0 2096.9351,0 2096.9351,-30 2090.9351,-36"/>
<polyline fill="none" stroke="#000000" points="2090.9351,-36 2090.9351,-30 "/>
<polyline fill="none" stroke="#000000" points="2096.9351,-30 2090.9351,-30 "/>
<text text-anchor="middle" x="1786.849" y="-12" font-family="Helvetica,sans-Serif" font-size="20.00" fill="#000000">/tmp/capi_out/fannie_mae_quicktest/deal_seller_summaries.parquet</text>
</a>
</g>
</g>
<!-- 05_write_file_deal_seller_summaries&#45;&gt;/tmp/capi_out/fannie_mae_quicktest/deal_seller_summaries.parquet -->
<g id="edge2" class="edge">
<title>05_write_file_deal_seller_summaries-&gt;/tmp/capi_out/fannie_mae_quicktest/deal_seller_summaries.parquet</title>
<path fill="none" stroke="#000000" stroke-dasharray="1,5" d="M1786.849,-73.2784C1786.849,-64.082 1786.849,-54.6304 1786.849,-46.2016"/>
<polygon fill="#000000" stroke="#000000" points="1790.3491,-46.1684 1786.849,-36.1685 1783.3491,-46.1685 1790.3491,-46.1684"/>
</g>
<!-- deal_total_upbs -->
<g id="node4" class="node">
<title>deal_total_upbs</title>
<g id="a_node4"><a xlink:title="For each deal, calculate total UPBs">
<polygon fill="#ffffff" stroke="#000000" points="204.586,-398.7 204.586,-518.7 395.112,-518.7 395.112,-398.7 204.586,-398.7"/>
<text text-anchor="middle" x="299.849" y="-496.7" font-family="Helvetica,sans-Serif" font-size="20.00" fill="#000000">03_deal_total_upbs</text>
<polyline fill="none" stroke="#000000" points="204.586,-486.7 395.112,-486.7 "/>
<text text-anchor="middle" x="299.849" y="-464.7" font-family="Helvetica,sans-Serif" font-size="20.00" fill="#000000">creates table:</text>
<text text-anchor="middle" x="299.849" y="-440.7" font-family="Helvetica,sans-Serif" font-size="20.00" fill="#000000">deal_total_upbs</text>
<polyline fill="none" stroke="#000000" points="204.586,-430.7 395.112,-430.7 "/>
<text text-anchor="middle" x="299.849" y="-408.7" font-family="Helvetica,sans-Serif" font-size="20.00" fill="#000000">group:true, join:left</text>
</a>
</g>
</g>
<!-- deal_summaries -->
<g id="node5" class="node">
<title>deal_summaries</title>
<g id="a_node5"><a xlink:title="For each deal, calculate aggregates from calculated loan summaries">
<polygon fill="#ffffff" stroke="#000000" points="182.834,-220.1 182.834,-340.1 378.864,-340.1 378.864,-220.1 182.834,-220.1"/>
<text text-anchor="middle" x="280.849" y="-318.1" font-family="Helvetica,sans-Serif" font-size="20.00" fill="#000000">05_deal_summaries</text>
<polyline fill="none" stroke="#000000" points="182.834,-308.1 378.864,-308.1 "/>
<text text-anchor="middle" x="280.849" y="-286.1" font-family="Helvetica,sans-Serif" font-size="20.00" fill="#000000">creates table:</text>
<text text-anchor="middle" x="280.849" y="-262.1" font-family="Helvetica,sans-Serif" font-size="20.00" fill="#000000">deal_summaries</text>
<polyline fill="none" stroke="#000000" points="182.834,-252.1 378.864,-252.1 "/>
<text text-anchor="middle" x="280.849" y="-230.1" font-family="Helvetica,sans-Serif" font-size="20.00" fill="#000000">group:true, join:left</text>
</a>
</g>
</g>
<!-- deal_total_upbs&#45;&gt;deal_summaries -->
<g id="edge3" class="edge">
<title>deal_total_upbs-&gt;deal_summaries</title>
<path fill="none" stroke="#000000" d="M239.8848,-398.443C236.2666,-392.5923 233.1375,-386.4845 230.766,-380.2 226.9966,-370.2112 227.152,-359.8993 229.721,-349.8631"/>
<polygon fill="#000000" stroke="#000000" points="233.0519,-350.9381 232.8745,-340.3448 226.4071,-348.7367 233.0519,-350.9381"/>
<text text-anchor="middle" x="346.8905" y="-364" font-family="Helvetica,sans-Serif" font-size="18.00" fill="#000000">deal_total_upbs (10 batches)</text>
</g>
<!-- 05_write_file_deal_summaries -->
<g id="node15" class="node">
<title>05_write_file_deal_summaries</title>
<g id="a_node15"><a xlink:title="Write from table to file deal_summaries.parquet">
<polygon fill="#ffffff" stroke="#000000" points="0,-73.5 0,-161.5 561.698,-161.5 561.698,-73.5 0,-73.5"/>
<text text-anchor="middle" x="280.849" y="-139.5" font-family="Helvetica,sans-Serif" font-size="20.00" fill="#000000">05_write_file_deal_summaries</text>
<polyline fill="none" stroke="#000000" points="0,-129.5 561.698,-129.5 "/>
<text text-anchor="middle" x="280.849" y="-107.5" font-family="Helvetica,sans-Serif" font-size="20.00" fill="#000000">creates file:</text>
<text text-anchor="middle" x="280.849" y="-83.5" font-family="Helvetica,sans-Serif" font-size="20.00" fill="#000000">/tmp/capi_out/fannie_mae_quicktest/deal_summaries.parquet</text>
</a>
</g>
</g>
<!-- deal_summaries&#45;&gt;05_write_file_deal_summaries -->
<g id="edge18" class="edge">
<title>deal_summaries-&gt;05_write_file_deal_summaries</title>
<path fill="none" stroke="#000000" d="M280.849,-220.0157C280.849,-204.2859 280.849,-187.4169 280.849,-171.9964"/>
<polygon fill="#000000" stroke="#000000" points="284.3491,-171.5839 280.849,-161.584 277.3491,-171.584 284.3491,-171.5839"/>
<text text-anchor="middle" x="410.8468" y="-185.4" font-family="Helvetica,sans-Serif" font-size="18.00" fill="#000000">deal_summaries (no parallelism)</text>
</g>
<!-- loan_summaries_calculated -->
<g id="node6" class="node">
<title>loan_summaries_calculated</title>
<g id="a_node6"><a xlink:title="Apply Python calculations to loan summaries">
<polygon fill="#ffffff" stroke="#000000" points="825.263,-414.7 825.263,-502.7 1122.435,-502.7 1122.435,-414.7 825.263,-414.7"/>
<text text-anchor="middle" x="973.849" y="-480.7" font-family="Helvetica,sans-Serif" font-size="20.00" fill="#000000">04_loan_summaries_calculated</text>
<polyline fill="none" stroke="#000000" points="825.263,-470.7 1122.435,-470.7 "/>
<text text-anchor="middle" x="973.849" y="-448.7" font-family="Helvetica,sans-Serif" font-size="20.00" fill="#000000">creates table:</text>
<text text-anchor="middle" x="973.849" y="-424.7" font-family="Helvetica,sans-Serif" font-size="20.00" fill="#000000">loan_summaries_calculated</text>
</a>
</g>
</g>
<!-- loan_summaries_calculated&#45;&gt;deal_seller_summaries -->
<g id="edge11" class="edge">
<title>loan_summaries_calculated-&gt;deal_seller_summaries</title>
<path fill="none" stroke="#000000" stroke-dasharray="5,2" d="M1122.6005,-436.5209C1186.5736,-424.2002 1261.321,-406.0136 1325.849,-380.2 1343.1377,-373.2839 1344.3353,-365.1967 1361.7484,-358.6 1454.2365,-323.5621 1564.1522,-303.7955 1649.0441,-292.8625"/>
<polygon fill="#000000" stroke="#000000" points="1649.5244,-296.3297 1659.0074,-291.6049 1648.6478,-289.3848 1649.5244,-296.3297"/>
<text text-anchor="middle" x="1627.3993" y="-364" font-family="Helvetica,sans-Serif" font-size="18.00" fill="#000000">idx_loan_summaries_calculated_deal_name_seller_name (lookup)</text>
</g>
<!-- loan_summaries_calculated&#45;&gt;deal_summaries -->
<g id="edge4" class="edge">
<title>loan_summaries_calculated-&gt;deal_summaries</title>
<path fill="none" stroke="#000000" stroke-dasharray="5,2" d="M825.1759,-439.4942C739.5967,-426.599 630.5593,-407.0223 535.7646,-380.2 486.3257,-366.2112 433.2026,-346.1958 388.315,-327.7343"/>
<polygon fill="#000000" stroke="#000000" points="389.444,-324.4137 378.8657,-323.8212 386.7657,-330.8811 389.444,-324.4137"/>
<text text-anchor="middle" x="748.3912" y="-364" font-family="Helvetica,sans-Serif" font-size="18.00" fill="#000000">idx_loan_summaries_calculated_deal_name (lookup)</text>
</g>
<!-- 04_write_file_loan_summaries_calculated -->
<g id="node11" class="node">
<title>04_write_file_loan_summaries_calculated</title>
<g id="a_node11"><a xlink:title="Write from table to file loan_summaries.parquet">
<polygon fill="#ffffff" stroke="#000000" points="642.429,-236.1 642.429,-324.1 1305.269,-324.1 1305.269,-236.1 642.429,-236.1"/>
<text text-anchor="middle" x="973.849" y="-302.1" font-family="Helvetica,sans-Serif" font-size="20.00" fill="#000000">04_write_file_loan_summaries_calculated</text>
<polyline fill="none" stroke="#000000" points="642.429,-292.1 1305.269,-292.1 "/>
<text text-anchor="middle" x="973.849" y="-270.1" font-family="Helvetica,sans-Serif" font-size="20.00" fill="#000000">creates file:</text>
<text text-anchor="middle" x="973.849" y="-246.1" font-family="Helvetica,sans-Serif" font-size="20.00" fill="#000000">/tmp/capi_out/fannie_mae_quicktest/loan_summaries_calculated.parquet</text>
</a>
</g>
</g>
<!-- loan_summaries_calculated&#45;&gt;04_write_file_loan_summaries_calculated -->
<g id="edge8" class="edge">
<title>loan_summaries_calculated-&gt;04_write_file_loan_summaries_calculated</title>
<path fill="none" stroke="#000000" d="M971.1758,-414.2943C970.6153,-403.1662 970.1086,-391.2499 969.8256,-380.2 969.4457,-365.3669 969.7659,-349.3033 970.3616,-334.4767"/>
<polygon fill="#000000" stroke="#000000" points="973.8601,-334.5872 970.8129,-324.4401 966.8672,-334.2727 973.8601,-334.5872"/>
<text text-anchor="middle" x="1145.3607" y="-364" font-family="Helvetica,sans-Serif" font-size="18.00" fill="#000000">loan_summaries_calculated (no parallelism)</text>
</g>
<!-- loan_ids -->
<g id="node7" class="node">
<title>loan_ids</title>
<g id="a_node7"><a xlink:title="Select distinct loan ids">
<polygon fill="#ffffff" stroke="#000000" points="889.831,-823.3 889.831,-911.3 1025.867,-911.3 1025.867,-823.3 889.831,-823.3"/>
<text text-anchor="middle" x="957.849" y="-889.3" font-family="Helvetica,sans-Serif" font-size="20.00" fill="#000000">02_loan_ids</text>
<polyline fill="none" stroke="#000000" points="889.831,-879.3 1025.867,-879.3 "/>
<text text-anchor="middle" x="957.849" y="-857.3" font-family="Helvetica,sans-Serif" font-size="20.00" fill="#000000">creates table:</text>
<text text-anchor="middle" x="957.849" y="-833.3" font-family="Helvetica,sans-Serif" font-size="20.00" fill="#000000">loan_ids</text>
</a>
</g>
</g>
<!-- loan_ids&#45;&gt;deal_total_upbs -->
<g id="edge15" class="edge">
<title>loan_ids-&gt;deal_total_upbs</title>
<path fill="none" stroke="#000000" stroke-dasharray="5,2" d="M889.6618,-859.4359C784.841,-845.9209 591.3216,-814.8523 544.7814,-765.2 474.3744,-690.085 569.4261,-616.5665 503.849,-537.2 478.9976,-507.1229 441.204,-488.5431 404.8718,-477.0768"/>
<polygon fill="#000000" stroke="#000000" points="405.761,-473.6895 395.177,-474.1701 403.7506,-480.3946 405.761,-473.6895"/>
<text text-anchor="middle" x="679.3828" y="-699.3" font-family="Helvetica,sans-Serif" font-size="18.00" fill="#000000">idx_loan_ids_deal_name (lookup)</text>
</g>
<!-- deal_names -->
<g id="node8" class="node">
<title>deal_names</title>
<g id="a_node8"><a xlink:title="Select distinct deal names">
<polygon fill="#ffffff" stroke="#000000" points="235.711,-660.7 235.711,-748.7 393.987,-748.7 393.987,-660.7 235.711,-660.7"/>
<text text-anchor="middle" x="314.849" y="-726.7" font-family="Helvetica,sans-Serif" font-size="20.00" fill="#000000">02_deal_names</text>
<polyline fill="none" stroke="#000000" points="235.711,-716.7 393.987,-716.7 "/>
<text text-anchor="middle" x="314.849" y="-694.7" font-family="Helvetica,sans-Serif" font-size="20.00" fill="#000000">creates table:</text>
<text text-anchor="middle" x="314.849" y="-670.7" font-family="Helvetica,sans-Serif" font-size="20.00" fill="#000000">deal_names</text>
</a>
</g>
</g>
<!-- loan_ids&#45;&gt;deal_names -->
<g id="edge5" class="edge">
<title>loan_ids-&gt;deal_names</title>
<path fill="none" stroke="#000000" d="M889.6102,-865.2863C734.6258,-860.0498 366.4096,-843.6191 326.8014,-804.8 314.7422,-792.9811 310.0748,-775.8537 308.9405,-759.0975"/>
<polygon fill="#000000" stroke="#000000" points="312.4299,-758.6631 308.6563,-748.7632 305.4326,-758.8556 312.4299,-758.6631"/>
<text text-anchor="middle" x="412.8728" y="-788.6" font-family="Helvetica,sans-Serif" font-size="18.00" fill="#000000">loan_ids (10 batches)</text>
</g>
<!-- deal_sellers -->
<g id="node9" class="node">
<title>deal_sellers</title>
<g id="a_node9"><a xlink:title="Select distinct sellers">
<polygon fill="#ffffff" stroke="#000000" points="1569.832,-537.7 1569.832,-625.7 1725.866,-625.7 1725.866,-537.7 1569.832,-537.7"/>
<text text-anchor="middle" x="1647.849" y="-603.7" font-family="Helvetica,sans-Serif" font-size="20.00" fill="#000000">02_deal_sellers</text>
<polyline fill="none" stroke="#000000" points="1569.832,-593.7 1725.866,-593.7 "/>
<text text-anchor="middle" x="1647.849" y="-571.7" font-family="Helvetica,sans-Serif" font-size="20.00" fill="#000000">creates table:</text>
<text text-anchor="middle" x="1647.849" y="-547.7" font-family="Helvetica,sans-Serif" font-size="20.00" fill="#000000">deal_sellers</text>
</a>
</g>
</g>
<!-- loan_ids&#45;&gt;deal_sellers -->
<g id="edge6" class="edge">
<title>loan_ids-&gt;deal_sellers</title>
<path fill="none" stroke="#000000" d="M1025.9905,-843.7579C1057.991,-832.428 1096.5552,-818.3796 1130.849,-804.8 1283.3303,-744.4208 1457.9874,-667.3675 1560.2728,-621.4236"/>
<polygon fill="#000000" stroke="#000000" points="1561.9525,-624.506 1569.6379,-617.2131 1559.082,-618.1215 1561.9525,-624.506"/>
<text text-anchor="middle" x="1266.8728" y="-788.6" font-family="Helvetica,sans-Serif" font-size="18.00" fill="#000000">loan_ids (10 batches)</text>
</g>
<!-- loan_payment_summaries -->
<g id="node10" class="node">
<title>loan_payment_summaries</title>
<g id="a_node10"><a xlink:title="For each loan, merge all payments into single json string">
<polygon fill="#ffffff" stroke="#000000" points="831.931,-644.7 831.931,-764.7 1115.767,-764.7 1115.767,-644.7 831.931,-644.7"/>
<text text-anchor="middle" x="973.849" y="-742.7" font-family="Helvetica,sans-Serif" font-size="20.00" fill="#000000">04_loan_payment_summaries</text>
<polyline fill="none" stroke="#000000" points="831.931,-732.7 1115.767,-732.7 "/>
<text text-anchor="middle" x="973.849" y="-710.7" font-family="Helvetica,sans-Serif" font-size="20.00" fill="#000000">creates table:</text>
<text text-anchor="middle" x="973.849" y="-686.7" font-family="Helvetica,sans-Serif" font-size="20.00" fill="#000000">loan_payment_summaries</text>
<polyline fill="none" stroke="#000000" points="831.931,-676.7 1115.767,-676.7 "/>
<text text-anchor="middle" x="973.849" y="-654.7" font-family="Helvetica,sans-Serif" font-size="20.00" fill="#000000">group:true, join:left</text>
</a>
</g>
</g>
<!-- loan_ids&#45;&gt;loan_payment_summaries -->
<g id="edge16" class="edge">
<title>loan_ids-&gt;loan_payment_summaries</title>
<path fill="none" stroke="#000000" d="M954.6392,-823.2694C954.2918,-817.071 953.9947,-810.7773 953.8014,-804.8 953.491,-795.205 952.6043,-792.7251 953.8014,-783.2 954.1431,-780.4807 954.549,-777.7207 955.0072,-774.9418"/>
<polygon fill="#000000" stroke="#000000" points="958.4991,-775.306 956.8746,-764.8364 951.6156,-774.0339 958.4991,-775.306"/>
<text text-anchor="middle" x="1039.8728" y="-788.6" font-family="Helvetica,sans-Serif" font-size="18.00" fill="#000000">loan_ids (10 batches)</text>
</g>
<!-- deal_names&#45;&gt;deal_total_upbs -->
<g id="edge14" class="edge">
<title>deal_names-&gt;deal_total_upbs</title>
<path fill="none" stroke="#000000" d="M302.1994,-660.6158C299.5441,-649.4798 297.1406,-637.4793 295.791,-626.2 292.0041,-594.5507 292.2027,-559.3061 293.6687,-529.343"/>
<polygon fill="#000000" stroke="#000000" points="297.184,-529.1558 294.2356,-518.9795 290.1945,-528.7734 297.184,-529.1558"/>
<text text-anchor="middle" x="397.378" y="-576.3" font-family="Helvetica,sans-Serif" font-size="18.00" fill="#000000">deal_names (10 batches)</text>
</g>
<!-- deal_sellers&#45;&gt;deal_seller_summaries -->
<g id="edge10" class="edge">
<title>deal_sellers-&gt;deal_seller_summaries</title>
<path fill="none" stroke="#000000" d="M1725.986,-543.9235C1785.8447,-510.2137 1864.0481,-454.6652 1899.849,-380.2 1905.2396,-368.9877 1904.7458,-358.4918 1900.3647,-348.8322"/>
<polygon fill="#000000" stroke="#000000" points="1903.3814,-347.0575 1895.3055,-340.1996 1897.3421,-350.5969 1903.3814,-347.0575"/>
<text text-anchor="middle" x="1988.3691" y="-453.3" font-family="Helvetica,sans-Serif" font-size="18.00" fill="#000000">deal_sellers (10 batches)</text>
</g>
<!-- loan_payment_summaries&#45;&gt;loan_summaries_calculated -->
<g id="edge7" class="edge">
<title>loan_payment_summaries-&gt;loan_summaries_calculated</title>
<path fill="none" stroke="#000000" d="M973.849,-644.5216C973.849,-604.3049 973.849,-551.84 973.849,-512.9179"/>
<polygon fill="#000000" stroke="#000000" points="977.3491,-512.8263 973.849,-502.8263 970.3491,-512.8263 977.3491,-512.8263"/>
<text text-anchor="middle" x="1131.88" y="-576.3" font-family="Helvetica,sans-Serif" font-size="18.00" fill="#000000">loan_payment_summaries (10 batches)</text>
</g>
<!-- /tmp/capi_out/fannie_mae_quicktest/loan_summaries_calculated.parquet -->
<g id="node12" class="node">
<title>/tmp/capi_out/fannie_mae_quicktest/loan_summaries_calculated.parquet</title>
<g id="a_node12"><a xlink:title="Target data file(s)">
<polygon fill="none" stroke="#000000" points="1299.189,-135.5 642.509,-135.5 642.509,-99.5 1305.189,-99.5 1305.189,-129.5 1299.189,-135.5"/>
<polyline fill="none" stroke="#000000" points="1299.189,-135.5 1299.189,-129.5 "/>
<polyline fill="none" stroke="#000000" points="1305.189,-129.5 1299.189,-129.5 "/>
<text text-anchor="middle" x="973.849" y="-111.5" font-family="Helvetica,sans-Serif" font-size="20.00" fill="#000000">/tmp/capi_out/fannie_mae_quicktest/loan_summaries_calculated.parquet</text>
</a>
</g>
</g>
<!-- 04_write_file_loan_summaries_calculated&#45;&gt;/tmp/capi_out/fannie_mae_quicktest/loan_summaries_calculated.parquet -->
<g id="edge9" class="edge">
<title>04_write_file_loan_summaries_calculated-&gt;/tmp/capi_out/fannie_mae_quicktest/loan_summaries_calculated.parquet</title>
<path fill="none" stroke="#000000" stroke-dasharray="1,5" d="M973.849,-236.0981C973.849,-207.4232 973.849,-170.845 973.849,-145.9437"/>
<polygon fill="#000000" stroke="#000000" points="977.3491,-145.7194 973.849,-135.7195 970.3491,-145.7195 977.3491,-145.7194"/>
</g>
<!-- /tmp/capi_in/fannie_mae_quicktest/CAS_2023_R08_G1_20231020_000.parquet -->
<g id="node13" class="node">
<title>/tmp/capi_in/fannie_mae_quicktest/CAS_2023_R08_G1_20231020_000.parquet</title>
<g id="a_node13"><a xlink:title="Source data file(s)">
<polygon fill="none" stroke="#000000" points="1526.4571,-1151.4 1523.4571,-1155.4 1502.4571,-1155.4 1499.4571,-1151.4 797.2409,-1151.4 797.2409,-1095.4 1526.4571,-1095.4 1526.4571,-1151.4"/>
<text text-anchor="middle" x="1161.849" y="-1129.4" font-family="Helvetica,sans-Serif" font-size="20.00" fill="#000000">/tmp/capi_in/fannie_mae_quicktest/CAS_2023_R08_G1_20231020_000.parquet</text>
<text text-anchor="middle" x="1161.849" y="-1105.4" font-family="Helvetica,sans-Serif" font-size="20.00" fill="#000000">/tmp/capi_in/fannie_mae_quicktest/CAS_2023_R08_G1_20231020_001.parquet</text>
</a>
</g>
</g>
<!-- payments -->
<g id="node14" class="node">
<title>payments</title>
<g id="a_node14"><a xlink:title="Read source files to a table">
<polygon fill="#ffffff" stroke="#000000" stroke-width="6" points="1068.263,-969.9 1068.263,-1057.9 1255.435,-1057.9 1255.435,-969.9 1068.263,-969.9"/>
<text text-anchor="middle" x="1161.849" y="-1035.9" font-family="Helvetica,sans-Serif" font-size="20.00" fill="#000000">01_read_payments</text>
<polyline fill="none" stroke="#000000" stroke-width="6" points="1068.263,-1025.9 1255.435,-1025.9 "/>
<text text-anchor="middle" x="1161.849" y="-1003.9" font-family="Helvetica,sans-Serif" font-size="20.00" fill="#000000">creates table:</text>
<text text-anchor="middle" x="1161.849" y="-979.9" font-family="Helvetica,sans-Serif" font-size="20.00" fill="#000000">payments</text>
</a>
</g>
</g>
<!-- /tmp/capi_in/fannie_mae_quicktest/CAS_2023_R08_G1_20231020_000.parquet&#45;&gt;payments -->
<g id="edge12" class="edge">
<title>/tmp/capi_in/fannie_mae_quicktest/CAS_2023_R08_G1_20231020_000.parquet-&gt;payments</title>
<path fill="none" stroke="#000000" stroke-dasharray="1,5" d="M1161.849,-1095.201C1161.849,-1086.9177 1161.849,-1077.5646 1161.849,-1068.2278"/>
<polygon fill="#000000" stroke="#000000" points="1165.3491,-1068.1542 1161.849,-1058.1543 1158.3491,-1068.1543 1165.3491,-1068.1542"/>
</g>
<!-- payments&#45;&gt;loan_ids -->
<g id="edge13" class="edge">
<title>payments-&gt;loan_ids</title>
<path fill="none" stroke="#000000" d="M1100.3656,-969.7164C1077.3829,-953.2004 1051.1233,-934.3294 1027.4589,-917.3236"/>
<polygon fill="#000000" stroke="#000000" points="1029.3696,-914.3867 1019.2064,-911.3931 1025.2846,-920.0711 1029.3696,-914.3867"/>
<text text-anchor="middle" x="1163.3727" y="-935.2" font-family="Helvetica,sans-Serif" font-size="18.00" fill="#000000">payments (10 batches)</text>
</g>
<!-- payments&#45;&gt;loan_payment_summaries -->
<g id="edge17" class="edge">
<title>payments-&gt;loan_payment_summaries</title>
<path fill="none" stroke="#000000" stroke-dasharray="5,2" d="M1237.8318,-969.8346C1308.634,-923.2088 1396.0317,-847.6154 1343.849,-783.2 1316.0599,-748.8966 1215.3907,-728.972 1126.0656,-717.785"/>
<polygon fill="#000000" stroke="#000000" points="1126.423,-714.3027 1116.0722,-716.5634 1125.5736,-721.251 1126.423,-714.3027"/>
<text text-anchor="middle" x="1497.8837" y="-861.9" font-family="Helvetica,sans-Serif" font-size="18.00" fill="#000000">idx_payments_by_loan_id (lookup)</text>
</g>
<!-- /tmp/capi_out/fannie_mae_quicktest/deal_summaries.parquet -->
<g id="node16" class="node">
<title>/tmp/capi_out/fannie_mae_quicktest/deal_summaries.parquet</title>
<g id="a_node16"><a xlink:title="Target data file(s)">
<polygon fill="none" stroke="#000000" points="555.5471,-36 .1509,-36 .1509,0 561.5471,0 561.5471,-30 555.5471,-36"/>
<polyline fill="none" stroke="#000000" points="555.5471,-36 555.5471,-30 "/>
<polyline fill="none" stroke="#000000" points="561.5471,-30 555.5471,-30 "/>
<text text-anchor="middle" x="280.849" y="-12" font-family="Helvetica,sans-Serif" font-size="20.00" fill="#000000">/tmp/capi_out/fannie_mae_quicktest/deal_summaries.parquet</text>
</a>
</g>
</g>
<!-- 05_write_file_deal_summaries&#45;&gt;/tmp/capi_out/fannie_mae_quicktest/deal_summaries.parquet -->
<g id="edge19" class="edge">
<title>05_write_file_deal_summaries-&gt;/tmp/capi_out/fannie_mae_quicktest/deal_summaries.parquet</title>
<path fill="none" stroke="#000000" stroke-dasharray="1,5" d="M280.849,-73.2784C280.849,-64.082 280.849,-54.6304 280.849,-46.2016"/>
<polygon fill="#000000" stroke="#000000" points="284.3491,-46.1684 280.849,-36.1685 277.3491,-46.1685 284.3491,-46.1684"/>
</g>
</g>
</svg>