<?xml version="1.0" encoding="UTF-8" standalone="no"?><!DOCTYPE svg PUBLIC "-//W3C//DTD SVG 1.1//EN" "http://www.w3.org/Graphics/SVG/1.1/DTD/svg11.dtd"><!-- Generated by graphviz version 2.40.1 (20161225.0304)
 --><!-- Title: indexes Pages: 1 --><svg xmlns="http://www.w3.org/2000/svg" xmlns:xlink="http://www.w3.org/1999/xlink" width="2442pt" height="632pt" viewBox="0.00 0.00 2441.69 632.20">
<g id="graph0" class="graph" transform="scale(1 1) rotate(0) translate(36 596.2)">
<title>indexes</title>
<polygon fill="#ffffff" stroke="transparent" points="-36,36 -36,-596.2 2405.6914,-596.2 2405.6914,36 -36,36"/>
<!-- order_date_value_grouped_left_outer -->
<g id="node1" class="node">
<title>order_date_value_grouped_left_outer</title>
<g id="a_node1"><a xlink:title="For each order, look up order items and perform left outer join with grouping and aggregation">
<polygon fill="#ffffff" stroke="#000000" stroke-width="6" points="1304.376,-220.1 1304.376,-340.1 1654.948,-340.1 1654.948,-220.1 1304.376,-220.1"/>
<text text-anchor="middle" x="1479.662" y="-318.1" font-family="Helvetica,sans-Serif" font-size="20.00" fill="#000000">order_date_value_grouped_left_outer</text>
<polyline fill="none" stroke="#000000" stroke-width="6" points="1304.376,-308.1 1654.948,-308.1 "/>
<text text-anchor="middle" x="1479.662" y="-286.1" font-family="Helvetica,sans-Serif" font-size="20.00" fill="#000000">creates table:</text>
<text text-anchor="middle" x="1479.662" y="-262.1" font-family="Helvetica,sans-Serif" font-size="20.00" fill="#000000">order_date_value_grouped_left_outer</text>
<polyline fill="none" stroke="#000000" stroke-width="6" points="1304.376,-252.1 1654.948,-252.1 "/>
<text text-anchor="middle" x="1479.662" y="-230.1" font-family="Helvetica,sans-Serif" font-size="20.00" fill="#000000">group:true, join:left</text>
</a>
</g>
</g>
<!-- file_order_date_value_grouped_left_outer -->
<g id="node2" class="node">
<title>file_order_date_value_grouped_left_outer</title>
<g id="a_node2"><a xlink:title="Write the results of left outer join with grouping to CSV file">
<polygon fill="#ffffff" stroke="#000000" points="1171.545,-73.5 1171.545,-161.5 1787.779,-161.5 1787.779,-73.5 1171.545,-73.5"/>
<text text-anchor="middle" x="1479.662" y="-139.5" font-family="Helvetica,sans-Serif" font-size="20.00" fill="#000000">file_order_date_value_grouped_left_outer</text>
<polyline fill="none" stroke="#000000" points="1171.545,-129.5 1787.779,-129.5 "/>
<text text-anchor="middle" x="1479.662" y="-107.5" font-family="Helvetica,sans-Serif" font-size="20.00" fill="#000000">creates file:</text>
<text text-anchor="middle" x="1479.662" y="-83.5" font-family="Helvetica,sans-Serif" font-size="20.00" fill="#000000">../../../test/lookup/data/out/order_date_value_grouped_left_outer.csv</text>
</a>
</g>
</g>
<!-- order_date_value_grouped_left_outer&#45;&gt;file_order_date_value_grouped_left_outer -->
<g id="edge1" class="edge">
<title>order_date_value_grouped_left_outer-&gt;file_order_date_value_grouped_left_outer</title>
<path fill="none" stroke="#000000" d="M1479.662,-220.0157C1479.662,-204.2859 1479.662,-187.4169 1479.662,-171.9964"/>
<polygon fill="#000000" stroke="#000000" points="1483.1621,-171.5839 1479.662,-161.584 1476.1621,-171.584 1483.1621,-171.5839"/>
<text text-anchor="middle" x="1694.213" y="-185.4" font-family="Helvetica,sans-Serif" font-size="18.00" fill="#000000">order_date_value_grouped_left_outer (no parallelism)</text>
</g>
<!-- ../../../test/lookup/data/out/order_date_value_grouped_left_outer.csv -->
<g id="node3" class="node">
<title>../../../test/lookup/data/out/order_date_value_grouped_left_outer.csv</title>
<g id="a_node3"><a xlink:title="Target data file(s)">
<polygon fill="none" stroke="#000000" points="1781.896,-36 1171.428,-36 1171.428,0 1787.896,0 1787.896,-30 1781.896,-36"/>
<polyline fill="none" stroke="#000000" points="1781.896,-36 1781.896,-30 "/>
<polyline fill="none" stroke="#000000" points="1787.896,-30 1781.896,-30 "/>
<text text-anchor="middle" x="1479.662" y="-12" font-family="Helvetica,sans-Serif" font-size="20.00" fill="#000000">../../../test/lookup/data/out/order_date_value_grouped_left_outer.csv</text>
</a>
</g>
</g>
<!-- file_order_date_value_grouped_left_outer&#45;&gt;../../../test/lookup/data/out/order_date_value_grouped_left_outer.csv -->
<g id="edge2" class="edge">
<title>file_order_date_value_grouped_left_outer-&gt;../../../test/lookup/data/out/order_date_value_grouped_left_outer.csv</title>
<path fill="none" stroke="#000000" stroke-dasharray="1,5" d="M1479.662,-73.2784C1479.662,-64.082 1479.662,-54.6304 1479.662,-46.2016"/>
<polygon fill="#000000" stroke="#000000" points="1483.1621,-46.1684 1479.662,-36.1685 1476.1621,-46.1685 1483.1621,-46.1684"/>
</g>
<!-- ../../../test/lookup/data/in/olist_orders_dataset.csv -->
<g id="node4" class="node">
<title>../../../test/lookup/data/in/olist_orders_dataset.csv</title>
<g id="a_node4"><a xlink:title="Source data file(s)">
<polygon fill="none" stroke="#000000" points="842.6322,-560.2 839.6322,-564.2 818.6322,-564.2 815.6322,-560.2 392.6918,-560.2 392.6918,-524.2 842.6322,-524.2 842.6322,-560.2"/>
<text text-anchor="middle" x="617.662" y="-536.2" font-family="Helvetica,sans-Serif" font-size="20.00" fill="#000000">../../../test/lookup/data/in/olist_orders_dataset.csv</text>
</a>
</g>
</g>
<!-- orders -->
<g id="node5" class="node">
<title>orders</title>
<g id="a_node5"><a xlink:title="Load order data from CSV file">
<polygon fill="#ffffff" stroke="#000000" stroke-width="6" points="549.644,-398.7 549.644,-486.7 685.68,-486.7 685.68,-398.7 549.644,-398.7"/>
<text text-anchor="middle" x="617.662" y="-464.7" font-family="Helvetica,sans-Serif" font-size="20.00" fill="#000000">read_orders</text>
<polyline fill="none" stroke="#000000" stroke-width="6" points="549.644,-454.7 685.68,-454.7 "/>
<text text-anchor="middle" x="617.662" y="-432.7" font-family="Helvetica,sans-Serif" font-size="20.00" fill="#000000">creates table:</text>
<text text-anchor="middle" x="617.662" y="-408.7" font-family="Helvetica,sans-Serif" font-size="20.00" fill="#000000">orders</text>
</a>
</g>
</g>
<!-- ../../../test/lookup/data/in/olist_orders_dataset.csv&#45;&gt;orders -->
<g id="edge3" class="edge">
<title>../../../test/lookup/data/in/olist_orders_dataset.csv-&gt;orders</title>
<path fill="none" stroke="#000000" stroke-dasharray="1,5" d="M617.662,-523.9502C617.662,-516.2053 617.662,-506.7302 617.662,-497.021"/>
<polygon fill="#000000" stroke="#000000" points="621.1621,-496.8808 617.662,-486.8808 614.1621,-496.8809 621.1621,-496.8808"/>
</g>
<!-- orders&#45;&gt;order_date_value_grouped_left_outer -->
<g id="edge15" class="edge">
<title>orders-&gt;order_date_value_grouped_left_outer</title>
<path fill="none" stroke="#000000" d="M686.0216,-439.9518C762.6591,-434.9136 889.4465,-420.6397 990.662,-380.2 1006.5856,-373.8379 1006.7202,-364.9946 1022.6308,-358.6 1108.4078,-324.1254 1209.1874,-304.784 1294.2527,-293.936"/>
<polygon fill="#000000" stroke="#000000" points="1294.7904,-297.3961 1304.2811,-292.6869 1293.9251,-290.4498 1294.7904,-297.3961"/>
<text text-anchor="middle" x="1099.6776" y="-364" font-family="Helvetica,sans-Serif" font-size="18.00" fill="#000000">orders (10 batches)</text>
</g>
<!-- order_item_date_left_outer -->
<g id="node8" class="node">
<title>order_item_date_left_outer</title>
<g id="a_node8"><a xlink:title="For each order, look up order items and perform left outer join without grouping or aggregation">
<polygon fill="#ffffff" stroke="#000000" stroke-width="6" points="746.628,-220.1 746.628,-340.1 1002.696,-340.1 1002.696,-220.1 746.628,-220.1"/>
<text text-anchor="middle" x="874.662" y="-318.1" font-family="Helvetica,sans-Serif" font-size="20.00" fill="#000000">order_item_date_left_outer</text>
<polyline fill="none" stroke="#000000" stroke-width="6" points="746.628,-308.1 1002.696,-308.1 "/>
<text text-anchor="middle" x="874.662" y="-286.1" font-family="Helvetica,sans-Serif" font-size="20.00" fill="#000000">creates table:</text>
<text text-anchor="middle" x="874.662" y="-262.1" font-family="Helvetica,sans-Serif" font-size="20.00" fill="#000000">order_item_date_left_outer</text>
<polyline fill="none" stroke="#000000" stroke-width="6" points="746.628,-252.1 1002.696,-252.1 "/>
<text text-anchor="middle" x="874.662" y="-230.1" font-family="Helvetica,sans-Serif" font-size="20.00" fill="#000000">group:false, join:left</text>
</a>
</g>
</g>
<!-- orders&#45;&gt;order_item_date_left_outer -->
<g id="edge5" class="edge">
<title>orders-&gt;order_item_date_left_outer</title>
<path fill="none" stroke="#000000" d="M549.4074,-416.4645C520.2827,-401.3261 496.6709,-380.8978 514.6308,-358.6 542.6253,-323.844 647.0437,-303.6556 736.2692,-292.4795"/>
<polygon fill="#000000" stroke="#000000" points="736.7338,-295.9488 746.2347,-291.2603 735.8837,-289.0006 736.7338,-295.9488"/>
<text text-anchor="middle" x="592.6776" y="-364" font-family="Helvetica,sans-Serif" font-size="18.00" fill="#000000">orders (10 batches)</text>
</g>
<!-- order_date_value_grouped_inner -->
<g id="node9" class="node">
<title>order_date_value_grouped_inner</title>
<g id="a_node9"><a xlink:title="For each order, look up order items and perform inner join with grouping and aggregation">
<polygon fill="#ffffff" stroke="#000000" stroke-width="6" points="165.831,-220.1 165.831,-340.1 477.493,-340.1 477.493,-220.1 165.831,-220.1"/>
<text text-anchor="middle" x="321.662" y="-318.1" font-family="Helvetica,sans-Serif" font-size="20.00" fill="#000000">order_date_value_grouped_inner</text>
<polyline fill="none" stroke="#000000" stroke-width="6" points="165.831,-308.1 477.493,-308.1 "/>
<text text-anchor="middle" x="321.662" y="-286.1" font-family="Helvetica,sans-Serif" font-size="20.00" fill="#000000">creates table:</text>
<text text-anchor="middle" x="321.662" y="-262.1" font-family="Helvetica,sans-Serif" font-size="20.00" fill="#000000">order_date_value_grouped_inner</text>
<polyline fill="none" stroke="#000000" stroke-width="6" points="165.831,-252.1 477.493,-252.1 "/>
<text text-anchor="middle" x="321.662" y="-230.1" font-family="Helvetica,sans-Serif" font-size="20.00" fill="#000000">group:true, join:inner</text>
</a>
</g>
</g>
<!-- orders&#45;&gt;order_date_value_grouped_inner -->
<g id="edge13" class="edge">
<title>orders-&gt;order_date_value_grouped_inner</title>
<path fill="none" stroke="#000000" d="M549.4721,-435.498C477.9438,-426.5378 372.023,-408.8259 343.6308,-380.2 335.4423,-371.9441 330.0029,-361.3795 326.4427,-350.2231"/>
<polygon fill="#000000" stroke="#000000" points="329.7535,-349.0572 323.7758,-340.3098 322.9939,-350.8757 329.7535,-349.0572"/>
<text text-anchor="middle" x="421.6776" y="-364" font-family="Helvetica,sans-Serif" font-size="18.00" fill="#000000">orders (10 batches)</text>
</g>
<!-- order_item_date_inner -->
<g id="node14" class="node">
<title>order_item_date_inner</title>
<g id="a_node14"><a xlink:title="For each order, look up order items and perform inner join without grouping or aggregation">
<polygon fill="#ffffff" stroke="#000000" stroke-width="6" points="1946.083,-220.1 1946.083,-340.1 2163.241,-340.1 2163.241,-220.1 1946.083,-220.1"/>
<text text-anchor="middle" x="2054.662" y="-318.1" font-family="Helvetica,sans-Serif" font-size="20.00" fill="#000000">order_item_date_inner</text>
<polyline fill="none" stroke="#000000" stroke-width="6" points="1946.083,-308.1 2163.241,-308.1 "/>
<text text-anchor="middle" x="2054.662" y="-286.1" font-family="Helvetica,sans-Serif" font-size="20.00" fill="#000000">creates table:</text>
<text text-anchor="middle" x="2054.662" y="-262.1" font-family="Helvetica,sans-Serif" font-size="20.00" fill="#000000">order_item_date_inner</text>
<polyline fill="none" stroke="#000000" stroke-width="6" points="1946.083,-252.1 2163.241,-252.1 "/>
<text text-anchor="middle" x="2054.662" y="-230.1" font-family="Helvetica,sans-Serif" font-size="20.00" fill="#000000">group:false, join:inner</text>
</a>
</g>
</g>
<!-- orders&#45;&gt;order_item_date_inner -->
<g id="edge11" class="edge">
<title>orders-&gt;order_item_date_inner</title>
<path fill="none" stroke="#000000" d="M685.8111,-438.8548C886.5821,-427.3987 1464.2146,-393.4704 1502.662,-380.2 1518.8712,-374.6053 1518.5942,-364.6717 1534.6308,-358.6 1592.4892,-336.6938 1611.4301,-349.4396 1672.662,-340.6 1760.9091,-327.8603 1860.3864,-312.0592 1935.7005,-299.8002"/>
<polygon fill="#000000" stroke="#000000" points="1936.3888,-303.2342 1945.6955,-298.171 1935.2626,-296.3254 1936.3888,-303.2342"/>
<text text-anchor="middle" x="1611.6776" y="-364" font-family="Helvetica,sans-Serif" font-size="18.00" fill="#000000">orders (10 batches)</text>
</g>
<!-- ../../../test/lookup/data/in/olist_order_items_dataset.csv -->
<g id="node6" class="node">
<title>../../../test/lookup/data/in/olist_order_items_dataset.csv</title>
<g id="a_node6"><a xlink:title="Source data file(s)">
<polygon fill="none" stroke="#000000" points="1733.0221,-560.2 1730.0221,-564.2 1709.0221,-564.2 1706.0221,-560.2 1234.3019,-560.2 1234.3019,-524.2 1733.0221,-524.2 1733.0221,-560.2"/>
<text text-anchor="middle" x="1483.662" y="-536.2" font-family="Helvetica,sans-Serif" font-size="20.00" fill="#000000">../../../test/lookup/data/in/olist_order_items_dataset.csv</text>
</a>
</g>
</g>
<!-- order_items -->
<g id="node7" class="node">
<title>order_items</title>
<g id="a_node7"><a xlink:title="Load order item data from CSV file">
<polygon fill="#ffffff" stroke="#000000" stroke-width="6" points="1397.317,-398.7 1397.317,-486.7 1570.007,-486.7 1570.007,-398.7 1397.317,-398.7"/>
<text text-anchor="middle" x="1483.662" y="-464.7" font-family="Helvetica,sans-Serif" font-size="20.00" fill="#000000">read_order_items</text>
<polyline fill="none" stroke="#000000" stroke-width="6" points="1397.317,-454.7 1570.007,-454.7 "/>
<text text-anchor="middle" x="1483.662" y="-432.7" font-family="Helvetica,sans-Serif" font-size="20.00" fill="#000000">creates table:</text>
<text text-anchor="middle" x="1483.662" y="-408.7" font-family="Helvetica,sans-Serif" font-size="20.00" fill="#000000">order_items</text>
</a>
</g>
</g>
<!-- ../../../test/lookup/data/in/olist_order_items_dataset.csv&#45;&gt;order_items -->
<g id="edge4" class="edge">
<title>../../../test/lookup/data/in/olist_order_items_dataset.csv-&gt;order_items</title>
<path fill="none" stroke="#000000" stroke-dasharray="1,5" d="M1483.662,-523.9502C1483.662,-516.2053 1483.662,-506.7302 1483.662,-497.021"/>
<polygon fill="#000000" stroke="#000000" points="1487.1621,-496.8808 1483.662,-486.8808 1480.1621,-496.8809 1487.1621,-496.8808"/>
</g>
<!-- order_items&#45;&gt;order_date_value_grouped_left_outer -->
<g id="edge16" class="edge">
<title>order_items-&gt;order_date_value_grouped_left_outer</title>
<path fill="none" stroke="#000000" stroke-dasharray="5,2" d="M1570.1647,-428.5389C1623.085,-417.9125 1683.6238,-401.5368 1699.662,-380.2 1722.5567,-349.7415 1701.5301,-328.2964 1664.8599,-313.3027"/>
<polygon fill="#000000" stroke="#000000" points="1665.808,-309.9185 1655.2171,-309.6282 1663.3153,-316.4597 1665.808,-309.9185"/>
<text text-anchor="middle" x="1845.678" y="-364" font-family="Helvetica,sans-Serif" font-size="18.00" fill="#000000">idx_order_items_order_id (lookup)</text>
</g>
<!-- order_items&#45;&gt;order_item_date_left_outer -->
<g id="edge6" class="edge">
<title>order_items-&gt;order_item_date_left_outer</title>
<path fill="none" stroke="#000000" stroke-dasharray="5,2" d="M1397.2924,-428.7925C1345.6771,-418.8155 1279.4946,-403.0555 1223.63,-380.2 1206.3717,-373.1392 1204.8854,-365.7457 1187.662,-358.6 1132.2564,-335.6131 1068.444,-318.1226 1012.9491,-305.5518"/>
<polygon fill="#000000" stroke="#000000" points="1013.5692,-302.1041 1003.0467,-303.3406 1012.0436,-308.9359 1013.5692,-302.1041"/>
<text text-anchor="middle" x="1359.678" y="-364" font-family="Helvetica,sans-Serif" font-size="18.00" fill="#000000">idx_order_items_order_id (lookup)</text>
</g>
<!-- order_items&#45;&gt;order_date_value_grouped_inner -->
<g id="edge14" class="edge">
<title>order_items-&gt;order_date_value_grouped_inner</title>
<path fill="none" stroke="#000000" stroke-dasharray="5,2" d="M1397.0265,-441.2482C1222.1097,-437.4181 832.7867,-424.0912 707.63,-380.2 691.4489,-374.5255 691.4138,-365.3755 675.662,-358.6 616.6378,-333.2113 548.4066,-315.589 487.6928,-303.576"/>
<polygon fill="#000000" stroke="#000000" points="488.1096,-300.0917 477.6258,-301.6215 486.7754,-306.9633 488.1096,-300.0917"/>
<text text-anchor="middle" x="843.678" y="-364" font-family="Helvetica,sans-Serif" font-size="18.00" fill="#000000">idx_order_items_order_id (lookup)</text>
</g>
<!-- order_items&#45;&gt;order_item_date_inner -->
<g id="edge12" class="edge">
<title>order_items-&gt;order_item_date_inner</title>
<path fill="none" stroke="#000000" stroke-dasharray="5,2" d="M1570.1324,-440.8923C1696.3765,-436.7935 1923.5394,-423.4559 1991.662,-380.2 2004.0562,-372.33 2014.4415,-361.0477 2022.9732,-348.873"/>
<polygon fill="#000000" stroke="#000000" points="2026.0186,-350.612 2028.5856,-340.3328 2020.1687,-346.7676 2026.0186,-350.612"/>
<text text-anchor="middle" x="2151.678" y="-364" font-family="Helvetica,sans-Serif" font-size="18.00" fill="#000000">idx_order_items_order_id (lookup)</text>
</g>
<!-- file_order_item_date_left_outer -->
<g id="node12" class="node">
<title>file_order_item_date_left_outer</title>
<g id="a_node12"><a xlink:title="Write the results of left oter join without grouping to CSV file">
<polygon fill="#ffffff" stroke="#000000" points="613.797,-73.5 613.797,-161.5 1135.527,-161.5 1135.527,-73.5 613.797,-73.5"/>
<text text-anchor="middle" x="874.662" y="-139.5" font-family="Helvetica,sans-Serif" font-size="20.00" fill="#000000">file_order_item_date_left_outer</text>
<polyline fill="none" stroke="#000000" points="613.797,-129.5 1135.527,-129.5 "/>
<text text-anchor="middle" x="874.662" y="-107.5" font-family="Helvetica,sans-Serif" font-size="20.00" fill="#000000">creates file:</text>
<text text-anchor="middle" x="874.662" y="-83.5" font-family="Helvetica,sans-Serif" font-size="20.00" fill="#000000">../../../test/lookup/data/out/order_item_date_left_outer.csv</text>
</a>
</g>
</g>
<!-- order_item_date_left_outer&#45;&gt;file_order_item_date_left_outer -->
<g id="edge9" class="edge">
<title>order_item_date_left_outer-&gt;file_order_item_date_left_outer</title>
<path fill="none" stroke="#000000" d="M874.662,-220.0157C874.662,-204.2859 874.662,-187.4169 874.662,-171.9964"/>
<polygon fill="#000000" stroke="#000000" points="878.1621,-171.5839 874.662,-161.584 871.1621,-171.584 878.1621,-171.5839"/>
<text text-anchor="middle" x="1046.6862" y="-185.4" font-family="Helvetica,sans-Serif" font-size="18.00" fill="#000000">order_item_date_left_outer (no parallelism)</text>
</g>
<!-- file_order_date_value_grouped_inner -->
<g id="node10" class="node">
<title>file_order_date_value_grouped_inner</title>
<g id="a_node10"><a xlink:title="Write the results of inner join with grouping to CSV file">
<polygon fill="#ffffff" stroke="#000000" points="0,-73.5 0,-161.5 577.324,-161.5 577.324,-73.5 0,-73.5"/>
<text text-anchor="middle" x="288.662" y="-139.5" font-family="Helvetica,sans-Serif" font-size="20.00" fill="#000000">file_order_date_value_grouped_inner</text>
<polyline fill="none" stroke="#000000" points="0,-129.5 577.324,-129.5 "/>
<text text-anchor="middle" x="288.662" y="-107.5" font-family="Helvetica,sans-Serif" font-size="20.00" fill="#000000">creates file:</text>
<text text-anchor="middle" x="288.662" y="-83.5" font-family="Helvetica,sans-Serif" font-size="20.00" fill="#000000">../../../test/lookup/data/out/order_date_value_grouped_inner.csv</text>
</a>
</g>
</g>
<!-- order_date_value_grouped_inner&#45;&gt;file_order_date_value_grouped_inner -->
<g id="edge7" class="edge">
<title>order_date_value_grouped_inner-&gt;file_order_date_value_grouped_inner</title>
<path fill="none" stroke="#000000" d="M309.4678,-220.0157C306.2447,-204.1347 302.7859,-187.0924 299.632,-171.552"/>
<polygon fill="#000000" stroke="#000000" points="303.0281,-170.688 297.6089,-161.584 296.1679,-172.0803 303.0281,-170.688"/>
<text text-anchor="middle" x="502.7035" y="-185.4" font-family="Helvetica,sans-Serif" font-size="18.00" fill="#000000">order_date_value_grouped_inner (no parallelism)</text>
</g>
<!-- ../../../test/lookup/data/out/order_date_value_grouped_inner.csv -->
<g id="node11" class="node">
<title>../../../test/lookup/data/out/order_date_value_grouped_inner.csv</title>
<g id="a_node11"><a xlink:title="Target data file(s)">
<polygon fill="none" stroke="#000000" points="571.4861,-36 -.1621,-36 -.1621,0 577.4861,0 577.4861,-30 571.4861,-36"/>
<polyline fill="none" stroke="#000000" points="571.4861,-36 571.4861,-30 "/>
<polyline fill="none" stroke="#000000" points="577.4861,-30 571.4861,-30 "/>
<text text-anchor="middle" x="288.662" y="-12" font-family="Helvetica,sans-Serif" font-size="20.00" fill="#000000">../../../test/lookup/data/out/order_date_value_grouped_inner.csv</text>
</a>
</g>
</g>
<!-- file_order_date_value_grouped_inner&#45;&gt;../../../test/lookup/data/out/order_date_value_grouped_inner.csv -->
<g id="edge8" class="edge">
<title>file_order_date_value_grouped_inner-&gt;../../../test/lookup/data/out/order_date_value_grouped_inner.csv</title>
<path fill="none" stroke="#000000" stroke-dasharray="1,5" d="M288.662,-73.2784C288.662,-64.082 288.662,-54.6304 288.662,-46.2016"/>
<polygon fill="#000000" stroke="#000000" points="292.1621,-46.1684 288.662,-36.1685 285.1621,-46.1685 292.1621,-46.1684"/>
</g>
<!-- ../../../test/lookup/data/out/order_item_date_left_outer.csv -->
<g id="node13" class="node">
<title>../../../test/lookup/data/out/order_item_date_left_outer.csv</title>
<g id="a_node13"><a xlink:title="Target data file(s)">
<polygon fill="none" stroke="#000000" points="1129.3921,-36 613.9319,-36 613.9319,0 1135.3921,0 1135.3921,-30 1129.3921,-36"/>
<polyline fill="none" stroke="#000000" points="1129.3921,-36 1129.3921,-30 "/>
<polyline fill="none" stroke="#000000" points="1135.3921,-30 1129.3921,-30 "/>
<text text-anchor="middle" x="874.662" y="-12" font-family="Helvetica,sans-Serif" font-size="20.00" fill="#000000">../../../test/lookup/data/out/order_item_date_left_outer.csv</text>
</a>
</g>
</g>
<!-- file_order_item_date_left_outer&#45;&gt;../../../test/lookup/data/out/order_item_date_left_outer.csv -->
<g id="edge10" class="edge">
<title>file_order_item_date_left_outer-&gt;../../../test/lookup/data/out/order_item_date_left_outer.csv</title>
<path fill="none" stroke="#000000" stroke-dasharray="1,5" d="M874.662,-73.2784C874.662,-64.082 874.662,-54.6304 874.662,-46.2016"/>
<polygon fill="#000000" stroke="#000000" points="878.1621,-46.1684 874.662,-36.1685 871.1621,-46.1685 878.1621,-46.1684"/>
</g>
<!-- file_order_item_date_inner -->
<g id="node15" class="node">
<title>file_order_item_date_inner</title>
<g id="a_node15"><a xlink:title="Write the results of inner join without grouping to CSV file">
<polygon fill="#ffffff" stroke="#000000" points="1824.252,-73.5 1824.252,-161.5 2307.072,-161.5 2307.072,-73.5 1824.252,-73.5"/>
<text text-anchor="middle" x="2065.662" y="-139.5" font-family="Helvetica,sans-Serif" font-size="20.00" fill="#000000">file_order_item_date_inner</text>
<polyline fill="none" stroke="#000000" points="1824.252,-129.5 2307.072,-129.5 "/>
<text text-anchor="middle" x="2065.662" y="-107.5" font-family="Helvetica,sans-Serif" font-size="20.00" fill="#000000">creates file:</text>
<text text-anchor="middle" x="2065.662" y="-83.5" font-family="Helvetica,sans-Serif" font-size="20.00" fill="#000000">../../../test/lookup/data/out/order_item_date_inner.csv</text>
</a>
</g>
</g>
<!-- order_item_date_inner&#45;&gt;file_order_item_date_inner -->
<g id="edge17" class="edge">
<title>order_item_date_inner-&gt;file_order_item_date_inner</title>
<path fill="none" stroke="#000000" d="M2058.7267,-220.0157C2059.7909,-204.2859 2060.9321,-187.4169 2061.9753,-171.9964"/>
<polygon fill="#000000" stroke="#000000" points="2065.4967,-171.7974 2062.6797,-161.584 2058.5126,-171.3249 2065.4967,-171.7974"/>
<text text-anchor="middle" x="2215.1767" y="-185.4" font-family="Helvetica,sans-Serif" font-size="18.00" fill="#000000">order_item_date_inner (no parallelism)</text>
</g>
<!-- ../../../test/lookup/data/out/order_item_date_inner.csv -->
<g id="node16" class="node">
<title>../../../test/lookup/data/out/order_item_date_inner.csv</title>
<g id="a_node16"><a xlink:title="Target data file(s)">
<polygon fill="none" stroke="#000000" points="2300.982,-36 1824.342,-36 1824.342,0 2306.982,0 2306.982,-30 2300.982,-36"/>
<polyline fill="none" stroke="#000000" points="2300.982,-36 2300.982,-30 "/>
<polyline fill="none" stroke="#000000" points="2306.982,-30 2300.982,-30 "/>
<text text-anchor="middle" x="2065.662" y="-12" font-family="Helvetica,sans-Serif" font-size="20.00" fill="#000000">../../../test/lookup/data/out/order_item_date_inner.csv</text>
</a>
</g>
</g>
<!-- file_order_item_date_inner&#45;&gt;../../../test/lookup/data/out/order_item_date_inner.csv -->
<g id="edge18" class="edge">
<title>file_order_item_date_inner-&gt;../../../test/lookup/data/out/order_item_date_inner.csv</title>
<path fill="none" stroke="#000000" stroke-dasharray="1,5" d="M2065.662,-73.2784C2065.662,-64.082 2065.662,-54.6304 2065.662,-46.2016"/>
<polygon fill="#000000" stroke="#000000" points="2069.1621,-46.1684 2065.662,-36.1685 2062.1621,-46.1685 2069.1621,-46.1684"/>
</g>
</g>
</svg>