<?xml version="1.0" encoding="UTF-8" standalone="no"?><!DOCTYPE svg PUBLIC "-//W3C//DTD SVG 1.1//EN" "http://www.w3.org/Graphics/SVG/1.1/DTD/svg11.dtd"><!-- Generated by graphviz version 2.40.1 (20161225.0304)
 --><!-- Title: indexes Pages: 1 --><svg xmlns="http://www.w3.org/2000/svg" xmlns:xlink="http://www.w3.org/1999/xlink" width="1362pt" height="779pt" viewBox="0.00 0.00 1362.33 778.80">
<g id="graph0" class="graph" transform="scale(1 1) rotate(0) translate(36 742.8)">
<title>indexes</title>
<polygon fill="#ffffff" stroke="transparent" points="-36,36 -36,-742.8 1326.325,-742.8 1326.325,36 -36,36"/>
<!-- ../../../test/tag_and_denormalize/data/in/tags.csv -->
<g id="node1" class="node">
<title>../../../test/tag_and_denormalize/data/in/tags.csv</title>
<g id="a_node1"><a xlink:title="Source data file(s)">
<polygon fill="none" stroke="#000000" points="570.9612,-607.3 567.9612,-611.3 546.9612,-611.3 543.9612,-607.3 130.7768,-607.3 130.7768,-571.3 570.9612,-571.3 570.9612,-607.3"/>
<text text-anchor="middle" x="350.869" y="-583.3" font-family="Helvetica,sans-Serif" font-size="20.00" fill="#000000">../../../test/tag_and_denormalize/data/in/tags.csv</text>
</a>
</g>
</g>
<!-- tags -->
<g id="node2" class="node">
<title>tags</title>
<g id="a_node2"><a xlink:title="Load tags from file">
<polygon fill="#ffffff" stroke="#000000" points="282.851,-398.7 282.851,-486.7 418.887,-486.7 418.887,-398.7 282.851,-398.7"/>
<text text-anchor="middle" x="350.869" y="-464.7" font-family="Helvetica,sans-Serif" font-size="20.00" fill="#000000">read_tags</text>
<polyline fill="none" stroke="#000000" points="282.851,-454.7 418.887,-454.7 "/>
<text text-anchor="middle" x="350.869" y="-432.7" font-family="Helvetica,sans-Serif" font-size="20.00" fill="#000000">creates table:</text>
<text text-anchor="middle" x="350.869" y="-408.7" font-family="Helvetica,sans-Serif" font-size="20.00" fill="#000000">tags</text>
</a>
</g>
</g>
<!-- ../../../test/tag_and_denormalize/data/in/tags.csv&#45;&gt;tags -->
<g id="edge1" class="edge">
<title>../../../test/tag_and_denormalize/data/in/tags.csv-&gt;tags</title>
<path fill="none" stroke="#000000" stroke-dasharray="1,5" d="M350.869,-571.0294C350.869,-552.5308 350.869,-523.0128 350.869,-496.9482"/>
<polygon fill="#000000" stroke="#000000" points="354.3691,-496.7849 350.869,-486.785 347.3691,-496.785 354.3691,-496.7849"/>
</g>
<!-- tag_totals -->
<g id="node8" class="node">
<title>tag_totals</title>
<g id="a_node8"><a xlink:title="For each tag, look up produts and perform left outer join with grouping and aggregation">
<polygon fill="#ffffff" stroke="#000000" stroke-width="6" points="260.07,-220.1 260.07,-340.1 441.668,-340.1 441.668,-220.1 260.07,-220.1"/>
<text text-anchor="middle" x="350.869" y="-318.1" font-family="Helvetica,sans-Serif" font-size="20.00" fill="#000000">tag_totals</text>
<polyline fill="none" stroke="#000000" stroke-width="6" points="260.07,-308.1 441.668,-308.1 "/>
<text text-anchor="middle" x="350.869" y="-286.1" font-family="Helvetica,sans-Serif" font-size="20.00" fill="#000000">creates table:</text>
<text text-anchor="middle" x="350.869" y="-262.1" font-family="Helvetica,sans-Serif" font-size="20.00" fill="#000000">tag_totals</text>
<polyline fill="none" stroke="#000000" stroke-width="6" points="260.07,-252.1 441.668,-252.1 "/>
<text text-anchor="middle" x="350.869" y="-230.1" font-family="Helvetica,sans-Serif" font-size="20.00" fill="#000000">group:true, join:left</text>
</a>
</g>
</g>
<!-- tags&#45;&gt;tag_totals -->
<g id="edge6" class="edge">
<title>tags-&gt;tag_totals</title>
<path fill="none" stroke="#000000" d="M350.869,-398.6981C350.869,-383.8217 350.869,-366.8181 350.869,-350.4214"/>
<polygon fill="#000000" stroke="#000000" points="354.3691,-350.315 350.869,-340.315 347.3691,-350.3151 354.3691,-350.315"/>
<text text-anchor="middle" x="420.3904" y="-364" font-family="Helvetica,sans-Serif" font-size="18.00" fill="#000000">tags (10 batches)</text>
</g>
<!-- ../../../test/tag_and_denormalize/data/in/flipcart_products.tsv -->
<g id="node3" class="node">
<title>../../../test/tag_and_denormalize/data/in/flipcart_products.tsv</title>
<g id="a_node3"><a xlink:title="Source data file(s)">
<polygon fill="none" stroke="#000000" points="1033.417,-706.8 1030.417,-710.8 1009.417,-710.8 1006.417,-706.8 488.321,-706.8 488.321,-670.8 1033.417,-670.8 1033.417,-706.8"/>
<text text-anchor="middle" x="760.869" y="-682.8" font-family="Helvetica,sans-Serif" font-size="20.00" fill="#000000">../../../test/tag_and_denormalize/data/in/flipcart_products.tsv</text>
</a>
</g>
</g>
<!-- products -->
<g id="node4" class="node">
<title>products</title>
<g id="a_node4"><a xlink:title="Load product data from CSV files to a table, one input file - one batch">
<polygon fill="#ffffff" stroke="#000000" points="688.96,-545.3 688.96,-633.3 832.778,-633.3 832.778,-545.3 688.96,-545.3"/>
<text text-anchor="middle" x="760.869" y="-611.3" font-family="Helvetica,sans-Serif" font-size="20.00" fill="#000000">read_products</text>
<polyline fill="none" stroke="#000000" points="688.96,-601.3 832.778,-601.3 "/>
<text text-anchor="middle" x="760.869" y="-579.3" font-family="Helvetica,sans-Serif" font-size="20.00" fill="#000000">creates table:</text>
<text text-anchor="middle" x="760.869" y="-555.3" font-family="Helvetica,sans-Serif" font-size="20.00" fill="#000000">products</text>
</a>
</g>
</g>
<!-- ../../../test/tag_and_denormalize/data/in/flipcart_products.tsv&#45;&gt;products -->
<g id="edge2" class="edge">
<title>../../../test/tag_and_denormalize/data/in/flipcart_products.tsv-&gt;products</title>
<path fill="none" stroke="#000000" stroke-dasharray="1,5" d="M760.869,-670.5502C760.869,-662.8053 760.869,-653.3302 760.869,-643.621"/>
<polygon fill="#000000" stroke="#000000" points="764.3691,-643.4808 760.869,-633.4808 757.3691,-643.4809 764.3691,-643.4808"/>
</g>
<!-- tagged_products -->
<g id="node5" class="node">
<title>tagged_products</title>
<g id="a_node5"><a xlink:title="Tag products according to criteria and write product tag, id, price to a new table">
<polygon fill="#ffffff" stroke="#000000" points="678.392,-398.7 678.392,-486.7 843.346,-486.7 843.346,-398.7 678.392,-398.7"/>
<text text-anchor="middle" x="760.869" y="-464.7" font-family="Helvetica,sans-Serif" font-size="20.00" fill="#000000">tag_products</text>
<polyline fill="none" stroke="#000000" points="678.392,-454.7 843.346,-454.7 "/>
<text text-anchor="middle" x="760.869" y="-432.7" font-family="Helvetica,sans-Serif" font-size="20.00" fill="#000000">creates table:</text>
<text text-anchor="middle" x="760.869" y="-408.7" font-family="Helvetica,sans-Serif" font-size="20.00" fill="#000000">tagged_products</text>
</a>
</g>
</g>
<!-- products&#45;&gt;tagged_products -->
<g id="edge3" class="edge">
<title>products-&gt;tagged_products</title>
<path fill="none" stroke="#000000" d="M760.869,-544.9173C760.869,-529.8468 760.869,-512.8341 760.869,-497.0743"/>
<polygon fill="#000000" stroke="#000000" points="764.3691,-496.9318 760.869,-486.9318 757.3691,-496.9319 764.3691,-496.9318"/>
<text text-anchor="middle" x="847.8927" y="-510.6" font-family="Helvetica,sans-Serif" font-size="18.00" fill="#000000">products (10 batches)</text>
</g>
<!-- file_tagged_products -->
<g id="node6" class="node">
<title>file_tagged_products</title>
<g id="a_node6"><a xlink:title="All tagged products to file that can be inspected by the operator">
<polygon fill="#ffffff" stroke="#000000" points="497.413,-236.1 497.413,-324.1 1250.325,-324.1 1250.325,-236.1 497.413,-236.1"/>
<text text-anchor="middle" x="873.869" y="-302.1" font-family="Helvetica,sans-Serif" font-size="20.00" fill="#000000">file_tagged_products</text>
<polyline fill="none" stroke="#000000" points="497.413,-292.1 1250.325,-292.1 "/>
<text text-anchor="middle" x="873.869" y="-270.1" font-family="Helvetica,sans-Serif" font-size="20.00" fill="#000000">creates file:</text>
<text text-anchor="middle" x="873.869" y="-246.1" font-family="Helvetica,sans-Serif" font-size="20.00" fill="#000000">../../../test/tag_and_denormalize/data/out/tagged_products_for_operator_review.csv</text>
</a>
</g>
</g>
<!-- tagged_products&#45;&gt;file_tagged_products -->
<g id="edge4" class="edge">
<title>tagged_products-&gt;file_tagged_products</title>
<path fill="none" stroke="#000000" d="M810.8199,-398.3855C816.2185,-392.5424 821.3741,-386.4161 825.869,-380.2 836.1592,-365.9695 845.2051,-349.188 852.5889,-333.4742"/>
<polygon fill="#000000" stroke="#000000" points="855.7746,-334.9235 856.7411,-324.3729 849.4061,-332.018 855.7746,-334.9235"/>
<text text-anchor="middle" x="969.8919" y="-364" font-family="Helvetica,sans-Serif" font-size="18.00" fill="#000000">tagged_products (no parallelism)</text>
</g>
<!-- tagged_products&#45;&gt;tag_totals -->
<g id="edge7" class="edge">
<title>tagged_products-&gt;tag_totals</title>
<path fill="none" stroke="#000000" stroke-dasharray="5,2" d="M678.2838,-422.8663C637.4722,-412.0491 587.8617,-397.3607 544.7774,-380.2 534.4473,-376.0855 492.8117,-354.6931 450.7559,-332.7351"/>
<polygon fill="#000000" stroke="#000000" points="452.2701,-329.5773 441.7864,-328.0469 449.0275,-335.781 452.2701,-329.5773"/>
<text text-anchor="middle" x="679.9148" y="-364" font-family="Helvetica,sans-Serif" font-size="18.00" fill="#000000">idx_tagged_products_tag (lookup)</text>
</g>
<!-- ../../../test/tag_and_denormalize/data/out/tagged_products_for_operator_review.csv -->
<g id="node7" class="node">
<title>../../../test/tag_and_denormalize/data/out/tagged_products_for_operator_review.csv</title>
<g id="a_node7"><a xlink:title="Target data file(s)">
<polygon fill="none" stroke="#000000" points="1284.281,-135.5 537.457,-135.5 537.457,-99.5 1290.281,-99.5 1290.281,-129.5 1284.281,-135.5"/>
<polyline fill="none" stroke="#000000" points="1284.281,-135.5 1284.281,-129.5 "/>
<polyline fill="none" stroke="#000000" points="1290.281,-129.5 1284.281,-129.5 "/>
<text text-anchor="middle" x="913.869" y="-111.5" font-family="Helvetica,sans-Serif" font-size="20.00" fill="#000000">../../../test/tag_and_denormalize/data/out/tagged_products_for_operator_review.csv</text>
</a>
</g>
</g>
<!-- file_tagged_products&#45;&gt;../../../test/tag_and_denormalize/data/out/tagged_products_for_operator_review.csv -->
<g id="edge5" class="edge">
<title>file_tagged_products-&gt;../../../test/tag_and_denormalize/data/out/tagged_products_for_operator_review.csv</title>
<path fill="none" stroke="#000000" stroke-dasharray="1,5" d="M884.6936,-236.0981C891.7793,-207.2946 900.8267,-170.5168 906.954,-145.6094"/>
<polygon fill="#000000" stroke="#000000" points="910.3968,-146.2661 909.387,-135.7195 903.5994,-144.5939 910.3968,-146.2661"/>
</g>
<!-- file_tag_totals -->
<g id="node9" class="node">
<title>file_tag_totals</title>
<g id="a_node9"><a xlink:title="Statistics for each tag">
<polygon fill="#ffffff" stroke="#000000" points="0,-73.5 0,-161.5 501.738,-161.5 501.738,-73.5 0,-73.5"/>
<text text-anchor="middle" x="250.869" y="-139.5" font-family="Helvetica,sans-Serif" font-size="20.00" fill="#000000">file_tag_totals</text>
<polyline fill="none" stroke="#000000" points="0,-129.5 501.738,-129.5 "/>
<text text-anchor="middle" x="250.869" y="-107.5" font-family="Helvetica,sans-Serif" font-size="20.00" fill="#000000">creates file:</text>
<text text-anchor="middle" x="250.869" y="-83.5" font-family="Helvetica,sans-Serif" font-size="20.00" fill="#000000">../../../test/tag_and_denormalize/data/out/tag_totals.csv</text>
</a>
</g>
</g>
<!-- tag_totals&#45;&gt;file_tag_totals -->
<g id="edge8" class="edge">
<title>tag_totals-&gt;file_tag_totals</title>
<path fill="none" stroke="#000000" d="M313.9168,-220.0157C303.8708,-203.6809 293.0692,-186.1176 283.2944,-170.2237"/>
<polygon fill="#000000" stroke="#000000" points="286.2009,-168.2685 277.9809,-161.584 280.2383,-171.9355 286.2009,-168.2685"/>
<text text-anchor="middle" x="403.8785" y="-185.4" font-family="Helvetica,sans-Serif" font-size="18.00" fill="#000000">tag_totals (no parallelism)</text>
</g>
<!-- ../../../test/tag_and_denormalize/data/out/tag_totals.csv -->
<g id="node10" class="node">
<title>../../../test/tag_and_denormalize/data/out/tag_totals.csv</title>
<g id="a_node10"><a xlink:title="Target data file(s)">
<polygon fill="none" stroke="#000000" points="495.6071,-36 .1309,-36 .1309,0 501.6071,0 501.6071,-30 495.6071,-36"/>
<polyline fill="none" stroke="#000000" points="495.6071,-36 495.6071,-30 "/>
<polyline fill="none" stroke="#000000" points="501.6071,-30 495.6071,-30 "/>
<text text-anchor="middle" x="250.869" y="-12" font-family="Helvetica,sans-Serif" font-size="20.00" fill="#000000">../../../test/tag_and_denormalize/data/out/tag_totals.csv</text>
</a>
</g>
</g>
<!-- file_tag_totals&#45;&gt;../../../test/tag_and_denormalize/data/out/tag_totals.csv -->
<g id="edge9" class="edge">
<title>file_tag_totals-&gt;../../../test/tag_and_denormalize/data/out/tag_totals.csv</title>
<path fill="none" stroke="#000000" stroke-dasharray="1,5" d="M250.869,-73.2784C250.869,-64.082 250.869,-54.6304 250.869,-46.2016"/>
<polygon fill="#000000" stroke="#000000" points="254.3691,-46.1684 250.869,-36.1685 247.3691,-46.1685 254.3691,-46.1684"/>
</g>
</g>
</svg>