<?xml version="1.0" encoding="UTF-8" standalone="no"?><!DOCTYPE svg PUBLIC "-//W3C//DTD SVG 1.1//EN" "http://www.w3.org/Graphics/SVG/1.1/DTD/svg11.dtd"><!-- Generated by graphviz version 2.40.1 (20161225.0304)
 --><!-- Title: indexes Pages: 1 --><svg xmlns="http://www.w3.org/2000/svg" xmlns:xlink="http://www.w3.org/1999/xlink" width="1358pt" height="779pt" viewBox="0.00 0.00 1358.10 778.80">
<g id="graph0" class="graph" transform="scale(1 1) rotate(0) translate(36 742.8)">
<title>indexes</title>
<polygon fill="#ffffff" stroke="transparent" points="-36,36 -36,-742.8 1322.104,-742.8 1322.104,36 -36,36"/>
<!-- ../../../test/data/in/tag_and_denormalize/tags.csv -->
<g id="node1" class="node">
<title>../../../test/data/in/tag_and_denormalize/tags.csv</title>
<g id="a_node1"><a xlink:title="Source data file(s)">
<polygon fill="none" stroke="#000000" points="567.7402,-607.3 564.7402,-611.3 543.7402,-611.3 540.7402,-607.3 127.5558,-607.3 127.5558,-571.3 567.7402,-571.3 567.7402,-607.3"/>
<text text-anchor="middle" x="347.648" y="-583.3" font-family="Helvetica,sans-Serif" font-size="20.00" fill="#000000">../../../test/data/in/tag_and_denormalize/tags.csv</text>
</a>
</g>
</g>
<!-- tags -->
<g id="node2" class="node">
<title>tags</title>
<g id="a_node2"><a xlink:title="Load tags from file">
<polygon fill="#ffffff" stroke="#000000" points="279.63,-398.7 279.63,-486.7 415.666,-486.7 415.666,-398.7 279.63,-398.7"/>
<text text-anchor="middle" x="347.648" y="-464.7" font-family="Helvetica,sans-Serif" font-size="20.00" fill="#000000">read_tags</text>
<polyline fill="none" stroke="#000000" points="279.63,-454.7 415.666,-454.7 "/>
<text text-anchor="middle" x="347.648" y="-432.7" font-family="Helvetica,sans-Serif" font-size="20.00" fill="#000000">creates table:</text>
<text text-anchor="middle" x="347.648" y="-408.7" font-family="Helvetica,sans-Serif" font-size="20.00" fill="#000000">tags</text>
</a>
</g>
</g>
<!-- ../../../test/data/in/tag_and_denormalize/tags.csv&#45;&gt;tags -->
<g id="edge1" class="edge">
<title>../../../test/data/in/tag_and_denormalize/tags.csv-&gt;tags</title>
<path fill="none" stroke="#000000" stroke-dasharray="1,5" d="M347.648,-571.0294C347.648,-552.5308 347.648,-523.0128 347.648,-496.9482"/>
<polygon fill="#000000" stroke="#000000" points="351.1481,-496.7849 347.648,-486.785 344.1481,-496.785 351.1481,-496.7849"/>
</g>
<!-- tag_totals -->
<g id="node8" class="node">
<title>tag_totals</title>
<g id="a_node8"><a xlink:title="For each tag, look up produts and perform left outer join with grouping and aggregation">
<polygon fill="#ffffff" stroke="#000000" stroke-width="6" points="256.849,-220.1 256.849,-340.1 438.447,-340.1 438.447,-220.1 256.849,-220.1"/>
<text text-anchor="middle" x="347.648" y="-318.1" font-family="Helvetica,sans-Serif" font-size="20.00" fill="#000000">tag_totals</text>
<polyline fill="none" stroke="#000000" stroke-width="6" points="256.849,-308.1 438.447,-308.1 "/>
<text text-anchor="middle" x="347.648" y="-286.1" font-family="Helvetica,sans-Serif" font-size="20.00" fill="#000000">creates table:</text>
<text text-anchor="middle" x="347.648" y="-262.1" font-family="Helvetica,sans-Serif" font-size="20.00" fill="#000000">tag_totals</text>
<polyline fill="none" stroke="#000000" stroke-width="6" points="256.849,-252.1 438.447,-252.1 "/>
<text text-anchor="middle" x="347.648" y="-230.1" font-family="Helvetica,sans-Serif" font-size="20.00" fill="#000000">group:true, join:left</text>
</a>
</g>
</g>
<!-- tags&#45;&gt;tag_totals -->
<g id="edge6" class="edge">
<title>tags-&gt;tag_totals</title>
<path fill="none" stroke="#000000" d="M347.648,-398.6981C347.648,-383.8217 347.648,-366.8181 347.648,-350.4214"/>
<polygon fill="#000000" stroke="#000000" points="351.1481,-350.315 347.648,-340.315 344.1481,-350.3151 351.1481,-350.315"/>
<text text-anchor="middle" x="417.1694" y="-364" font-family="Helvetica,sans-Serif" font-size="18.00" fill="#000000">tags (10 batches)</text>
</g>
<!-- ../../../test/data/in/tag_and_denormalize/flipcart_products.tsv -->
<g id="node3" class="node">
<title>../../../test/data/in/tag_and_denormalize/flipcart_products.tsv</title>
<g id="a_node3"><a xlink:title="Source data file(s)">
<polygon fill="none" stroke="#000000" points="1030.196,-706.8 1027.196,-710.8 1006.196,-710.8 1003.196,-706.8 485.1,-706.8 485.1,-670.8 1030.196,-670.8 1030.196,-706.8"/>
<text text-anchor="middle" x="757.648" y="-682.8" font-family="Helvetica,sans-Serif" font-size="20.00" fill="#000000">../../../test/data/in/tag_and_denormalize/flipcart_products.tsv</text>
</a>
</g>
</g>
<!-- products -->
<g id="node4" class="node">
<title>products</title>
<g id="a_node4"><a xlink:title="Load product data from CSV files to a table, one input file - one batch">
<polygon fill="#ffffff" stroke="#000000" points="685.739,-545.3 685.739,-633.3 829.557,-633.3 829.557,-545.3 685.739,-545.3"/>
<text text-anchor="middle" x="757.648" y="-611.3" font-family="Helvetica,sans-Serif" font-size="20.00" fill="#000000">read_products</text>
<polyline fill="none" stroke="#000000" points="685.739,-601.3 829.557,-601.3 "/>
<text text-anchor="middle" x="757.648" y="-579.3" font-family="Helvetica,sans-Serif" font-size="20.00" fill="#000000">creates table:</text>
<text text-anchor="middle" x="757.648" y="-555.3" font-family="Helvetica,sans-Serif" font-size="20.00" fill="#000000">products</text>
</a>
</g>
</g>
<!-- ../../../test/data/in/tag_and_denormalize/flipcart_products.tsv&#45;&gt;products -->
<g id="edge2" class="edge">
<title>../../../test/data/in/tag_and_denormalize/flipcart_products.tsv-&gt;products</title>
<path fill="none" stroke="#000000" stroke-dasharray="1,5" d="M757.648,-670.5502C757.648,-662.8053 757.648,-653.3302 757.648,-643.621"/>
<polygon fill="#000000" stroke="#000000" points="761.1481,-643.4808 757.648,-633.4808 754.1481,-643.4809 761.1481,-643.4808"/>
</g>
<!-- tagged_products -->
<g id="node5" class="node">
<title>tagged_products</title>
<g id="a_node5"><a xlink:title="Tag products according to criteria and write product tag, id, price to a new table">
<polygon fill="#ffffff" stroke="#000000" points="675.171,-398.7 675.171,-486.7 840.125,-486.7 840.125,-398.7 675.171,-398.7"/>
<text text-anchor="middle" x="757.648" y="-464.7" font-family="Helvetica,sans-Serif" font-size="20.00" fill="#000000">tag_products</text>
<polyline fill="none" stroke="#000000" points="675.171,-454.7 840.125,-454.7 "/>
<text text-anchor="middle" x="757.648" y="-432.7" font-family="Helvetica,sans-Serif" font-size="20.00" fill="#000000">creates table:</text>
<text text-anchor="middle" x="757.648" y="-408.7" font-family="Helvetica,sans-Serif" font-size="20.00" fill="#000000">tagged_products</text>
</a>
</g>
</g>
<!-- products&#45;&gt;tagged_products -->
<g id="edge3" class="edge">
<title>products-&gt;tagged_products</title>
<path fill="none" stroke="#000000" d="M757.648,-544.9173C757.648,-529.8468 757.648,-512.8341 757.648,-497.0743"/>
<polygon fill="#000000" stroke="#000000" points="761.1481,-496.9318 757.648,-486.9318 754.1481,-496.9319 761.1481,-496.9318"/>
<text text-anchor="middle" x="844.6717" y="-510.6" font-family="Helvetica,sans-Serif" font-size="18.00" fill="#000000">products (10 batches)</text>
</g>
<!-- file_tagged_products -->
<g id="node6" class="node">
<title>file_tagged_products</title>
<g id="a_node6"><a xlink:title="All tagged products to file that can be inspected by the operator">
<polygon fill="#ffffff" stroke="#000000" points="494.192,-236.1 494.192,-324.1 1247.104,-324.1 1247.104,-236.1 494.192,-236.1"/>
<text text-anchor="middle" x="870.648" y="-302.1" font-family="Helvetica,sans-Serif" font-size="20.00" fill="#000000">file_tagged_products</text>
<polyline fill="none" stroke="#000000" points="494.192,-292.1 1247.104,-292.1 "/>
<text text-anchor="middle" x="870.648" y="-270.1" font-family="Helvetica,sans-Serif" font-size="20.00" fill="#000000">creates file:</text>
<text text-anchor="middle" x="870.648" y="-246.1" font-family="Helvetica,sans-Serif" font-size="20.00" fill="#000000">../../../test/data/out/tag_and_denormalize/tagged_products_for_operator_review.csv</text>
</a>
</g>
</g>
<!-- tagged_products&#45;&gt;file_tagged_products -->
<g id="edge4" class="edge">
<title>tagged_products-&gt;file_tagged_products</title>
<path fill="none" stroke="#000000" d="M807.5989,-398.3855C812.9975,-392.5424 818.1531,-386.4161 822.648,-380.2 832.9382,-365.9695 841.9841,-349.188 849.3679,-333.4742"/>
<polygon fill="#000000" stroke="#000000" points="852.5536,-334.9235 853.5201,-324.3729 846.1851,-332.018 852.5536,-334.9235"/>
<text text-anchor="middle" x="966.6709" y="-364" font-family="Helvetica,sans-Serif" font-size="18.00" fill="#000000">tagged_products (no parallelism)</text>
</g>
<!-- tagged_products&#45;&gt;tag_totals -->
<g id="edge7" class="edge">
<title>tagged_products-&gt;tag_totals</title>
<path fill="none" stroke="#000000" stroke-dasharray="5,2" d="M675.0628,-422.8663C634.2512,-412.0491 584.6407,-397.3607 541.5564,-380.2 531.2263,-376.0855 489.5907,-354.6931 447.5349,-332.7351"/>
<polygon fill="#000000" stroke="#000000" points="449.0491,-329.5773 438.5654,-328.0469 445.8065,-335.781 449.0491,-329.5773"/>
<text text-anchor="middle" x="676.6938" y="-364" font-family="Helvetica,sans-Serif" font-size="18.00" fill="#000000">idx_tagged_products_tag (lookup)</text>
</g>
<!-- ../../../test/data/out/tag_and_denormalize/tagged_products_for_operator_review.csv -->
<g id="node7" class="node">
<title>../../../test/data/out/tag_and_denormalize/tagged_products_for_operator_review.csv</title>
<g id="a_node7"><a xlink:title="Target data file(s)">
<polygon fill="none" stroke="#000000" points="1280.06,-135.5 533.236,-135.5 533.236,-99.5 1286.06,-99.5 1286.06,-129.5 1280.06,-135.5"/>
<polyline fill="none" stroke="#000000" points="1280.06,-135.5 1280.06,-129.5 "/>
<polyline fill="none" stroke="#000000" points="1286.06,-129.5 1280.06,-129.5 "/>
<text text-anchor="middle" x="909.648" y="-111.5" font-family="Helvetica,sans-Serif" font-size="20.00" fill="#000000">../../../test/data/out/tag_and_denormalize/tagged_products_for_operator_review.csv</text>
</a>
</g>
</g>
<!-- file_tagged_products&#45;&gt;../../../test/data/out/tag_and_denormalize/tagged_products_for_operator_review.csv -->
<g id="edge5" class="edge">
<title>file_tagged_products-&gt;../../../test/data/out/tag_and_denormalize/tagged_products_for_operator_review.csv</title>
<path fill="none" stroke="#000000" stroke-dasharray="1,5" d="M881.202,-236.0981C888.1105,-207.2946 896.9318,-170.5168 902.9059,-145.6094"/>
<polygon fill="#000000" stroke="#000000" points="906.349,-146.26 905.278,-135.7195 899.5421,-144.6273 906.349,-146.26"/>
</g>
<!-- file_tag_totals -->
<g id="node9" class="node">
<title>file_tag_totals</title>
<g id="a_node9"><a xlink:title="Statistics for each tag">
<polygon fill="#ffffff" stroke="#000000" points="0,-73.5 0,-161.5 497.296,-161.5 497.296,-73.5 0,-73.5"/>
<text text-anchor="middle" x="248.648" y="-139.5" font-family="Helvetica,sans-Serif" font-size="20.00" fill="#000000">file_tag_totals</text>
<polyline fill="none" stroke="#000000" points="0,-129.5 497.296,-129.5 "/>
<text text-anchor="middle" x="248.648" y="-107.5" font-family="Helvetica,sans-Serif" font-size="20.00" fill="#000000">creates file:</text>
<text text-anchor="middle" x="248.648" y="-83.5" font-family="Helvetica,sans-Serif" font-size="20.00" fill="#000000">../../../test/data/out/tag_and_denormalize/tag_totals.tsv</text>
</a>
</g>
</g>
<!-- tag_totals&#45;&gt;file_tag_totals -->
<g id="edge8" class="edge">
<title>tag_totals-&gt;file_tag_totals</title>
<path fill="none" stroke="#000000" d="M311.0653,-220.0157C301.1198,-203.6809 290.4262,-186.1176 280.7492,-170.2237"/>
<polygon fill="#000000" stroke="#000000" points="283.6788,-168.3052 275.4888,-161.584 277.6998,-171.9455 283.6788,-168.3052"/>
<text text-anchor="middle" x="401.6575" y="-185.4" font-family="Helvetica,sans-Serif" font-size="18.00" fill="#000000">tag_totals (no parallelism)</text>
</g>
<!-- ../../../test/data/out/tag_and_denormalize/tag_totals.tsv -->
<g id="node10" class="node">
<title>../../../test/data/out/tag_and_denormalize/tag_totals.tsv</title>
<g id="a_node10"><a xlink:title="Target data file(s)">
<polygon fill="none" stroke="#000000" points="491.4441,-36 -.1481,-36 -.1481,0 497.4441,0 497.4441,-30 491.4441,-36"/>
<polyline fill="none" stroke="#000000" points="491.4441,-36 491.4441,-30 "/>
<polyline fill="none" stroke="#000000" points="497.4441,-30 491.4441,-30 "/>
<text text-anchor="middle" x="248.648" y="-12" font-family="Helvetica,sans-Serif" font-size="20.00" fill="#000000">../../../test/data/out/tag_and_denormalize/tag_totals.tsv</text>
</a>
</g>
</g>
<!-- file_tag_totals&#45;&gt;../../../test/data/out/tag_and_denormalize/tag_totals.tsv -->
<g id="edge9" class="edge">
<title>file_tag_totals-&gt;../../../test/data/out/tag_and_denormalize/tag_totals.tsv</title>
<path fill="none" stroke="#000000" stroke-dasharray="1,5" d="M248.648,-73.2784C248.648,-64.082 248.648,-54.6304 248.648,-46.2016"/>
<polygon fill="#000000" stroke="#000000" points="252.1481,-46.1684 248.648,-36.1685 245.1481,-46.1685 252.1481,-46.1684"/>
</g>
</g>
</svg>