<?xml version="1.0" encoding="UTF-8" standalone="no"?><!DOCTYPE svg PUBLIC "-//W3C//DTD SVG 1.1//EN" "http://www.w3.org/Graphics/SVG/1.1/DTD/svg11.dtd"><!-- Generated by graphviz version 2.40.1 (20161225.0304)
 --><!-- Title: indexes Pages: 1 --><svg xmlns="http://www.w3.org/2000/svg" xmlns:xlink="http://www.w3.org/1999/xlink" width="2454pt" height="632pt" viewBox="0.00 0.00 2454.46 632.20">
<g id="graph0" class="graph" transform="scale(1 1) rotate(0) translate(36 596.2)">
<title>indexes</title>
<polygon fill="#ffffff" stroke="transparent" points="-36,36 -36,-596.2 2418.4584,-596.2 2418.4584,36 -36,36"/>
<!-- orders -->
<g id="node1" class="node">
<title>orders</title>
<g id="a_node1"><a xlink:title="Load order data from CSV file">
<polygon fill="#ffffff" stroke="#000000" stroke-width="6" points="523.392,-398.7 523.392,-486.7 659.428,-486.7 659.428,-398.7 523.392,-398.7"/>
<text text-anchor="middle" x="591.41" y="-464.7" font-family="Helvetica,sans-Serif" font-size="20.00" fill="#000000">read_orders</text>
<polyline fill="none" stroke="#000000" stroke-width="6" points="523.392,-454.7 659.428,-454.7 "/>
<text text-anchor="middle" x="591.41" y="-432.7" font-family="Helvetica,sans-Serif" font-size="20.00" fill="#000000">creates table:</text>
<text text-anchor="middle" x="591.41" y="-408.7" font-family="Helvetica,sans-Serif" font-size="20.00" fill="#000000">orders</text>
</a>
</g>
</g>
<!-- order_date_value_grouped_inner -->
<g id="node2" class="node">
<title>order_date_value_grouped_inner</title>
<g id="a_node2"><a xlink:title="For each order, look up order items and perform inner join with grouping and aggregation">
<polygon fill="#ffffff" stroke="#000000" stroke-width="6" points="1304.579,-220.1 1304.579,-340.1 1616.241,-340.1 1616.241,-220.1 1304.579,-220.1"/>
<text text-anchor="middle" x="1460.41" y="-318.1" font-family="Helvetica,sans-Serif" font-size="20.00" fill="#000000">order_date_value_grouped_inner</text>
<polyline fill="none" stroke="#000000" stroke-width="6" points="1304.579,-308.1 1616.241,-308.1 "/>
<text text-anchor="middle" x="1460.41" y="-286.1" font-family="Helvetica,sans-Serif" font-size="20.00" fill="#000000">creates table:</text>
<text text-anchor="middle" x="1460.41" y="-262.1" font-family="Helvetica,sans-Serif" font-size="20.00" fill="#000000">order_date_value_grouped_inner</text>
<polyline fill="none" stroke="#000000" stroke-width="6" points="1304.579,-252.1 1616.241,-252.1 "/>
<text text-anchor="middle" x="1460.41" y="-230.1" font-family="Helvetica,sans-Serif" font-size="20.00" fill="#000000">group:true, join:inner</text>
</a>
</g>
</g>
<!-- orders&#45;&gt;order_date_value_grouped_inner -->
<g id="edge1" class="edge">
<title>orders-&gt;order_date_value_grouped_inner</title>
<path fill="none" stroke="#000000" d="M659.7696,-439.9518C736.4071,-434.9136 863.1945,-420.6397 964.41,-380.2 980.3336,-373.8379 980.4602,-364.9746 996.3788,-358.6 1091.0554,-320.6869 1203.7236,-301.083 1294.3307,-290.9472"/>
<polygon fill="#000000" stroke="#000000" points="1294.8637,-294.4099 1304.4254,-289.8467 1294.105,-287.4511 1294.8637,-294.4099"/>
<text text-anchor="middle" x="1073.4256" y="-364" font-family="Helvetica,sans-Serif" font-size="18.00" fill="#000000">orders (10 batches)</text>
</g>
<!-- order_date_value_grouped_left_outer -->
<g id="node6" class="node">
<title>order_date_value_grouped_left_outer</title>
<g id="a_node6"><a xlink:title="For each order, look up order items and perform left outer join with grouping and aggregation">
<polygon fill="#ffffff" stroke="#000000" stroke-width="6" points="652.124,-220.1 652.124,-340.1 1002.696,-340.1 1002.696,-220.1 652.124,-220.1"/>
<text text-anchor="middle" x="827.41" y="-318.1" font-family="Helvetica,sans-Serif" font-size="20.00" fill="#000000">order_date_value_grouped_left_outer</text>
<polyline fill="none" stroke="#000000" stroke-width="6" points="652.124,-308.1 1002.696,-308.1 "/>
<text text-anchor="middle" x="827.41" y="-286.1" font-family="Helvetica,sans-Serif" font-size="20.00" fill="#000000">creates table:</text>
<text text-anchor="middle" x="827.41" y="-262.1" font-family="Helvetica,sans-Serif" font-size="20.00" fill="#000000">order_date_value_grouped_left_outer</text>
<polyline fill="none" stroke="#000000" stroke-width="6" points="652.124,-252.1 1002.696,-252.1 "/>
<text text-anchor="middle" x="827.41" y="-230.1" font-family="Helvetica,sans-Serif" font-size="20.00" fill="#000000">group:true, join:left</text>
</a>
</g>
</g>
<!-- orders&#45;&gt;order_date_value_grouped_left_outer -->
<g id="edge15" class="edge">
<title>orders-&gt;order_date_value_grouped_left_outer</title>
<path fill="none" stroke="#000000" d="M523.27,-416.5562C494.1789,-401.4447 470.5625,-381.0128 488.3788,-358.6 508.9827,-332.6803 574.095,-314.5654 641.825,-302.3236"/>
<polygon fill="#000000" stroke="#000000" points="642.5913,-305.7426 651.832,-300.5598 641.3762,-298.8488 642.5913,-305.7426"/>
<text text-anchor="middle" x="566.4256" y="-364" font-family="Helvetica,sans-Serif" font-size="18.00" fill="#000000">orders (10 batches)</text>
</g>
<!-- order_item_date_inner -->
<g id="node11" class="node">
<title>order_item_date_inner</title>
<g id="a_node11"><a xlink:title="For each order, look up order items and perform inner join without grouping or aggregation">
<polygon fill="#ffffff" stroke="#000000" stroke-width="6" points="186.831,-220.1 186.831,-340.1 403.989,-340.1 403.989,-220.1 186.831,-220.1"/>
<text text-anchor="middle" x="295.41" y="-318.1" font-family="Helvetica,sans-Serif" font-size="20.00" fill="#000000">order_item_date_inner</text>
<polyline fill="none" stroke="#000000" stroke-width="6" points="186.831,-308.1 403.989,-308.1 "/>
<text text-anchor="middle" x="295.41" y="-286.1" font-family="Helvetica,sans-Serif" font-size="20.00" fill="#000000">creates table:</text>
<text text-anchor="middle" x="295.41" y="-262.1" font-family="Helvetica,sans-Serif" font-size="20.00" fill="#000000">order_item_date_inner</text>
<polyline fill="none" stroke="#000000" stroke-width="6" points="186.831,-252.1 403.989,-252.1 "/>
<text text-anchor="middle" x="295.41" y="-230.1" font-family="Helvetica,sans-Serif" font-size="20.00" fill="#000000">group:false, join:inner</text>
</a>
</g>
</g>
<!-- orders&#45;&gt;order_item_date_inner -->
<g id="edge9" class="edge">
<title>orders-&gt;order_item_date_inner</title>
<path fill="none" stroke="#000000" d="M523.2201,-435.498C451.6918,-426.5378 345.771,-408.8259 317.3788,-380.2 309.1903,-371.9441 303.7509,-361.3795 300.1907,-350.2231"/>
<polygon fill="#000000" stroke="#000000" points="303.5015,-349.0572 297.5238,-340.3098 296.7419,-350.8757 303.5015,-349.0572"/>
<text text-anchor="middle" x="395.4256" y="-364" font-family="Helvetica,sans-Serif" font-size="18.00" fill="#000000">orders (10 batches)</text>
</g>
<!-- order_item_date_left_outer -->
<g id="node12" class="node">
<title>order_item_date_left_outer</title>
<g id="a_node12"><a xlink:title="For each order, look up order items and perform left outer join without grouping or aggregation">
<polygon fill="#ffffff" stroke="#000000" stroke-width="6" points="1900.376,-220.1 1900.376,-340.1 2156.444,-340.1 2156.444,-220.1 1900.376,-220.1"/>
<text text-anchor="middle" x="2028.41" y="-318.1" font-family="Helvetica,sans-Serif" font-size="20.00" fill="#000000">order_item_date_left_outer</text>
<polyline fill="none" stroke="#000000" stroke-width="6" points="1900.376,-308.1 2156.444,-308.1 "/>
<text text-anchor="middle" x="2028.41" y="-286.1" font-family="Helvetica,sans-Serif" font-size="20.00" fill="#000000">creates table:</text>
<text text-anchor="middle" x="2028.41" y="-262.1" font-family="Helvetica,sans-Serif" font-size="20.00" fill="#000000">order_item_date_left_outer</text>
<polyline fill="none" stroke="#000000" stroke-width="6" points="1900.376,-252.1 2156.444,-252.1 "/>
<text text-anchor="middle" x="2028.41" y="-230.1" font-family="Helvetica,sans-Serif" font-size="20.00" fill="#000000">group:false, join:left</text>
</a>
</g>
</g>
<!-- orders&#45;&gt;order_item_date_left_outer -->
<g id="edge13" class="edge">
<title>orders-&gt;order_item_date_left_outer</title>
<path fill="none" stroke="#000000" d="M659.5591,-438.8548C860.3301,-427.3987 1437.9626,-393.4704 1476.41,-380.2 1492.6192,-374.6053 1492.3795,-364.7693 1508.3788,-358.6 1561.1722,-338.2428 1578.4389,-348.894 1634.41,-340.6 1719.4163,-328.0035 1814.6574,-313.3925 1890.204,-301.6851"/>
<polygon fill="#000000" stroke="#000000" points="1890.9123,-305.1172 1900.2579,-300.1262 1889.8396,-298.1999 1890.9123,-305.1172"/>
<text text-anchor="middle" x="1585.4256" y="-364" font-family="Helvetica,sans-Serif" font-size="18.00" fill="#000000">orders (10 batches)</text>
</g>
<!-- file_order_date_value_grouped_inner -->
<g id="node4" class="node">
<title>file_order_date_value_grouped_inner</title>
<g id="a_node4"><a xlink:title="Write the results of inner join with grouping to CSV file">
<polygon fill="#ffffff" stroke="#000000" points="1171.748,-73.5 1171.748,-161.5 1749.072,-161.5 1749.072,-73.5 1171.748,-73.5"/>
<text text-anchor="middle" x="1460.41" y="-139.5" font-family="Helvetica,sans-Serif" font-size="20.00" fill="#000000">file_order_date_value_grouped_inner</text>
<polyline fill="none" stroke="#000000" points="1171.748,-129.5 1749.072,-129.5 "/>
<text text-anchor="middle" x="1460.41" y="-107.5" font-family="Helvetica,sans-Serif" font-size="20.00" fill="#000000">creates file:</text>
<text text-anchor="middle" x="1460.41" y="-83.5" font-family="Helvetica,sans-Serif" font-size="20.00" fill="#000000">/tmp/capitest_out/lookup/order_date_value_grouped_inner.csv</text>
</a>
</g>
</g>
<!-- order_date_value_grouped_inner&#45;&gt;file_order_date_value_grouped_inner -->
<g id="edge3" class="edge">
<title>order_date_value_grouped_inner-&gt;file_order_date_value_grouped_inner</title>
<path fill="none" stroke="#000000" d="M1460.41,-220.0157C1460.41,-204.2859 1460.41,-187.4169 1460.41,-171.9964"/>
<polygon fill="#000000" stroke="#000000" points="1463.9101,-171.5839 1460.41,-161.584 1456.9101,-171.584 1463.9101,-171.5839"/>
<text text-anchor="middle" x="1657.4515" y="-185.4" font-family="Helvetica,sans-Serif" font-size="18.00" fill="#000000">order_date_value_grouped_inner (no parallelism)</text>
</g>
<!-- order_items -->
<g id="node3" class="node">
<title>order_items</title>
<g id="a_node3"><a xlink:title="Load order item data from CSV file">
<polygon fill="#ffffff" stroke="#000000" stroke-width="6" points="1371.065,-398.7 1371.065,-486.7 1543.755,-486.7 1543.755,-398.7 1371.065,-398.7"/>
<text text-anchor="middle" x="1457.41" y="-464.7" font-family="Helvetica,sans-Serif" font-size="20.00" fill="#000000">read_order_items</text>
<polyline fill="none" stroke="#000000" stroke-width="6" points="1371.065,-454.7 1543.755,-454.7 "/>
<text text-anchor="middle" x="1457.41" y="-432.7" font-family="Helvetica,sans-Serif" font-size="20.00" fill="#000000">creates table:</text>
<text text-anchor="middle" x="1457.41" y="-408.7" font-family="Helvetica,sans-Serif" font-size="20.00" fill="#000000">order_items</text>
</a>
</g>
</g>
<!-- order_items&#45;&gt;order_date_value_grouped_inner -->
<g id="edge2" class="edge">
<title>order_items-&gt;order_date_value_grouped_inner</title>
<path fill="none" stroke="#000000" stroke-dasharray="5,2" d="M1543.9127,-428.5389C1596.833,-417.9125 1657.3718,-401.5368 1673.41,-380.2 1698.5075,-346.811 1669.5946,-324.1261 1625.8052,-308.9207"/>
<polygon fill="#000000" stroke="#000000" points="1626.8421,-305.5773 1616.2493,-305.7883 1624.6616,-312.2291 1626.8421,-305.5773"/>
<text text-anchor="middle" x="1818.426" y="-364" font-family="Helvetica,sans-Serif" font-size="18.00" fill="#000000">idx_order_items_order_id (lookup)</text>
</g>
<!-- order_items&#45;&gt;order_date_value_grouped_left_outer -->
<g id="edge16" class="edge">
<title>order_items-&gt;order_date_value_grouped_left_outer</title>
<path fill="none" stroke="#000000" stroke-dasharray="5,2" d="M1371.0404,-428.7925C1319.4251,-418.8155 1253.2426,-403.0555 1197.378,-380.2 1180.1197,-373.1392 1178.6861,-365.6173 1161.41,-358.6 1114.587,-339.5813 1062.1138,-324.5465 1012.8785,-312.944"/>
<polygon fill="#000000" stroke="#000000" points="1013.6097,-309.5207 1003.0773,-310.6691 1012.027,-316.3395 1013.6097,-309.5207"/>
<text text-anchor="middle" x="1333.426" y="-364" font-family="Helvetica,sans-Serif" font-size="18.00" fill="#000000">idx_order_items_order_id (lookup)</text>
</g>
<!-- order_items&#45;&gt;order_item_date_inner -->
<g id="edge10" class="edge">
<title>order_items-&gt;order_item_date_inner</title>
<path fill="none" stroke="#000000" stroke-dasharray="5,2" d="M1370.7745,-441.2482C1195.8577,-437.4181 806.5347,-424.0912 681.378,-380.2 665.1969,-374.5255 665.1618,-365.3755 649.41,-358.6 574.4499,-326.3566 484.6402,-306.6395 414.2379,-295.0302"/>
<polygon fill="#000000" stroke="#000000" points="414.4258,-291.5152 403.9956,-293.3756 413.3094,-298.4256 414.4258,-291.5152"/>
<text text-anchor="middle" x="817.426" y="-364" font-family="Helvetica,sans-Serif" font-size="18.00" fill="#000000">idx_order_items_order_id (lookup)</text>
</g>
<!-- order_items&#45;&gt;order_item_date_left_outer -->
<g id="edge14" class="edge">
<title>order_items-&gt;order_item_date_left_outer</title>
<path fill="none" stroke="#000000" stroke-dasharray="5,2" d="M1543.9324,-440.8031C1669.9304,-436.5901 1896.3182,-423.1082 1964.41,-380.2 1976.8875,-372.3373 1987.3876,-361.0582 1996.0415,-348.8843"/>
<polygon fill="#000000" stroke="#000000" points="1999.1007,-350.6054 2001.7393,-340.3444 1993.2777,-346.7203 1999.1007,-350.6054"/>
<text text-anchor="middle" x="2124.426" y="-364" font-family="Helvetica,sans-Serif" font-size="18.00" fill="#000000">idx_order_items_order_id (lookup)</text>
</g>
<!-- /tmp/capitest_out/lookup/order_date_value_grouped_inner.csv -->
<g id="node5" class="node">
<title>/tmp/capitest_out/lookup/order_date_value_grouped_inner.csv</title>
<g id="a_node5"><a xlink:title="Target data file(s)">
<polygon fill="none" stroke="#000000" points="1743.2341,-36 1171.5859,-36 1171.5859,0 1749.2341,0 1749.2341,-30 1743.2341,-36"/>
<polyline fill="none" stroke="#000000" points="1743.2341,-36 1743.2341,-30 "/>
<polyline fill="none" stroke="#000000" points="1749.2341,-30 1743.2341,-30 "/>
<text text-anchor="middle" x="1460.41" y="-12" font-family="Helvetica,sans-Serif" font-size="20.00" fill="#000000">/tmp/capitest_out/lookup/order_date_value_grouped_inner.csv</text>
</a>
</g>
</g>
<!-- file_order_date_value_grouped_inner&#45;&gt;/tmp/capitest_out/lookup/order_date_value_grouped_inner.csv -->
<g id="edge4" class="edge">
<title>file_order_date_value_grouped_inner-&gt;/tmp/capitest_out/lookup/order_date_value_grouped_inner.csv</title>
<path fill="none" stroke="#000000" stroke-dasharray="1,5" d="M1460.41,-73.2784C1460.41,-64.082 1460.41,-54.6304 1460.41,-46.2016"/>
<polygon fill="#000000" stroke="#000000" points="1463.9101,-46.1684 1460.41,-36.1685 1456.9101,-46.1685 1463.9101,-46.1684"/>
</g>
<!-- file_order_date_value_grouped_left_outer -->
<g id="node7" class="node">
<title>file_order_date_value_grouped_left_outer</title>
<g id="a_node7"><a xlink:title="Write the results of left outer join with grouping to CSV file">
<polygon fill="#ffffff" stroke="#000000" points="519.293,-73.5 519.293,-161.5 1135.527,-161.5 1135.527,-73.5 519.293,-73.5"/>
<text text-anchor="middle" x="827.41" y="-139.5" font-family="Helvetica,sans-Serif" font-size="20.00" fill="#000000">file_order_date_value_grouped_left_outer</text>
<polyline fill="none" stroke="#000000" points="519.293,-129.5 1135.527,-129.5 "/>
<text text-anchor="middle" x="827.41" y="-107.5" font-family="Helvetica,sans-Serif" font-size="20.00" fill="#000000">creates file:</text>
<text text-anchor="middle" x="827.41" y="-83.5" font-family="Helvetica,sans-Serif" font-size="20.00" fill="#000000">/tmp/capitest_out/lookup/order_date_value_grouped_left_outer.csv</text>
</a>
</g>
</g>
<!-- order_date_value_grouped_left_outer&#45;&gt;file_order_date_value_grouped_left_outer -->
<g id="edge5" class="edge">
<title>order_date_value_grouped_left_outer-&gt;file_order_date_value_grouped_left_outer</title>
<path fill="none" stroke="#000000" d="M827.41,-220.0157C827.41,-204.2859 827.41,-187.4169 827.41,-171.9964"/>
<polygon fill="#000000" stroke="#000000" points="830.9101,-171.5839 827.41,-161.584 823.9101,-171.584 830.9101,-171.5839"/>
<text text-anchor="middle" x="1041.961" y="-185.4" font-family="Helvetica,sans-Serif" font-size="18.00" fill="#000000">order_date_value_grouped_left_outer (no parallelism)</text>
</g>
<!-- /tmp/capitest_out/lookup/order_date_value_grouped_left_outer.csv -->
<g id="node8" class="node">
<title>/tmp/capitest_out/lookup/order_date_value_grouped_left_outer.csv</title>
<g id="a_node8"><a xlink:title="Target data file(s)">
<polygon fill="none" stroke="#000000" points="1129.644,-36 519.176,-36 519.176,0 1135.644,0 1135.644,-30 1129.644,-36"/>
<polyline fill="none" stroke="#000000" points="1129.644,-36 1129.644,-30 "/>
<polyline fill="none" stroke="#000000" points="1135.644,-30 1129.644,-30 "/>
<text text-anchor="middle" x="827.41" y="-12" font-family="Helvetica,sans-Serif" font-size="20.00" fill="#000000">/tmp/capitest_out/lookup/order_date_value_grouped_left_outer.csv</text>
</a>
</g>
</g>
<!-- file_order_date_value_grouped_left_outer&#45;&gt;/tmp/capitest_out/lookup/order_date_value_grouped_left_outer.csv -->
<g id="edge6" class="edge">
<title>file_order_date_value_grouped_left_outer-&gt;/tmp/capitest_out/lookup/order_date_value_grouped_left_outer.csv</title>
<path fill="none" stroke="#000000" stroke-dasharray="1,5" d="M827.41,-73.2784C827.41,-64.082 827.41,-54.6304 827.41,-46.2016"/>
<polygon fill="#000000" stroke="#000000" points="830.9101,-46.1684 827.41,-36.1685 823.9101,-46.1685 830.9101,-46.1684"/>
</g>
<!-- /tmp/capitest_in/lookup/olist_orders_dataset.csv -->
<g id="node9" class="node">
<title>/tmp/capitest_in/lookup/olist_orders_dataset.csv</title>
<g id="a_node9"><a xlink:title="Source data file(s)">
<polygon fill="none" stroke="#000000" points="816.3802,-560.2 813.3802,-564.2 792.3802,-564.2 789.3802,-560.2 366.4398,-560.2 366.4398,-524.2 816.3802,-524.2 816.3802,-560.2"/>
<text text-anchor="middle" x="591.41" y="-536.2" font-family="Helvetica,sans-Serif" font-size="20.00" fill="#000000">/tmp/capitest_in/lookup/olist_orders_dataset.csv</text>
</a>
</g>
</g>
<!-- /tmp/capitest_in/lookup/olist_orders_dataset.csv&#45;&gt;orders -->
<g id="edge7" class="edge">
<title>/tmp/capitest_in/lookup/olist_orders_dataset.csv-&gt;orders</title>
<path fill="none" stroke="#000000" stroke-dasharray="1,5" d="M591.41,-523.9502C591.41,-516.2053 591.41,-506.7302 591.41,-497.021"/>
<polygon fill="#000000" stroke="#000000" points="594.9101,-496.8808 591.41,-486.8808 587.9101,-496.8809 594.9101,-496.8808"/>
</g>
<!-- /tmp/capitest_in/lookup/olist_order_items_dataset.csv -->
<g id="node10" class="node">
<title>/tmp/capitest_in/lookup/olist_order_items_dataset.csv</title>
<g id="a_node10"><a xlink:title="Source data file(s)">
<polygon fill="none" stroke="#000000" points="1706.7701,-560.2 1703.7701,-564.2 1682.7701,-564.2 1679.7701,-560.2 1208.0499,-560.2 1208.0499,-524.2 1706.7701,-524.2 1706.7701,-560.2"/>
<text text-anchor="middle" x="1457.41" y="-536.2" font-family="Helvetica,sans-Serif" font-size="20.00" fill="#000000">/tmp/capitest_in/lookup/olist_order_items_dataset.csv</text>
</a>
</g>
</g>
<!-- /tmp/capitest_in/lookup/olist_order_items_dataset.csv&#45;&gt;order_items -->
<g id="edge8" class="edge">
<title>/tmp/capitest_in/lookup/olist_order_items_dataset.csv-&gt;order_items</title>
<path fill="none" stroke="#000000" stroke-dasharray="1,5" d="M1457.41,-523.9502C1457.41,-516.2053 1457.41,-506.7302 1457.41,-497.021"/>
<polygon fill="#000000" stroke="#000000" points="1460.9101,-496.8808 1457.41,-486.8808 1453.9101,-496.8809 1460.9101,-496.8808"/>
</g>
<!-- file_order_item_date_inner -->
<g id="node15" class="node">
<title>file_order_item_date_inner</title>
<g id="a_node15"><a xlink:title="Write the results of inner join without grouping to CSV file">
<polygon fill="#ffffff" stroke="#000000" points="0,-73.5 0,-161.5 482.82,-161.5 482.82,-73.5 0,-73.5"/>
<text text-anchor="middle" x="241.41" y="-139.5" font-family="Helvetica,sans-Serif" font-size="20.00" fill="#000000">file_order_item_date_inner</text>
<polyline fill="none" stroke="#000000" points="0,-129.5 482.82,-129.5 "/>
<text text-anchor="middle" x="241.41" y="-107.5" font-family="Helvetica,sans-Serif" font-size="20.00" fill="#000000">creates file:</text>
<text text-anchor="middle" x="241.41" y="-83.5" font-family="Helvetica,sans-Serif" font-size="20.00" fill="#000000">/tmp/capitest_out/lookup/order_item_date_inner.csv</text>
</a>
</g>
</g>
<!-- order_item_date_inner&#45;&gt;file_order_item_date_inner -->
<g id="edge17" class="edge">
<title>order_item_date_inner-&gt;file_order_item_date_inner</title>
<path fill="none" stroke="#000000" d="M275.4558,-220.0157C270.1314,-203.9834 264.414,-186.7676 259.2135,-171.1084"/>
<polygon fill="#000000" stroke="#000000" points="262.5239,-169.9712 256.0504,-161.584 255.8807,-172.1775 262.5239,-169.9712"/>
<text text-anchor="middle" x="422.9247" y="-185.4" font-family="Helvetica,sans-Serif" font-size="18.00" fill="#000000">order_item_date_inner (no parallelism)</text>
</g>
<!-- file_order_item_date_left_outer -->
<g id="node13" class="node">
<title>file_order_item_date_left_outer</title>
<g id="a_node13"><a xlink:title="Write the results of left oter join without grouping to CSV file">
<polygon fill="#ffffff" stroke="#000000" points="1785.545,-73.5 1785.545,-161.5 2307.275,-161.5 2307.275,-73.5 1785.545,-73.5"/>
<text text-anchor="middle" x="2046.41" y="-139.5" font-family="Helvetica,sans-Serif" font-size="20.00" fill="#000000">file_order_item_date_left_outer</text>
<polyline fill="none" stroke="#000000" points="1785.545,-129.5 2307.275,-129.5 "/>
<text text-anchor="middle" x="2046.41" y="-107.5" font-family="Helvetica,sans-Serif" font-size="20.00" fill="#000000">creates file:</text>
<text text-anchor="middle" x="2046.41" y="-83.5" font-family="Helvetica,sans-Serif" font-size="20.00" fill="#000000">/tmp/capitest_out/lookup/order_item_date_left_outer.csv</text>
</a>
</g>
</g>
<!-- order_item_date_left_outer&#45;&gt;file_order_item_date_left_outer -->
<g id="edge11" class="edge">
<title>order_item_date_left_outer-&gt;file_order_item_date_left_outer</title>
<path fill="none" stroke="#000000" d="M2035.0614,-220.0157C2036.8194,-204.1347 2038.706,-187.0924 2040.4264,-171.552"/>
<polygon fill="#000000" stroke="#000000" points="2043.9082,-171.9084 2041.5299,-161.584 2036.9507,-171.1381 2043.9082,-171.9084"/>
<text text-anchor="middle" x="2210.4342" y="-185.4" font-family="Helvetica,sans-Serif" font-size="18.00" fill="#000000">order_item_date_left_outer (no parallelism)</text>
</g>
<!-- /tmp/capitest_out/lookup/order_item_date_left_outer.csv -->
<g id="node14" class="node">
<title>/tmp/capitest_out/lookup/order_item_date_left_outer.csv</title>
<g id="a_node14"><a xlink:title="Target data file(s)">
<polygon fill="none" stroke="#000000" points="2301.1401,-36 1785.6799,-36 1785.6799,0 2307.1401,0 2307.1401,-30 2301.1401,-36"/>
<polyline fill="none" stroke="#000000" points="2301.1401,-36 2301.1401,-30 "/>
<polyline fill="none" stroke="#000000" points="2307.1401,-30 2301.1401,-30 "/>
<text text-anchor="middle" x="2046.41" y="-12" font-family="Helvetica,sans-Serif" font-size="20.00" fill="#000000">/tmp/capitest_out/lookup/order_item_date_left_outer.csv</text>
</a>
</g>
</g>
<!-- file_order_item_date_left_outer&#45;&gt;/tmp/capitest_out/lookup/order_item_date_left_outer.csv -->
<g id="edge12" class="edge">
<title>file_order_item_date_left_outer-&gt;/tmp/capitest_out/lookup/order_item_date_left_outer.csv</title>
<path fill="none" stroke="#000000" stroke-dasharray="1,5" d="M2046.41,-73.2784C2046.41,-64.082 2046.41,-54.6304 2046.41,-46.2016"/>
<polygon fill="#000000" stroke="#000000" points="2049.9101,-46.1684 2046.41,-36.1685 2042.9101,-46.1685 2049.9101,-46.1684"/>
</g>
<!-- /tmp/capitest_out/lookup/order_item_date_inner.csv -->
<g id="node16" class="node">
<title>/tmp/capitest_out/lookup/order_item_date_inner.csv</title>
<g id="a_node16"><a xlink:title="Target data file(s)">
<polygon fill="none" stroke="#000000" points="476.73,-36 .09,-36 .09,0 482.73,0 482.73,-30 476.73,-36"/>
<polyline fill="none" stroke="#000000" points="476.73,-36 476.73,-30 "/>
<polyline fill="none" stroke="#000000" points="482.73,-30 476.73,-30 "/>
<text text-anchor="middle" x="241.41" y="-12" font-family="Helvetica,sans-Serif" font-size="20.00" fill="#000000">/tmp/capitest_out/lookup/order_item_date_inner.csv</text>
</a>
</g>
</g>
<!-- file_order_item_date_inner&#45;&gt;/tmp/capitest_out/lookup/order_item_date_inner.csv -->
<g id="edge18" class="edge">
<title>file_order_item_date_inner-&gt;/tmp/capitest_out/lookup/order_item_date_inner.csv</title>
<path fill="none" stroke="#000000" stroke-dasharray="1,5" d="M241.41,-73.2784C241.41,-64.082 241.41,-54.6304 241.41,-46.2016"/>
<polygon fill="#000000" stroke="#000000" points="244.9101,-46.1684 241.41,-36.1685 237.9101,-46.1685 244.9101,-46.1684"/>
</g>
</g>
</svg>