<?xml version="1.0" encoding="UTF-8" standalone="no"?><!DOCTYPE svg PUBLIC "-//W3C//DTD SVG 1.1//EN" "http://www.w3.org/Graphics/SVG/1.1/DTD/svg11.dtd"><!-- Generated by graphviz version 2.40.1 (20161225.0304)
 --><!-- Title: indexes Pages: 1 --><svg xmlns="http://www.w3.org/2000/svg" xmlns:xlink="http://www.w3.org/1999/xlink" width="2097pt" height="1191pt" viewBox="0.00 0.00 2096.84 1191.40">
<g id="graph0" class="graph" transform="scale(1 1) rotate(0) translate(36 1155.4)">
<title>indexes</title>
<polygon fill="#ffffff" stroke="transparent" points="-36,36 -36,-1155.4 2060.8438,-1155.4 2060.8438,36 -36,36"/>
<!-- deal_seller_summaries -->
<g id="node1" class="node">
<title>deal_seller_summaries</title>
<g id="a_node1"><a xlink:title="For each deal/seller, calculate aggregates from calculated loan summaries">
<polygon fill="#ffffff" stroke="#000000" points="1584.39,-220.1 1584.39,-340.1 1839.308,-340.1 1839.308,-220.1 1584.39,-220.1"/>
<text text-anchor="middle" x="1711.849" y="-318.1" font-family="Helvetica,sans-Serif" font-size="20.00" fill="#000000">05_deal_seller_summaries</text>
<polyline fill="none" stroke="#000000" points="1584.39,-308.1 1839.308,-308.1 "/>
<text text-anchor="middle" x="1711.849" y="-286.1" font-family="Helvetica,sans-Serif" font-size="20.00" fill="#000000">creates table:</text>
<text text-anchor="middle" x="1711.849" y="-262.1" font-family="Helvetica,sans-Serif" font-size="20.00" fill="#000000">deal_seller_summaries</text>
<polyline fill="none" stroke="#000000" points="1584.39,-252.1 1839.308,-252.1 "/>
<text text-anchor="middle" x="1711.849" y="-230.1" font-family="Helvetica,sans-Serif" font-size="20.00" fill="#000000">group:true, join:left</text>
</a>
</g>
</g>
<!-- 06_write_file_deal_seller_summaries -->
<g id="node2" class="node">
<title>06_write_file_deal_seller_summaries</title>
<g id="a_node2"><a xlink:title="Write from table to file deal_seller_summaries.parquet">
<polygon fill="#ffffff" stroke="#000000" points="1401.556,-73.5 1401.556,-161.5 2022.142,-161.5 2022.142,-73.5 1401.556,-73.5"/>
<text text-anchor="middle" x="1711.849" y="-139.5" font-family="Helvetica,sans-Serif" font-size="20.00" fill="#000000">06_write_file_deal_seller_summaries</text>
<polyline fill="none" stroke="#000000" points="1401.556,-129.5 2022.142,-129.5 "/>
<text text-anchor="middle" x="1711.849" y="-107.5" font-family="Helvetica,sans-Serif" font-size="20.00" fill="#000000">creates file:</text>
<text text-anchor="middle" x="1711.849" y="-83.5" font-family="Helvetica,sans-Serif" font-size="20.00" fill="#000000">/tmp/capi_out/fannie_mae_quicktest/deal_seller_summaries.parquet</text>
</a>
</g>
</g>
<!-- deal_seller_summaries&#45;&gt;06_write_file_deal_seller_summaries -->
<g id="edge1" class="edge">
<title>deal_seller_summaries-&gt;06_write_file_deal_seller_summaries</title>
<path fill="none" stroke="#000000" d="M1711.849,-220.0157C1711.849,-204.2859 1711.849,-187.4169 1711.849,-171.9964"/>
<polygon fill="#000000" stroke="#000000" points="1715.3491,-171.5839 1711.849,-161.584 1708.3491,-171.584 1715.3491,-171.5839"/>
<text text-anchor="middle" x="1868.3464" y="-185.4" font-family="Helvetica,sans-Serif" font-size="18.00" fill="#000000">deal_seller_summaries (no parallelism)</text>
</g>
<!-- /tmp/capi_out/fannie_mae_quicktest/deal_seller_summaries.parquet -->
<g id="node3" class="node">
<title>/tmp/capi_out/fannie_mae_quicktest/deal_seller_summaries.parquet</title>
<g id="a_node3"><a xlink:title="Target data file(s)">
<polygon fill="none" stroke="#000000" points="2015.9351,-36 1401.7629,-36 1401.7629,0 2021.9351,0 2021.9351,-30 2015.9351,-36"/>
<polyline fill="none" stroke="#000000" points="2015.9351,-36 2015.9351,-30 "/>
<polyline fill="none" stroke="#000000" points="2021.9351,-30 2015.9351,-30 "/>
<text text-anchor="middle" x="1711.849" y="-12" font-family="Helvetica,sans-Serif" font-size="20.00" fill="#000000">/tmp/capi_out/fannie_mae_quicktest/deal_seller_summaries.parquet</text>
</a>
</g>
</g>
<!-- 06_write_file_deal_seller_summaries&#45;&gt;/tmp/capi_out/fannie_mae_quicktest/deal_seller_summaries.parquet -->
<g id="edge2" class="edge">
<title>06_write_file_deal_seller_summaries-&gt;/tmp/capi_out/fannie_mae_quicktest/deal_seller_summaries.parquet</title>
<path fill="none" stroke="#000000" stroke-dasharray="1,5" d="M1711.849,-73.2784C1711.849,-64.082 1711.849,-54.6304 1711.849,-46.2016"/>
<polygon fill="#000000" stroke="#000000" points="1715.3491,-46.1684 1711.849,-36.1685 1708.3491,-46.1685 1715.3491,-46.1684"/>
</g>
<!-- deal_names -->
<g id="node4" class="node">
<title>deal_names</title>
<g id="a_node4"><a xlink:title="Select distinct deal names">
<polygon fill="#ffffff" stroke="#000000" points="433.711,-505.7 433.711,-593.7 591.987,-593.7 591.987,-505.7 433.711,-505.7"/>
<text text-anchor="middle" x="512.849" y="-571.7" font-family="Helvetica,sans-Serif" font-size="20.00" fill="#000000">03_deal_names</text>
<polyline fill="none" stroke="#000000" points="433.711,-561.7 591.987,-561.7 "/>
<text text-anchor="middle" x="512.849" y="-539.7" font-family="Helvetica,sans-Serif" font-size="20.00" fill="#000000">creates table:</text>
<text text-anchor="middle" x="512.849" y="-515.7" font-family="Helvetica,sans-Serif" font-size="20.00" fill="#000000">deal_names</text>
</a>
</g>
</g>
<!-- deal_summaries -->
<g id="node5" class="node">
<title>deal_summaries</title>
<g id="a_node5"><a xlink:title="For each deal, calculate aggregates from calculated loan summaries">
<polygon fill="#ffffff" stroke="#000000" points="228.834,-220.1 228.834,-340.1 424.864,-340.1 424.864,-220.1 228.834,-220.1"/>
<text text-anchor="middle" x="326.849" y="-318.1" font-family="Helvetica,sans-Serif" font-size="20.00" fill="#000000">05_deal_summaries</text>
<polyline fill="none" stroke="#000000" points="228.834,-308.1 424.864,-308.1 "/>
<text text-anchor="middle" x="326.849" y="-286.1" font-family="Helvetica,sans-Serif" font-size="20.00" fill="#000000">creates table:</text>
<text text-anchor="middle" x="326.849" y="-262.1" font-family="Helvetica,sans-Serif" font-size="20.00" fill="#000000">deal_summaries</text>
<polyline fill="none" stroke="#000000" points="228.834,-252.1 424.864,-252.1 "/>
<text text-anchor="middle" x="326.849" y="-230.1" font-family="Helvetica,sans-Serif" font-size="20.00" fill="#000000">group:true, join:left</text>
</a>
</g>
</g>
<!-- deal_names&#45;&gt;deal_summaries -->
<g id="edge3" class="edge">
<title>deal_names-&gt;deal_summaries</title>
<path fill="none" stroke="#000000" d="M473.1522,-505.6368C444.4301,-472.5299 405.7465,-425.3127 376.849,-380.2 370.5867,-370.4238 364.5232,-359.7564 358.907,-349.1469"/>
<polygon fill="#000000" stroke="#000000" points="362.0129,-347.5333 354.3001,-340.2694 355.7997,-350.7576 362.0129,-347.5333"/>
<text text-anchor="middle" x="559.378" y="-437.3" font-family="Helvetica,sans-Serif" font-size="18.00" fill="#000000">deal_names (10 batches)</text>
</g>
<!-- 06_write_file_deal_summaries -->
<g id="node12" class="node">
<title>06_write_file_deal_summaries</title>
<g id="a_node12"><a xlink:title="Write from table to file deal_summaries.parquet">
<polygon fill="#ffffff" stroke="#000000" points="0,-73.5 0,-161.5 561.698,-161.5 561.698,-73.5 0,-73.5"/>
<text text-anchor="middle" x="280.849" y="-139.5" font-family="Helvetica,sans-Serif" font-size="20.00" fill="#000000">06_write_file_deal_summaries</text>
<polyline fill="none" stroke="#000000" points="0,-129.5 561.698,-129.5 "/>
<text text-anchor="middle" x="280.849" y="-107.5" font-family="Helvetica,sans-Serif" font-size="20.00" fill="#000000">creates file:</text>
<text text-anchor="middle" x="280.849" y="-83.5" font-family="Helvetica,sans-Serif" font-size="20.00" fill="#000000">/tmp/capi_out/fannie_mae_quicktest/deal_summaries.parquet</text>
</a>
</g>
</g>
<!-- deal_summaries&#45;&gt;06_write_file_deal_summaries -->
<g id="edge11" class="edge">
<title>deal_summaries-&gt;06_write_file_deal_summaries</title>
<path fill="none" stroke="#000000" d="M309.851,-220.0157C305.3582,-204.1347 300.5369,-187.0924 296.1405,-171.552"/>
<polygon fill="#000000" stroke="#000000" points="299.4106,-170.2535 293.3205,-161.584 292.6749,-172.1591 299.4106,-170.2535"/>
<text text-anchor="middle" x="433.8468" y="-185.4" font-family="Helvetica,sans-Serif" font-size="18.00" fill="#000000">deal_summaries (no parallelism)</text>
</g>
<!-- loan_summaries_calculated -->
<g id="node6" class="node">
<title>loan_summaries_calculated</title>
<g id="a_node6"><a xlink:title="Apply Python calculations to loan summaries">
<polygon fill="#ffffff" stroke="#000000" points="704.263,-398.7 704.263,-486.7 1001.435,-486.7 1001.435,-398.7 704.263,-398.7"/>
<text text-anchor="middle" x="852.849" y="-464.7" font-family="Helvetica,sans-Serif" font-size="20.00" fill="#000000">04_loan_summaries_calculated</text>
<polyline fill="none" stroke="#000000" points="704.263,-454.7 1001.435,-454.7 "/>
<text text-anchor="middle" x="852.849" y="-432.7" font-family="Helvetica,sans-Serif" font-size="20.00" fill="#000000">creates table:</text>
<text text-anchor="middle" x="852.849" y="-408.7" font-family="Helvetica,sans-Serif" font-size="20.00" fill="#000000">loan_summaries_calculated</text>
</a>
</g>
</g>
<!-- loan_summaries_calculated&#45;&gt;deal_seller_summaries -->
<g id="edge10" class="edge">
<title>loan_summaries_calculated-&gt;deal_seller_summaries</title>
<path fill="none" stroke="#000000" stroke-dasharray="5,2" d="M1001.6181,-428.538C1065.5944,-419.3475 1140.3393,-404.3852 1204.849,-380.2 1222.2847,-373.6632 1223.2783,-365.0442 1240.7484,-358.6 1348.8466,-318.726 1478.3953,-299.0106 1574.2583,-289.3178"/>
<polygon fill="#000000" stroke="#000000" points="1574.6991,-292.7914 1584.3069,-288.3259 1574.0114,-285.8252 1574.6991,-292.7914"/>
<text text-anchor="middle" x="1506.3993" y="-364" font-family="Helvetica,sans-Serif" font-size="18.00" fill="#000000">idx_loan_summaries_calculated_deal_name_seller_name (lookup)</text>
</g>
<!-- loan_summaries_calculated&#45;&gt;deal_summaries -->
<g id="edge4" class="edge">
<title>loan_summaries_calculated-&gt;deal_summaries</title>
<path fill="none" stroke="#000000" stroke-dasharray="5,2" d="M703.9954,-421.6145C577.305,-403.6457 415.5861,-380.6445 414.7646,-380.2 399.7996,-372.1039 386.1757,-360.3952 374.3579,-347.8186"/>
<polygon fill="#000000" stroke="#000000" points="376.9069,-345.4189 367.612,-340.3342 371.7073,-350.1055 376.9069,-345.4189"/>
<text text-anchor="middle" x="627.3912" y="-364" font-family="Helvetica,sans-Serif" font-size="18.00" fill="#000000">idx_loan_summaries_calculated_deal_name (lookup)</text>
</g>
<!-- 06_write_file_loan_summaries_calculated -->
<g id="node14" class="node">
<title>06_write_file_loan_summaries_calculated</title>
<g id="a_node14"><a xlink:title="Write from table to file loan_summaries.parquet">
<polygon fill="#ffffff" stroke="#000000" points="536.429,-236.1 536.429,-324.1 1199.269,-324.1 1199.269,-236.1 536.429,-236.1"/>
<text text-anchor="middle" x="867.849" y="-302.1" font-family="Helvetica,sans-Serif" font-size="20.00" fill="#000000">06_write_file_loan_summaries_calculated</text>
<polyline fill="none" stroke="#000000" points="536.429,-292.1 1199.269,-292.1 "/>
<text text-anchor="middle" x="867.849" y="-270.1" font-family="Helvetica,sans-Serif" font-size="20.00" fill="#000000">creates file:</text>
<text text-anchor="middle" x="867.849" y="-246.1" font-family="Helvetica,sans-Serif" font-size="20.00" fill="#000000">/tmp/capi_out/fannie_mae_quicktest/loan_summaries_calculated.parquet</text>
</a>
</g>
</g>
<!-- loan_summaries_calculated&#45;&gt;06_write_file_loan_summaries_calculated -->
<g id="edge16" class="edge">
<title>loan_summaries_calculated-&gt;06_write_file_loan_summaries_calculated</title>
<path fill="none" stroke="#000000" d="M849.6584,-398.6692C849.3131,-392.4709 849.0178,-386.1771 848.8256,-380.2 848.5171,-370.605 847.6871,-368.1322 848.8256,-358.6 849.7833,-350.5817 851.2727,-342.1987 853.0062,-334.0207"/>
<polygon fill="#000000" stroke="#000000" points="856.4385,-334.7102 855.2224,-324.1854 849.6097,-333.1714 856.4385,-334.7102"/>
<text text-anchor="middle" x="1024.3607" y="-364" font-family="Helvetica,sans-Serif" font-size="18.00" fill="#000000">loan_summaries_calculated (no parallelism)</text>
</g>
<!-- /tmp/capi_in/fannie_mae_quicktest/CAS_2023_R01_G1_000.parquet -->
<g id="node7" class="node">
<title>/tmp/capi_in/fannie_mae_quicktest/CAS_2023_R01_G1_000.parquet</title>
<g id="a_node7"><a xlink:title="Source data file(s)">
<polygon fill="none" stroke="#000000" points="889.3952,-1119.4 886.3952,-1123.4 865.3952,-1123.4 862.3952,-1119.4 260.3028,-1119.4 260.3028,-1063.4 889.3952,-1063.4 889.3952,-1119.4"/>
<text text-anchor="middle" x="574.849" y="-1097.4" font-family="Helvetica,sans-Serif" font-size="20.00" fill="#000000">/tmp/capi_in/fannie_mae_quicktest/CAS_2023_R01_G1_000.parquet</text>
<text text-anchor="middle" x="574.849" y="-1073.4" font-family="Helvetica,sans-Serif" font-size="20.00" fill="#000000">/tmp/capi_in/fannie_mae_quicktest/CAS_2023_R02_G1_000.parquet</text>
</a>
</g>
</g>
<!-- payments -->
<g id="node8" class="node">
<title>payments</title>
<g id="a_node8"><a xlink:title="Read source files to a table">
<polygon fill="#ffffff" stroke="#000000" stroke-width="6" points="481.263,-937.9 481.263,-1025.9 668.435,-1025.9 668.435,-937.9 481.263,-937.9"/>
<text text-anchor="middle" x="574.849" y="-1003.9" font-family="Helvetica,sans-Serif" font-size="20.00" fill="#000000">01_read_payments</text>
<polyline fill="none" stroke="#000000" stroke-width="6" points="481.263,-993.9 668.435,-993.9 "/>
<text text-anchor="middle" x="574.849" y="-971.9" font-family="Helvetica,sans-Serif" font-size="20.00" fill="#000000">creates table:</text>
<text text-anchor="middle" x="574.849" y="-947.9" font-family="Helvetica,sans-Serif" font-size="20.00" fill="#000000">payments</text>
</a>
</g>
</g>
<!-- /tmp/capi_in/fannie_mae_quicktest/CAS_2023_R01_G1_000.parquet&#45;&gt;payments -->
<g id="edge5" class="edge">
<title>/tmp/capi_in/fannie_mae_quicktest/CAS_2023_R01_G1_000.parquet-&gt;payments</title>
<path fill="none" stroke="#000000" stroke-dasharray="1,5" d="M574.849,-1063.201C574.849,-1054.9177 574.849,-1045.5646 574.849,-1036.2278"/>
<polygon fill="#000000" stroke="#000000" points="578.3491,-1036.1542 574.849,-1026.1543 571.3491,-1036.1543 578.3491,-1036.1542"/>
</g>
<!-- loan_summaries -->
<g id="node9" class="node">
<title>loan_summaries</title>
<g id="a_node9"><a xlink:title="For each loan, merge all payments into single json string">
<polygon fill="#ffffff" stroke="#000000" points="754.834,-612.7 754.834,-732.7 950.864,-732.7 950.864,-612.7 754.834,-612.7"/>
<text text-anchor="middle" x="852.849" y="-710.7" font-family="Helvetica,sans-Serif" font-size="20.00" fill="#000000">03_loan_summaries</text>
<polyline fill="none" stroke="#000000" points="754.834,-700.7 950.864,-700.7 "/>
<text text-anchor="middle" x="852.849" y="-678.7" font-family="Helvetica,sans-Serif" font-size="20.00" fill="#000000">creates table:</text>
<text text-anchor="middle" x="852.849" y="-654.7" font-family="Helvetica,sans-Serif" font-size="20.00" fill="#000000">loan_summaries</text>
<polyline fill="none" stroke="#000000" points="754.834,-644.7 950.864,-644.7 "/>
<text text-anchor="middle" x="852.849" y="-622.7" font-family="Helvetica,sans-Serif" font-size="20.00" fill="#000000">group:true, join:left</text>
</a>
</g>
</g>
<!-- payments&#45;&gt;loan_summaries -->
<g id="edge15" class="edge">
<title>payments-&gt;loan_summaries</title>
<path fill="none" stroke="#000000" stroke-dasharray="5,2" d="M557.762,-937.6968C544.7909,-896.1714 533.6523,-834.108 562.7796,-790.8 603.2601,-730.6116 680.319,-701.0821 744.8419,-686.6026"/>
<polygon fill="#000000" stroke="#000000" points="745.6317,-690.0128 754.6729,-684.4896 744.1607,-683.1691 745.6317,-690.0128"/>
<text text-anchor="middle" x="701.8837" y="-829.9" font-family="Helvetica,sans-Serif" font-size="18.00" fill="#000000">idx_payments_by_loan_id (lookup)</text>
</g>
<!-- loan_ids -->
<g id="node10" class="node">
<title>loan_ids</title>
<g id="a_node10"><a xlink:title="Select distinct loan ids">
<polygon fill="#ffffff" stroke="#000000" points="858.831,-791.3 858.831,-879.3 994.867,-879.3 994.867,-791.3 858.831,-791.3"/>
<text text-anchor="middle" x="926.849" y="-857.3" font-family="Helvetica,sans-Serif" font-size="20.00" fill="#000000">02_loan_ids</text>
<polyline fill="none" stroke="#000000" points="858.831,-847.3 994.867,-847.3 "/>
<text text-anchor="middle" x="926.849" y="-825.3" font-family="Helvetica,sans-Serif" font-size="20.00" fill="#000000">creates table:</text>
<text text-anchor="middle" x="926.849" y="-801.3" font-family="Helvetica,sans-Serif" font-size="20.00" fill="#000000">loan_ids</text>
</a>
</g>
</g>
<!-- payments&#45;&gt;loan_ids -->
<g id="edge13" class="edge">
<title>payments-&gt;loan_ids</title>
<path fill="none" stroke="#000000" d="M668.4888,-946.2533C717.4488,-927.2243 778.1973,-902.9984 831.849,-879.8 837.5537,-877.3334 843.4256,-874.7336 849.3187,-872.0801"/>
<polygon fill="#000000" stroke="#000000" points="850.9172,-875.1982 858.5758,-867.8773 848.0234,-868.8243 850.9172,-875.1982"/>
<text text-anchor="middle" x="875.3727" y="-903.2" font-family="Helvetica,sans-Serif" font-size="18.00" fill="#000000">payments (10 batches)</text>
</g>
<!-- loan_summaries&#45;&gt;loan_summaries_calculated -->
<g id="edge6" class="edge">
<title>loan_summaries-&gt;loan_summaries_calculated</title>
<path fill="none" stroke="#000000" d="M852.849,-612.5706C852.849,-576.8667 852.849,-531.946 852.849,-497.267"/>
<polygon fill="#000000" stroke="#000000" points="856.3491,-496.8549 852.849,-486.8549 849.3491,-496.8549 856.3491,-496.8549"/>
<text text-anchor="middle" x="971.3673" y="-544.3" font-family="Helvetica,sans-Serif" font-size="18.00" fill="#000000">loan_summaries (10 batches)</text>
</g>
<!-- loan_ids&#45;&gt;deal_names -->
<g id="edge7" class="edge">
<title>loan_ids-&gt;deal_names</title>
<path fill="none" stroke="#000000" d="M858.7721,-800.5327C849.8673,-796.8437 840.7453,-793.4709 831.849,-790.8 778.9133,-774.9075 757.3668,-799.1848 708.8014,-772.8 635.8557,-733.1697 577.1445,-655.1181 543.6239,-602.664"/>
<polygon fill="#000000" stroke="#000000" points="546.5535,-600.7479 538.2617,-594.1527 540.6308,-604.4792 546.5535,-600.7479"/>
<text text-anchor="middle" x="794.8728" y="-756.6" font-family="Helvetica,sans-Serif" font-size="18.00" fill="#000000">loan_ids (10 batches)</text>
</g>
<!-- loan_ids&#45;&gt;loan_summaries -->
<g id="edge14" class="edge">
<title>loan_ids-&gt;loan_summaries</title>
<path fill="none" stroke="#000000" d="M906.8235,-791.2981C899.9255,-776.141 892.0225,-758.7757 884.4305,-742.094"/>
<polygon fill="#000000" stroke="#000000" points="887.5811,-740.567 880.2531,-732.915 881.2098,-743.4666 887.5811,-740.567"/>
<text text-anchor="middle" x="982.8728" y="-756.6" font-family="Helvetica,sans-Serif" font-size="18.00" fill="#000000">loan_ids (10 batches)</text>
</g>
<!-- deal_sellers -->
<g id="node11" class="node">
<title>deal_sellers</title>
<g id="a_node11"><a xlink:title="Select distinct sellers">
<polygon fill="#ffffff" stroke="#000000" points="1408.832,-505.7 1408.832,-593.7 1564.866,-593.7 1564.866,-505.7 1408.832,-505.7"/>
<text text-anchor="middle" x="1486.849" y="-571.7" font-family="Helvetica,sans-Serif" font-size="20.00" fill="#000000">03_deal_sellers</text>
<polyline fill="none" stroke="#000000" points="1408.832,-561.7 1564.866,-561.7 "/>
<text text-anchor="middle" x="1486.849" y="-539.7" font-family="Helvetica,sans-Serif" font-size="20.00" fill="#000000">creates table:</text>
<text text-anchor="middle" x="1486.849" y="-515.7" font-family="Helvetica,sans-Serif" font-size="20.00" fill="#000000">deal_sellers</text>
</a>
</g>
</g>
<!-- loan_ids&#45;&gt;deal_sellers -->
<g id="edge8" class="edge">
<title>loan_ids-&gt;deal_sellers</title>
<path fill="none" stroke="#000000" d="M995.1788,-808.8227C1021.3146,-798.2265 1051.2271,-785.5255 1077.849,-772.8 1192.7929,-717.8558 1321.1253,-646.0655 1402.8573,-598.959"/>
<polygon fill="#000000" stroke="#000000" points="1404.6925,-601.941 1411.603,-593.9101 1401.1927,-595.8787 1404.6925,-601.941"/>
<text text-anchor="middle" x="1203.8728" y="-756.6" font-family="Helvetica,sans-Serif" font-size="18.00" fill="#000000">loan_ids (10 batches)</text>
</g>
<!-- deal_sellers&#45;&gt;deal_seller_summaries -->
<g id="edge9" class="edge">
<title>deal_sellers-&gt;deal_seller_summaries</title>
<path fill="none" stroke="#000000" d="M1565.1566,-528.4768C1635.0869,-504.9051 1733.2942,-459.3172 1778.849,-380.2 1784.6811,-370.0712 1784.773,-359.5938 1781.3533,-349.4029"/>
<polygon fill="#000000" stroke="#000000" points="1784.513,-347.8931 1777.2895,-340.1426 1778.1031,-350.7061 1784.513,-347.8931"/>
<text text-anchor="middle" x="1864.3691" y="-437.3" font-family="Helvetica,sans-Serif" font-size="18.00" fill="#000000">deal_sellers (10 batches)</text>
</g>
<!-- /tmp/capi_out/fannie_mae_quicktest/deal_summaries.parquet -->
<g id="node13" class="node">
<title>/tmp/capi_out/fannie_mae_quicktest/deal_summaries.parquet</title>
<g id="a_node13"><a xlink:title="Target data file(s)">
<polygon fill="none" stroke="#000000" points="555.5471,-36 .1509,-36 .1509,0 561.5471,0 561.5471,-30 555.5471,-36"/>
<polyline fill="none" stroke="#000000" points="555.5471,-36 555.5471,-30 "/>
<polyline fill="none" stroke="#000000" points="561.5471,-30 555.5471,-30 "/>
<text text-anchor="middle" x="280.849" y="-12" font-family="Helvetica,sans-Serif" font-size="20.00" fill="#000000">/tmp/capi_out/fannie_mae_quicktest/deal_summaries.parquet</text>
</a>
</g>
</g>
<!-- 06_write_file_deal_summaries&#45;&gt;/tmp/capi_out/fannie_mae_quicktest/deal_summaries.parquet -->
<g id="edge12" class="edge">
<title>06_write_file_deal_summaries-&gt;/tmp/capi_out/fannie_mae_quicktest/deal_summaries.parquet</title>
<path fill="none" stroke="#000000" stroke-dasharray="1,5" d="M280.849,-73.2784C280.849,-64.082 280.849,-54.6304 280.849,-46.2016"/>
<polygon fill="#000000" stroke="#000000" points="284.3491,-46.1684 280.849,-36.1685 277.3491,-46.1685 284.3491,-46.1684"/>
</g>
<!-- /tmp/capi_out/fannie_mae_quicktest/loan_summaries_calculated.parquet -->
<g id="node15" class="node">
<title>/tmp/capi_out/fannie_mae_quicktest/loan_summaries_calculated.parquet</title>
<g id="a_node15"><a xlink:title="Target data file(s)">
<polygon fill="none" stroke="#000000" points="1254.189,-135.5 597.509,-135.5 597.509,-99.5 1260.189,-99.5 1260.189,-129.5 1254.189,-135.5"/>
<polyline fill="none" stroke="#000000" points="1254.189,-135.5 1254.189,-129.5 "/>
<polyline fill="none" stroke="#000000" points="1260.189,-129.5 1254.189,-129.5 "/>
<text text-anchor="middle" x="928.849" y="-111.5" font-family="Helvetica,sans-Serif" font-size="20.00" fill="#000000">/tmp/capi_out/fannie_mae_quicktest/loan_summaries_calculated.parquet</text>
</a>
</g>
</g>
<!-- 06_write_file_loan_summaries_calculated&#45;&gt;/tmp/capi_out/fannie_mae_quicktest/loan_summaries_calculated.parquet -->
<g id="edge17" class="edge">
<title>06_write_file_loan_summaries_calculated-&gt;/tmp/capi_out/fannie_mae_quicktest/loan_summaries_calculated.parquet</title>
<path fill="none" stroke="#000000" stroke-dasharray="1,5" d="M884.3565,-236.0981C895.2104,-207.1661 909.0828,-170.1883 918.4285,-145.2766"/>
<polygon fill="#000000" stroke="#000000" points="921.7783,-146.3117 922.0139,-135.7195 915.2243,-143.8529 921.7783,-146.3117"/>
</g>
</g>
</svg>