<svg xmlns="http://www.w3.org/2000/svg"
	xmlns:xlink="http://www.w3.org/1999/xlink" viewBox="0 0 1610 2100">
	<style>
		.small { font: 40px verdana; alignment-baseline:hanging; }
		.extra-small { font: 35px verdana; alignment-baseline:hanging; }
		.large { font: 80px verdana; alignment-baseline:hanging; }
		.small-bold { font: 40px verdana; font-weight:bold; alignment-baseline:hanging; }
		.small-italic { font: 40px verdana; font-style:italic; alignment-baseline:hanging; }
		.small-sans { font: 44px monospace; alignment-baseline:hanging; }
		.small-condensed { font: 42px arial; font-stretch:condensed; alignment-baseline:hanging; }
	</style>
	<defs>
		<g id="dio-ec2" transform="scale(3.6666) translate(-2.35,-1.35)" style="visibility: visible; pointer-events: none;">
			<path d="M 2.35 1.35 L 29.65 1.35 L 29.65 28.65 L 2.35 28.65 Z" fill="#ed7100" stroke="none" style="fill: light-dark(rgb(237, 113, 0), rgb(216, 109, 12)); pointer-events: none;"></path>
			<path d="M 10.93 20.07 L 20.68 20.07 L 20.68 10.32 L 10.93 10.32 Z M 21.46 10.32 L 23.02 10.32 L 23.02 11.1 L 21.46 11.1 L 21.46 12.66 L 23.02 12.66 L 23.02 13.44 L 21.46 13.44 L 21.46 14.61 L 23.02 14.61 L 23.02 15.39 L 21.46 15.39 L 21.46 16.95 L 23.02 16.95 L 23.02 17.73 L 21.46 17.73 L 21.46 19.29 L 23.02 19.29 L 23.02 20.07 L 21.46 20.07 L 21.46 20.12 C 21.46 20.52 21.13 20.85 20.73 20.85 L 20.68 20.85 L 20.68 22.41 L 19.9 22.41 L 19.9 20.85 L 18.34 20.85 L 18.34 22.41 L 17.56 22.41 L 17.56 20.85 L 16.39 20.85 L 16.39 22.41 L 15.61 22.41 L 15.61 20.85 L 14.05 20.85 L 14.05 22.41 L 13.27 22.41 L 13.27 20.85 L 11.71 20.85 L 11.71 22.41 L 10.93 22.41 L 10.93 20.85 L 10.88 20.85 C 10.48 20.85 10.15 20.52 10.15 20.12 L 10.15 20.07 L 8.98 20.07 L 8.98 19.29 L 10.15 19.29 L 10.15 17.73 L 8.98 17.73 L 8.98 16.95 L 10.15 16.95 L 10.15 15.39 L 8.98 15.39 L 8.98 14.61 L 10.15 14.61 L 10.15 13.44 L 8.98 13.44 L 8.98 12.66 L 10.15 12.66 L 10.15 11.1 L 8.98 11.1 L 8.98 10.32 L 10.15 10.32 L 10.15 10.27 C 10.15 9.87 10.48 9.54 10.88 9.54 L 10.93 9.54 L 10.93 7.98 L 11.71 7.98 L 11.71 9.54 L 13.27 9.54 L 13.27 7.98 L 14.05 7.98 L 14.05 9.54 L 15.61 9.54 L 15.61 7.98 L 16.39 7.98 L 16.39 9.54 L 17.56 9.54 L 17.56 7.98 L 18.34 7.98 L 18.34 9.54 L 19.9 9.54 L 19.9 7.98 L 20.68 7.98 L 20.68 9.54 L 20.73 9.54 C 21.13 9.54 21.46 9.87 21.46 10.27 Z M 16.39 25.09 C 16.39 25.12 16.37 25.14 16.34 25.14 L 5.91 25.14 C 5.88 25.14 5.86 25.12 5.86 25.09 L 5.86 14.66 C 5.86 14.63 5.88 14.61 5.91 14.61 L 8.2 14.61 L 8.2 13.83 L 5.91 13.83 C 5.45 13.83 5.08 14.2 5.08 14.66 L 5.08 25.09 C 5.08 25.55 5.45 25.92 5.91 25.92 L 16.34 25.92 C 16.8 25.92 17.17 25.55 17.17 25.09 L 17.17 23.19 L 16.39 23.19 Z M 26.92 4.91 L 26.92 15.34 C 26.92 15.8 26.55 16.17 26.09 16.17 L 23.8 16.17 L 23.8 15.39 L 26.09 15.39 C 26.12 15.39 26.14 15.37 26.14 15.34 L 26.14 4.91 C 26.14 4.88 26.12 4.86 26.09 4.86 L 15.66 4.86 C 15.63 4.86 15.61 4.88 15.61 4.91 L 15.61 7.2 L 14.83 7.2 L 14.83 4.91 C 14.83 4.45 15.2 4.08 15.66 4.08 L 26.09 4.08 C 26.55 4.08 26.92 4.45 26.92 4.91 Z" fill="#ffffff" stroke="none" style="fill: light-dark(rgb(255, 255, 255), rgb(18, 18, 18)); pointer-events: none;"></path>
		</g>
		<g id="dio-keyspaces" transform="scale(3.6666) translate(-2.35,-1.35)" style="visibility: visible; pointer-events: none;">
			<path d="M 2.35 1.35 L 29.65 1.35 L 29.65 28.65 L 2.35 28.65 Z" fill="#c925d1" stroke="none" style="fill: light-dark(rgb(201, 37, 209), rgb(255, 124, 255)); pointer-events: none;"></path>
			<path d="M 26.36 10.75 L 25.17 11.03 L 26.1 12.08 C 26.03 12.22 25.94 12.33 25.82 12.41 C 25.7 12.5 25.57 12.55 25.43 12.57 L 24.7 11.32 L 23.97 12.57 C 23.83 12.55 23.7 12.5 23.58 12.41 C 23.46 12.33 23.37 12.22 23.3 12.08 L 24.23 11.03 L 23.04 10.75 C 23.03 10.68 23.02 10.63 23.02 10.58 C 23.02 10.35 23.11 10.14 23.29 9.96 L 24.41 10.51 L 24.27 9.18 C 24.4 9.11 24.55 9.08 24.7 9.08 C 24.86 9.08 25 9.11 25.14 9.18 L 24.99 10.51 L 26.11 9.96 C 26.29 10.14 26.38 10.35 26.38 10.58 C 26.38 10.63 26.37 10.68 26.36 10.75 Z M 20.77 19.36 C 21.33 19.36 21.95 19.25 22.62 19.03 L 22.62 19.74 C 22 20.02 21.36 20.16 20.73 20.16 C 19.55 20.16 18.66 19.83 18.05 19.16 C 17.45 18.48 17.14 17.49 17.14 16.19 C 17.14 14.89 17.45 13.9 18.07 13.22 C 18.69 12.54 19.58 12.2 20.76 12.2 C 21.38 12.2 21.98 12.32 22.53 12.56 L 22.53 13.27 C 21.98 13.09 21.4 13 20.8 13 C 19.84 13 19.15 13.25 18.72 13.74 C 18.29 14.23 18.07 15.01 18.07 16.1 L 18.07 16.28 C 18.07 17.33 18.29 18.11 18.72 18.61 C 19.16 19.11 19.84 19.36 20.77 19.36 Z M 12.65 4.82 C 16.64 4.82 19.32 5.97 19.32 7.04 C 19.32 8.11 16.64 9.26 12.65 9.26 C 8.71 9.26 6.36 8.13 6.36 7.04 C 6.36 5.95 8.71 4.82 12.65 4.82 Z M 19.32 22.96 C 19.32 24.03 16.64 25.18 12.65 25.18 C 9.56 25.18 6.36 24.35 6.36 22.96 L 6.36 19.21 C 7.46 20.16 9.72 20.74 12.65 20.74 C 14.17 20.74 15.61 20.58 16.82 20.27 L 16.63 19.55 C 15.49 19.84 14.11 20 12.65 20 C 9.56 20 6.36 19.17 6.36 17.79 L 6.36 14 C 7.47 14.96 9.75 15.56 12.65 15.56 C 14.17 15.56 15.61 15.39 16.82 15.09 L 16.63 14.37 C 15.48 14.66 14.11 14.81 12.65 14.81 C 8.71 14.81 6.36 13.69 6.36 12.59 L 6.36 8.45 C 7.47 9.4 9.75 10 12.65 10 C 15.34 10 18.05 9.46 19.32 8.41 L 19.32 9.63 L 20.06 9.63 L 20.06 7.04 C 20.06 5.1 16.33 4.08 12.65 4.08 C 8.51 4.08 5.62 5.3 5.62 7.04 L 5.62 22.96 C 5.62 24.73 8.45 25.92 12.65 25.92 C 16.33 25.92 20.06 24.9 20.06 22.96 L 20.06 22.22 L 19.32 22.22 Z" fill="#ffffff" stroke="none" style="fill: light-dark(rgb(255, 255, 255), rgb(18, 18, 18)); pointer-events: none;"></path>
		</g>
		<g id="dio-s3" transform="scale(3.6666) translate(-2.35,-1.35)" style="visibility: visible; pointer-events: none;">
			<path d="M 2.35 1.35 L 29.65 1.35 L 29.65 28.65 L 2.35 28.65 Z" fill="#7aa116" stroke="none" style="fill: light-dark(rgb(122, 161, 22), rgb(97, 130, 11)); pointer-events: none;"></path>
			<path d="M 24.15 16.13 L 24.3 15.07 C 25.68 15.9 25.7 16.24 25.7 16.25 C 25.69 16.25 25.46 16.45 24.15 16.13 Z M 23.39 15.92 C 21 15.2 17.68 13.67 16.34 13.03 C 16.34 13.03 16.34 13.02 16.34 13.02 C 16.34 12.5 15.92 12.08 15.4 12.08 C 14.88 12.08 14.46 12.5 14.46 13.02 C 14.46 13.54 14.88 13.96 15.4 13.96 C 15.63 13.96 15.83 13.87 15.99 13.74 C 17.58 14.49 20.88 15.99 23.28 16.7 L 22.33 23.41 C 22.33 23.43 22.33 23.45 22.33 23.46 C 22.33 24.05 19.71 25.14 15.44 25.14 C 11.12 25.14 8.47 24.05 8.47 23.46 C 8.47 23.45 8.47 23.43 8.47 23.41 L 6.48 8.9 C 8.2 10.08 11.9 10.71 15.44 10.71 C 18.97 10.71 22.66 10.09 24.38 8.91 Z M 6.27 7.39 C 6.3 6.87 9.25 4.86 15.44 4.86 C 21.62 4.86 24.57 6.87 24.6 7.39 L 24.6 7.56 C 24.26 8.71 20.44 9.93 15.44 9.93 C 10.43 9.93 6.6 8.71 6.27 7.56 Z M 25.38 7.4 C 25.38 6.04 21.51 4.08 15.44 4.08 C 9.37 4.08 5.49 6.04 5.49 7.4 L 5.53 7.69 L 7.69 23.49 C 7.74 25.26 12.46 25.92 15.44 25.92 C 19.13 25.92 23.05 25.07 23.1 23.49 L 24.04 16.9 C 24.56 17.03 24.99 17.09 25.33 17.09 C 25.79 17.09 26.1 16.98 26.29 16.75 C 26.45 16.57 26.51 16.35 26.46 16.11 C 26.36 15.57 25.72 14.99 24.42 14.24 L 25.34 7.7 Z" fill="#ffffff" stroke="none" style="fill: light-dark(rgb(255, 255, 255), rgb(18, 18, 18)); pointer-events: none;"></path>
		</g>
		<g id="dio-mq" transform="scale(3.6666) translate(-2.35,-1.35)" style="visibility: visible; pointer-events: none;">
			<path d="M 2.35 1.35 L 29.65 1.35 L 29.65 28.65 L 2.35 28.65 Z" fill="#e7157b" stroke="none" style="fill: light-dark(rgb(231, 21, 123), rgb(255, 129, 217)); pointer-events: none;"></path>
			<path d="M 7.61 19.78 C 7.21 19.09 6.89 18.35 6.67 17.58 L 7.47 17.36 C 7.66 18.06 7.95 18.74 8.32 19.37 Z M 7.47 12.64 L 6.67 12.42 C 6.89 11.66 7.19 10.94 7.58 10.26 L 8.3 10.67 C 7.94 11.29 7.66 11.95 7.47 12.64 Z M 12.25 7.1 L 11.92 6.35 C 13.14 5.8 14.44 5.52 15.79 5.52 C 17.14 5.52 18.45 5.8 19.67 6.35 L 19.33 7.1 C 18.22 6.6 17.03 6.35 15.79 6.35 C 14.56 6.35 13.37 6.6 12.25 7.1 Z M 24 10.26 C 24.4 10.94 24.7 11.66 24.91 12.42 L 24.12 12.64 C 23.93 11.95 23.65 11.29 23.29 10.67 Z M 24.12 17.36 L 24.91 17.58 C 24.7 18.34 24.4 19.06 24 19.74 L 23.29 19.33 C 23.65 18.71 23.93 18.05 24.12 17.36 Z M 19.33 22.9 L 19.67 23.65 C 18.45 24.2 17.14 24.48 15.79 24.48 C 14.44 24.48 13.14 24.2 11.92 23.65 L 12.25 22.9 C 13.37 23.4 14.56 23.65 15.79 23.65 C 17.03 23.65 18.22 23.4 19.33 22.9 Z M 9.61 22.83 C 8.93 22.83 8.38 22.28 8.38 21.59 C 8.38 20.91 8.93 20.36 9.61 20.36 C 10.29 20.36 10.85 20.91 10.85 21.59 C 10.85 22.28 10.29 22.83 9.61 22.83 Z M 9.61 19.53 C 8.48 19.53 7.55 20.46 7.55 21.59 C 7.55 22.73 8.48 23.65 9.61 23.65 C 10.75 23.65 11.67 22.73 11.67 21.59 C 11.67 20.46 10.75 19.53 9.61 19.53 Z M 21.98 22.83 C 21.29 22.83 20.74 22.28 20.74 21.59 C 20.74 20.91 21.29 20.36 21.98 20.36 C 22.66 20.36 23.21 20.91 23.21 21.59 C 23.21 22.28 22.66 22.83 21.98 22.83 Z M 21.98 19.53 C 20.84 19.53 19.91 20.46 19.91 21.59 C 19.91 22.73 20.84 23.65 21.98 23.65 C 23.11 23.65 24.04 22.73 24.04 21.59 C 24.04 20.46 23.11 19.53 21.98 19.53 Z M 5.9 15 C 5.9 14.32 6.46 13.76 7.14 13.76 C 7.82 13.76 8.38 14.32 8.38 15 C 8.38 15.68 7.82 16.24 7.14 16.24 C 6.46 16.24 5.9 15.68 5.9 15 Z M 9.16 15.41 L 11.09 15.41 L 10.56 15.94 L 11.14 16.53 L 12.38 15.3 C 12.45 15.22 12.5 15.12 12.5 15.01 C 12.5 14.9 12.45 14.79 12.38 14.72 L 11.14 13.47 L 10.56 14.05 L 11.09 14.59 L 9.16 14.59 C 8.97 13.65 8.14 12.94 7.14 12.94 C 6 12.94 5.08 13.86 5.08 15 C 5.08 16.14 6 17.06 7.14 17.06 C 8.14 17.06 8.97 16.35 9.16 15.41 Z M 24.86 16.24 C 24.18 16.24 23.62 15.68 23.62 15 C 23.62 14.32 24.18 13.76 24.86 13.76 C 25.54 13.76 26.1 14.32 26.1 15 C 26.1 15.68 25.54 16.24 24.86 16.24 Z M 24.86 12.94 C 23.72 12.94 22.8 13.86 22.8 15 C 22.8 16.14 23.72 17.06 24.86 17.06 C 26 17.06 26.92 16.14 26.92 15 C 26.92 13.86 26 12.94 24.86 12.94 Z M 9.61 7.17 C 10.29 7.17 10.85 7.73 10.85 8.41 C 10.85 9.09 10.29 9.64 9.61 9.64 C 8.93 9.64 8.38 9.09 8.38 8.41 C 8.38 7.73 8.93 7.17 9.61 7.17 Z M 9.61 10.47 C 10.75 10.47 11.67 9.54 11.67 8.41 C 11.67 7.27 10.75 6.35 9.61 6.35 C 8.48 6.35 7.55 7.27 7.55 8.41 C 7.55 9.54 8.48 10.47 9.61 10.47 Z M 21.98 7.17 C 22.66 7.17 23.21 7.73 23.21 8.41 C 23.21 9.09 22.66 9.64 21.98 9.64 C 21.29 9.64 20.74 9.09 20.74 8.41 C 20.74 7.73 21.29 7.17 21.98 7.17 Z M 21.98 10.47 C 23.11 10.47 24.04 9.54 24.04 8.41 C 24.04 7.27 23.11 6.35 21.98 6.35 C 20.84 6.35 19.91 7.27 19.91 8.41 C 19.91 9.54 20.84 10.47 21.98 10.47 Z M 20.08 15.91 L 20.74 15.41 L 19.09 15.41 L 19.09 14.59 L 20.74 14.59 L 20.08 14.09 L 20.57 13.43 L 22.22 14.67 C 22.33 14.75 22.39 14.87 22.39 15 C 22.39 15.13 22.33 15.25 22.22 15.33 L 20.57 16.57 Z M 18.21 17.42 C 17.47 17.13 16.63 16.99 15.79 16.99 C 14.96 16.99 14.12 17.13 13.38 17.42 C 13.66 16.7 13.81 15.87 13.81 15 C 13.81 14.13 13.66 13.3 13.38 12.58 C 14.86 13.16 16.72 13.16 18.21 12.58 C 17.93 13.3 17.78 14.13 17.78 15 C 17.78 15.87 17.93 16.7 18.21 17.42 Z M 19.79 18.42 C 19.05 17.67 18.6 16.39 18.6 15 C 18.6 13.61 19.05 12.33 19.79 11.58 C 19.87 11.5 19.91 11.4 19.91 11.29 C 19.91 11.19 19.87 11.08 19.79 11 C 19.63 10.84 19.37 10.84 19.21 11 C 17.61 12.6 13.97 12.6 12.38 11 C 12.22 10.84 11.96 10.84 11.79 11 C 11.71 11.08 11.67 11.19 11.67 11.29 C 11.67 11.4 11.71 11.5 11.79 11.58 C 12.54 12.33 12.99 13.61 12.99 15 C 12.99 16.39 12.54 17.67 11.79 18.42 C 11.71 18.5 11.67 18.6 11.67 18.71 C 11.67 18.81 11.71 18.92 11.79 19 C 11.96 19.16 12.22 19.16 12.38 19 C 13.97 17.4 17.61 17.4 19.21 19 C 19.29 19.08 19.4 19.12 19.5 19.12 C 19.61 19.12 19.71 19.08 19.79 19 C 19.87 18.92 19.91 18.81 19.91 18.71 C 19.91 18.6 19.87 18.5 19.79 18.42 Z" fill="#ffffff" stroke="none" style="fill: light-dark(rgb(255, 255, 255), rgb(18, 18, 18)); pointer-events: none;"></path>
		</g>
		<g id="dio-vpc" transform="scale(3.6666) translate(-2.35,-1.35)" style="visibility: visible; pointer-events: none;">
			<path d="M 2.35 1.35 L 29.65 1.35 L 29.65 28.65 L 2.35 28.65 Z" fill="#8c4fff" stroke="none" style="fill: light-dark(rgb(140, 79, 255), rgb(177, 125, 255)); pointer-events: none;"></path>
			<path d="M 24.13 15.93 L 21.99 15.07 L 21.99 22.82 C 22.61 22.76 23.12 22.56 23.47 22.19 C 24.13 21.52 24.13 20.54 24.13 20.53 Z M 21.21 22.83 L 21.21 15.07 L 19.07 15.93 L 19.07 20.52 C 19.08 20.6 19.16 22.6 21.21 22.83 Z M 24.9 20.52 C 24.9 20.56 24.92 21.82 24.03 22.73 C 23.45 23.33 22.63 23.63 21.6 23.63 C 19.04 23.63 18.32 21.6 18.3 20.53 L 18.3 15.66 C 18.3 15.5 18.39 15.36 18.54 15.3 L 21.46 14.13 C 21.55 14.1 21.65 14.1 21.74 14.13 L 24.66 15.3 C 24.81 15.36 24.9 15.5 24.9 15.66 Z M 26.07 19.76 L 26.07 14.56 L 21.6 12.78 L 17.13 14.56 L 17.13 19.74 C 17.13 19.78 17.08 22.16 18.5 23.63 C 19.25 24.4 20.3 24.8 21.6 24.8 C 22.91 24.8 23.96 24.4 24.71 23.62 C 26.13 22.15 26.07 19.78 26.07 19.76 Z M 25.27 24.16 C 24.37 25.1 23.13 25.57 21.6 25.57 C 20.08 25.57 18.84 25.1 17.94 24.17 C 16.29 22.46 16.35 19.84 16.35 19.73 L 16.35 14.3 C 16.35 14.14 16.45 14 16.6 13.94 L 21.46 12 C 21.55 11.96 21.65 11.96 21.74 12 L 26.6 13.94 C 26.75 14 26.85 14.14 26.85 14.3 L 26.85 19.74 C 26.85 19.84 26.92 22.46 25.27 24.16 Z M 9.38 18.19 L 15.19 18.19 L 15.19 18.97 L 9.38 18.97 C 7.01 18.97 5.21 17.39 5.09 15.22 C 5.08 15.13 5.08 15.03 5.08 14.93 C 5.08 12.26 6.95 11.27 8.04 10.93 C 8.03 10.8 8.02 10.68 8.02 10.55 C 8.02 8.43 9.54 6.21 11.54 5.39 C 13.89 4.43 16.38 4.89 18.18 6.64 C 18.78 7.23 19.25 7.86 19.58 8.55 C 20.05 8.15 20.62 7.94 21.22 7.94 C 22.51 7.94 23.87 8.94 24.1 10.88 C 24.95 11.09 26.01 11.54 26.76 12.51 L 26.15 12.99 C 25.46 12.1 24.41 11.73 23.66 11.57 C 23.49 11.54 23.36 11.39 23.35 11.21 C 23.25 9.5 22.18 8.71 21.22 8.71 C 20.65 8.71 20.15 8.98 19.76 9.49 C 19.68 9.6 19.54 9.66 19.4 9.64 C 19.26 9.62 19.14 9.52 19.09 9.39 C 18.79 8.58 18.32 7.86 17.64 7.19 C 16.06 5.67 13.89 5.27 11.84 6.11 C 10.11 6.82 8.8 8.73 8.8 10.55 C 8.8 10.76 8.81 10.97 8.84 11.17 C 8.86 11.36 8.74 11.54 8.55 11.59 C 7.54 11.84 5.86 12.6 5.86 14.93 C 5.86 15 5.86 15.08 5.86 15.16 C 5.96 16.92 7.44 18.19 9.38 18.19 Z" fill="#ffffff" stroke="none" style="fill: light-dark(rgb(255, 255, 255), rgb(18, 18, 18)); pointer-events: none;"></path>
		</g>
		<g id="dio-privatesubnet" transform="scale(19.0663) translate(-2.35,-1.35)" style="visibility: visible; pointer-events: none;">
			<path d="M 2.35 1.35 L 7.6 1.35 L 7.6 6.6 L 2.35 6.6 Z M 4.98 2.03 C 4.74 2.02 4.52 2.11 4.34 2.27 C 4.17 2.42 4.07 2.64 4.07 2.87 L 4.07 3.4 L 3.59 3.4 C 3.57 3.4 3.55 3.41 3.53 3.43 C 3.52 3.44 3.51 3.46 3.51 3.48 L 3.51 5.85 C 3.51 5.89 3.55 5.93 3.59 5.93 L 6.36 5.93 C 6.4 5.93 6.44 5.89 6.44 5.85 L 6.44 3.48 C 6.44 3.46 6.43 3.44 6.42 3.43 C 6.4 3.41 6.38 3.41 6.36 3.41 L 5.88 3.41 L 5.88 2.88 C 5.88 2.65 5.78 2.44 5.62 2.28 C 5.45 2.12 5.22 2.03 4.98 2.03 Z M 4.98 2.18 C 5.18 2.17 5.37 2.25 5.51 2.39 C 5.65 2.51 5.73 2.69 5.73 2.88 L 5.73 3.41 L 4.21 3.41 L 4.22 2.87 C 4.22 2.69 4.3 2.51 4.44 2.38 C 4.59 2.25 4.78 2.17 4.98 2.18 Z M 3.66 3.55 L 6.29 3.55 L 6.29 5.78 L 3.66 5.78 Z M 4.98 4.03 C 4.76 4.02 4.58 4.19 4.56 4.4 C 4.54 4.62 4.69 4.81 4.9 4.85 L 4.9 5.43 L 5.05 5.43 L 5.05 4.85 C 5.25 4.81 5.39 4.64 5.39 4.44 C 5.39 4.21 5.21 4.03 4.98 4.03 Z M 4.95 4.18 C 4.96 4.18 4.97 4.18 4.98 4.18 C 5.05 4.18 5.11 4.2 5.16 4.25 C 5.21 4.3 5.24 4.37 5.24 4.44 C 5.24 4.51 5.21 4.58 5.16 4.63 C 5.11 4.68 5.05 4.71 4.98 4.71 C 4.88 4.71 4.79 4.67 4.73 4.59 C 4.68 4.51 4.67 4.4 4.72 4.32 C 4.77 4.23 4.85 4.18 4.95 4.18 Z" fill="#00a4a6" stroke="none" style="fill: light-dark(rgb(0, 164, 166), rgb(15, 156, 158)); pointer-events: none;"></path>
		</g>
		<g id="dio-publicsubnet" transform="scale(19.0663) translate(-2.35,-1.35)" style="visibility: visible; pointer-events: none;">
			<path d="M 2.35 1.35 L 7.6 1.35 L 7.6 6.6 L 2.35 6.6 Z M 4.98 2.03 C 4.74 2.02 4.52 2.11 4.34 2.27 C 4.17 2.42 4.07 2.64 4.07 2.87 L 4.07 3.4 L 3.59 3.4 C 3.57 3.4 3.55 3.41 3.53 3.43 C 3.52 3.44 3.51 3.46 3.51 3.48 L 3.51 5.85 C 3.51 5.89 3.55 5.93 3.59 5.93 L 6.36 5.93 C 6.4 5.93 6.44 5.89 6.44 5.85 L 6.44 3.48 C 6.44 3.46 6.43 3.44 6.42 3.43 C 6.4 3.41 6.38 3.41 6.36 3.41 L 5.88 3.41 L 5.88 2.88 C 5.88 2.65 5.78 2.44 5.62 2.28 C 5.45 2.12 5.22 2.03 4.98 2.03 Z M 4.98 2.18 C 5.18 2.17 5.37 2.25 5.51 2.39 C 5.65 2.51 5.73 2.69 5.73 2.88 L 5.73 3.41 L 4.21 3.41 L 4.22 2.87 C 4.22 2.69 4.3 2.51 4.44 2.38 C 4.59 2.25 4.78 2.17 4.98 2.18 Z M 3.66 3.55 L 6.29 3.55 L 6.29 5.78 L 3.66 5.78 Z M 4.98 4.03 C 4.76 4.02 4.58 4.19 4.56 4.4 C 4.54 4.62 4.69 4.81 4.9 4.85 L 4.9 5.43 L 5.05 5.43 L 5.05 4.85 C 5.25 4.81 5.39 4.64 5.39 4.44 C 5.39 4.21 5.21 4.03 4.98 4.03 Z M 4.95 4.18 C 4.96 4.18 4.97 4.18 4.98 4.18 C 5.05 4.18 5.11 4.2 5.16 4.25 C 5.21 4.3 5.24 4.37 5.24 4.44 C 5.24 4.51 5.21 4.58 5.16 4.63 C 5.11 4.68 5.05 4.71 4.98 4.71 C 4.88 4.71 4.79 4.67 4.73 4.59 C 4.68 4.51 4.67 4.4 4.72 4.32 C 4.77 4.23 4.85 4.18 4.95 4.18 Z" fill="#7aa116" stroke="none" style="fill: light-dark(rgb(122, 161, 22), rgb(97, 130, 11)); pointer-events: none;"></path>
		</g>
		<g id="dio-user" transform="scale(1.8333) translate(-2.35,-1.35)" style="visibility: visible; pointer-events: none;">
			<path d="M 4.85 27.41 C 5.16 21.26 10.04 16.35 16 16.35 C 18.02 16.35 19.99 16.92 21.71 17.99 C 24.91 19.98 26.95 23.55 27.15 27.41 Z M 9.91 8.72 C 9.91 5.34 12.64 2.59 16 2.59 C 19.36 2.59 22.08 5.34 22.08 8.72 C 22.08 12.1 19.36 14.85 16 14.85 C 12.64 14.85 9.91 12.1 9.91 8.72 Z M 22.37 16.94 C 21.29 16.27 20.13 15.78 18.91 15.48 C 21.51 14.34 23.33 11.74 23.33 8.72 C 23.33 4.66 20.04 1.35 16 1.35 C 11.96 1.35 8.67 4.66 8.67 8.72 C 8.67 11.75 10.5 14.35 13.09 15.48 C 7.65 16.85 3.59 21.95 3.59 28.03 C 3.59 28.37 3.87 28.65 4.21 28.65 L 27.79 28.65 C 28.13 28.65 28.41 28.37 28.41 28.03 C 28.41 23.51 26.09 19.26 22.37 16.94 Z" fill="#232f3d" stroke="none" style="fill: light-dark(rgb(35, 47, 61), rgb(190, 200, 212)); pointer-events: none;"></path>
		</g>
		<g id="dio-instance" transform="scale(19.0663) translate(-2.35,-1.35)" style="visibility: visible; pointer-events: none;">
			<path d="M 2.35 1.35 L 29.65 1.35 L 29.65 28.65 L 2.35 28.65 Z" fill="none" stroke="white" stroke-width="9.3" stroke-miterlimit="10" style="stroke: light-dark(rgb(216, 102, 19), rgb(216, 118, 46)); pointer-events: none;" visibility="hidden"></path>
			<path d="M 2.35 1.35 L 7.6 1.35 L 7.6 6.6 L 2.35 6.6 Z M 6.78 3.11 L 6.78 2.96 L 6.42 2.96 L 6.42 2.53 L 5.97 2.53 L 5.97 2.18 L 5.82 2.18 L 5.82 2.53 L 5.5 2.53 L 5.5 2.18 L 5.35 2.18 L 5.35 2.53 L 5.03 2.53 L 5.03 2.18 L 4.88 2.18 L 4.88 2.53 L 4.56 2.53 L 4.56 2.18 L 4.41 2.18 L 4.41 2.53 L 4.09 2.53 L 4.09 2.18 L 3.94 2.18 L 3.94 2.53 L 3.53 2.53 L 3.53 2.96 L 3.18 2.96 L 3.18 3.11 L 3.53 3.11 L 3.53 3.43 L 3.18 3.43 L 3.18 3.58 L 3.53 3.58 L 3.53 3.9 L 3.18 3.9 L 3.18 4.05 L 3.53 4.05 L 3.53 4.37 L 3.18 4.37 L 3.18 4.52 L 3.53 4.52 L 3.53 4.84 L 3.18 4.84 L 3.18 4.99 L 3.53 4.99 L 3.53 5.42 L 3.94 5.42 L 3.94 5.78 L 4.09 5.78 L 4.09 5.42 L 4.41 5.42 L 4.41 5.78 L 4.56 5.78 L 4.56 5.42 L 4.88 5.42 L 4.88 5.78 L 5.03 5.78 L 5.03 5.42 L 5.35 5.42 L 5.35 5.78 L 5.5 5.78 L 5.5 5.42 L 5.82 5.42 L 5.82 5.78 L 5.97 5.78 L 5.97 5.42 L 6.42 5.42 L 6.42 4.99 L 6.78 4.99 L 6.78 4.84 L 6.42 4.84 L 6.42 4.52 L 6.78 4.52 L 6.78 4.37 L 6.42 4.37 L 6.42 4.05 L 6.78 4.05 L 6.78 3.9 L 6.42 3.9 L 6.42 3.58 L 6.78 3.58 L 6.78 3.43 L 6.42 3.43 L 6.42 3.11 Z M 6.27 5.27 L 3.68 5.27 L 3.68 2.68 L 6.27 2.68 Z" fill="#d86613" stroke="none" style="fill: light-dark(rgb(216, 102, 19), rgb(216, 118, 46)); pointer-events: none;"></path>
		</g>
		<g id="dio-elasticip" transform="scale(3.3) translate(-1,0)" style="visibility: visible; pointer-events: none;">
			<path d="M 7.8 16.49 C 7.32 17.89 6.03 18.67 4.75 18.67 C 2.85 18.67 1.47 17.18 1.47 15.58 L 1.47 14.39 C 1.47 12.81 2.94 11.34 4.67 11.34 C 6.15 11.34 7.37 12.24 7.8 13.52 L 20.99 13.52 L 20.99 11.01 L 30.54 14.48 L 30.54 15.51 L 20.99 18.99 L 20.99 16.49 Z" fill="#f58534" stroke="none" style="fill: light-dark(rgb(245, 133, 52), rgb(189, 92, 23)); pointer-events: none;"></path>
			<path d="M 20.99 17.96 L 30.54 14.48 L 30.54 15.51 L 20.99 18.99 Z M 20.99 16.49 L 7.8 16.49 C 7.32 17.88 6.02 18.67 4.75 18.67 C 2.85 18.67 1.47 17.18 1.47 15.58 L 1.47 14.39 C 1.47 16.38 3.05 17.63 4.75 17.63 C 6.17 17.63 7.38 16.68 7.79 15.45 L 20.99 15.45 Z" fill-opacity="0.3" fill="#000000" stroke="none" style="fill: light-dark(rgb(0, 0, 0), rgb(237, 237, 237)); pointer-events: none;"></path>
		</g>
		<g id="icon-prometheus" transform="scale(0.20) translate(-180,0)">
			<path d="m 295.4265,-0.667 c -60.59678,0 -109.72415,49.120811 -109.72415,109.72415 0,60.60334 49.12737,109.72415 109.72415,109.72415 60.59678,0 109.72415,-49.12737 109.72415,-109.72415 C 405.15065,48.460376 356.02328,-0.667 295.4265,-0.667 Z m 0,205.35939 c -17.24021,0 -31.21752,-11.51536 -31.21752,-25.72245 h 62.43504 c 0,14.20053 -13.98388,25.72245 -31.21752,25.72245 z m 51.56306,-34.23751 H 243.85031 v -18.71081 h 103.0736 v 18.71081 z m -0.36765,-28.32883 H 244.1523 l -1.0176,-1.18173 c -10.55684,-12.82183 -13.04505,-19.51177 -15.45448,-26.32645 -0.0394,-0.22321 12.80214,2.62608 21.90807,4.67443 a 276.9857,276.9857 0 0 0 11.53505,2.33064 c -6.57833,-7.70754 -10.48462,-17.50938 -10.48462,-27.527874 0,-21.993413 16.87256,-41.216312 10.78005,-56.74957 5.92181,0.479259 12.25723,12.500137 12.68397,31.296298 6.30259,-8.698887 8.92867,-24.593231 8.92867,-34.335985 0,-10.090709 6.65054,-21.809587 13.29452,-22.210064 -5.92837,9.769014 1.53626,18.146207 8.16711,38.918493 2.49477,7.812585 2.16651,20.942981 4.09012,29.261087 0.63682,-17.299297 3.61086,-42.542483 14.58787,-51.247935 -4.83855,10.963881 0.72217,24.70484 4.51685,31.302864 6.1319,10.648751 9.8478,18.710814 9.8478,33.981464 0,10.241712 -3.77499,19.866292 -10.1498,27.396572 7.24798,-1.359 12.25066,-2.58669 12.25066,-2.58669 l 23.52967,-4.59564 c 0,0 -3.4139,14.04953 -16.55743,27.60009 z" fill="#da4e31" style="stroke-width:6.5652" />
		</g>
		<g id="icon-rabbitmq" transform="scale(0.4) translate(0,0)">
			<path fill="#FF6600" d="M93.5,39H62.3c-2.1,0-3.9-1.7-3.9-3.9c0,0,0,0,0,0V3.9c0-2.1-1.7-3.9-3.9-3.9c0,0,0,0,0,0H42.8   c-2.1,0-3.9,1.7-3.9,3.9c0,0,0,0,0,0v31.2c0,2.1-1.7,3.9-3.9,3.9c0,0,0,0,0,0H23.4c-2.1,0-3.9-1.7-3.9-3.9c0,0,0,0,0,0V3.9   c0-2.1-1.7-3.9-3.9-3.9c0,0,0,0,0,0H3.9C1.7,0,0,1.7,0,3.9c0,0,0,0,0,0v89.6c0,2.1,1.7,3.9,3.9,3.9c0,0,0,0,0,0h89.6   c2.1,0,3.9-1.7,3.9-3.9c0,0,0,0,0,0V42.9c0.1-2.1-1.6-3.9-3.8-4C93.6,39,93.5,39,93.5,39z M77.8,72c0,3.2-2.6,5.8-5.8,5.9   c0,0,0,0,0,0h-7.8c-3.2,0-5.8-2.6-5.8-5.8c0,0,0,0,0,0v-7.8c0-3.2,2.6-5.8,5.8-5.9c0,0,0,0,0,0H72c3.2,0,5.8,2.6,5.8,5.8   c0,0,0,0,0,0V72z"></path>
		</g>
		<g id="icon-nginx" transform="scale(0.675) translate(5,0)">
			<style>.cls-1{fill:#009639;}.cls-2{fill:#fff;}.cls-3{fill:#999;}</style>
			<path class="cls-1" d="M.50272,54.721a3.637,3.637,0,0,0,1.36641,1.35593L29.82192,72.21549l.00087-.00087a3.66793,3.66793,0,0,0,3.71529,0L61.49175,56.07606a3.66568,3.66568,0,0,0,1.85677-3.21619V20.58275l-.00087-.00087A3.66685,3.66685,0,0,0,61.49,17.36481L33.53634,1.22625V1.22538a3.66313,3.66313,0,0,0-3.71268,0v.00087L1.87087,17.36481A3.6653,3.6653,0,0,0,.01235,20.58188l-.00087.00087V52.85987A3.64426,3.64426,0,0,0,.50185,54.721" />
			<path class="cls-2" d="M22.73015,49.008a3.59488,3.59488,0,0,1-7.18976,0l.00088.00088.00349-24.67727c0-1.91174,1.68924-3.49279,4.08175-3.49279a6.39282,6.39282,0,0,1,4.90021,2.191L25.613,24.32989,40.63124,42.30253V24.432H40.6295a3.59488,3.59488,0,0,1,7.18975,0h-.00087l-.00349,24.67552c0,1.91175-1.69011,3.49279-4.08175,3.49279a6.38857,6.38857,0,0,1-4.90021-2.191L22.7284,31.13659V49.0089Z" />
		</g>
		<g id="icon-json">
			<g transform="scale(0.193,0.193) translate(11,3)">
				<path fill-rule="nonzero" d="M117.91 0h201.68c3.93 0 7.44 1.83 9.72 4.67l114.28 123.67c2.21 2.37 3.27 5.4 3.27 8.41l.06 310c0 35.43-29.4 64.81-64.8 64.81H117.91c-35.57 0-64.81-29.24-64.81-64.81V64.8C53.1 29.13 82.23 0 117.91 0zM325.5 37.15v52.94c2.4 31.34 23.57 42.99 52.93 43.5l36.16-.04-89.09-96.4zm96.5 121.3l-43.77-.04c-42.59-.68-74.12-21.97-77.54-66.54l-.09-66.95H117.91c-21.93 0-39.89 17.96-39.89 39.88v381.95c0 21.82 18.07 39.89 39.89 39.89h264.21c21.71 0 39.88-18.15 39.88-39.89v-288.3z" />
			</g>
			<g transform="scale(0.193,0.193) translate(60,40)">
				<path fill="#000000" fill-rule="nonzero" d="M59.822 401.571l-2.62 -20.965 10.875 0c2.708,0 4.434,-0.37 5.177,-1.113 0.743,-0.743 1.113,-1.682 1.113,-2.817l0 -36.034 -10.875 0 0 -20.965 37.08 0 0 60.274c0,7.076 -1.746,12.449 -5.24,16.116 -3.494,3.67 -8.516,5.504 -15.069,5.504l-20.441 0zm50.577 -1.441l3.669 -21.62c8.037,2.009 15.264,3.013 21.686,3.013 6.42,0 11.595,-0.262 15.525,-0.786l0 -6.551 -11.791 -1.049c-10.657,-0.961 -17.974,-3.515 -21.948,-7.664 -3.975,-4.149 -5.962,-10.286 -5.962,-18.411 0,-11.181 2.424,-18.867 7.272,-23.06 4.85,-4.194 13.081,-6.29 24.699,-6.29 11.618,0 22.101,1.092 31.448,3.275l-3.275 20.965c-8.124,-1.31 -14.633,-1.965 -19.525,-1.965 -4.891,0 -9.04,0.218 -12.448,0.655l0 6.42 9.434 0.919c11.443,1.134 19.349,3.864 23.716,8.188 4.369,4.325 6.553,10.33 6.553,18.017 0,5.504 -0.743,10.154 -2.228,13.954 -1.484,3.8 -3.254,6.684 -5.307,8.649 -2.054,1.965 -4.956,3.472 -8.713,4.521 -3.755,1.047 -7.054,1.68 -9.893,1.899 -2.839,0.218 -6.617,0.328 -11.333,0.328 -11.357,0 -21.884,-1.135 -31.579,-3.407zm76.914 -39.439c0,-14.939 2.796,-25.836 8.386,-32.692 5.591,-6.858 15.681,-10.287 30.268,-10.287 14.588,0 24.677,3.429 30.267,10.287 5.592,6.856 8.387,17.753 8.387,32.692 0,7.424 -0.591,13.671 -1.77,18.736 -1.178,5.067 -3.209,9.477 -6.093,13.234 -2.881,3.757 -6.857,6.508 -11.922,8.255 -5.067,1.747 -11.357,2.621 -18.869,2.621 -7.512,0 -13.802,-0.874 -18.869,-2.621 -5.065,-1.747 -9.04,-4.498 -11.924,-8.255 -2.881,-3.757 -4.913,-8.167 -6.093,-13.234 -1.177,-5.065 -1.768,-11.312 -1.768,-18.736zm28.171 -13.629l0 34.069 10.877 0c3.579,0 6.179,-0.415 7.795,-1.246 1.616,-0.828 2.425,-2.73 2.425,-5.699l0 -34.069 -11.008 0c-3.494,0 -6.047,0.416 -7.664,1.246 -1.616,0.829 -2.425,2.73 -2.425,5.699zm108.362 54.509l-20.048 -29.089c-0.698,-0.961 -1.135,-3.057 -1.31,-6.29l-0.525 0 0 35.379 -26.205 0 0 -81.894 24.634 0 20.049 29.089c0.697,0.961 1.134,3.057 1.31,6.29l0.522 0 0 -35.379 26.208 0 0 81.894 -24.635 0z" />
			</g>
			<g transform="scale(0.193,0.193) translate(30,40)">
				<path fill="#000000" fill-rule="nonzero" d="M231.822 132.778c1.2-5.152 6.352-8.357 11.505-7.158 5.153 1.2 8.357 6.352 7.158 11.505l-20.773 88.972c-1.199 5.153-6.352 8.358-11.504 7.158-5.153-1.199-8.358-6.352-7.158-11.505l20.772-88.972zm-32.519 71.317c3.972 3.477 4.377 9.521.9 13.493-3.478 3.973-9.521 4.377-13.494.9l-36.354-31.854c-3.972-3.477-4.377-9.521-.9-13.493.295-.336.606-.644.933-.927l36.321-31.826c3.973-3.478 10.016-3.073 13.494.899 3.477 3.973 3.072 10.016-.9 13.494l-28.14 24.656 28.14 24.658zm77.99 14.393c-3.972 3.477-10.016 3.073-13.493-.9-3.478-3.972-3.073-10.016.899-13.493l28.14-24.658-28.14-24.656c-3.972-3.478-4.377-9.521-.899-13.494 3.477-3.972 9.521-4.377 13.493-.899l36.318 31.826c.328.283.639.591.933.927 3.477 3.972 3.073 10.016-.899 13.493l-36.352 31.854z" />
			</g>
		</g>
		<g id="icon-capillaries">
			<g transform="scale(0.048) translate(25,20)">
				<g opacity="0">
					<g id="vert_curve">
						<path d="M 0,-10 Q 50,250 0,500 T 0,1010" style="stroke-width:60;" />
					</g>
					<g id="short_diag">
						<path d="M 26,250 Q 10,375 125,500 T 225,750" style="stroke-width:55;" />
					</g>
				</g>
				<rect x="0" y="0" width="1000" height="1000" stroke-width="0" fill="white" />
				<g style="fill: none; stroke:black" transform="scale(1.5,1) translate(-166,0)">
					<use x="250" y="0" xlink:href="#vert_curve" />
					<use x="500" y="0" xlink:href="#vert_curve" />
					<use x="750" y="0" xlink:href="#vert_curve" />
					<use x="500" y="0" xlink:href="#short_diag" />
					<use x="250" y="0" xlink:href="#short_diag" />
				</g>
			</g>
		</g>
		<g id="icon-csv">
			<g transform="scale(0.193,0.193) translate(11,3)">
				<path fill-rule="nonzero" d="M117.91 0h201.68c3.93 0 7.44 1.83 9.72 4.67l114.28 123.67c2.21 2.37 3.27 5.4 3.27 8.41l.06 310c0 35.43-29.4 64.81-64.8 64.81H117.91c-35.57 0-64.81-29.24-64.81-64.81V64.8C53.1 29.13 82.23 0 117.91 0zM325.5 37.15v52.94c2.4 31.34 23.57 42.99 52.93 43.5l36.16-.04-89.09-96.4zm96.5 121.3l-43.77-.04c-42.59-.68-74.12-21.97-77.54-66.54l-.09-66.95H117.91c-21.93 0-39.89 17.96-39.89 39.88v381.95c0 21.82 18.07 39.89 39.89 39.89h264.21c21.71 0 39.88-18.15 39.88-39.89v-288.3z" />
			</g>
			<g transform="scale(0.04) translate(1100,800)">
				<path d="M43.039 465.486c109.455-30.366 180.7-93.86 198.415-204.36 4.817-30.057-1.914-7.349-22.297 7.903C152.602 318.821 21.754 301.2 3.603 187.448-32.944-13.929 218.853-48.799 293.385 62.422c17.331 25.863 28.816 56.028 32.946 89.175 17.96 144.128-55.9 272.5-185.664 332.795-24.003 11.151-49.297 19.883-76.528 26.29-13.633 2.757-23.542-4.661-28.1-17.214-3.875-10.705-5.195-22.517 7-27.982z" />
			</g>

			<g transform="scale(0.25) translate(12,70)">
				<path fill-rule="nonzero" d="M133.97 242.65l1.98 22.2c-5.54 2.29-12.5 3.44-20.87 3.44-8.37 0-15.09-.88-20.16-2.65-5.06-1.76-9.05-4.53-11.95-8.32-2.91-3.79-4.94-8.24-6.08-13.35-1.15-5.11-1.72-11.4-1.72-18.89s.57-13.81 1.72-18.96c1.14-5.16 3.17-9.63 6.08-13.42 5.63-7.31 15.99-10.96 31.05-10.96 3.35 0 7.29.33 11.82.99 4.54.66 7.91 1.47 10.11 2.44l-3.96 20.22c-5.73-1.23-10.97-1.85-15.72-1.85-4.76 0-8.07.44-9.92 1.32-1.84.88-2.77 2.64-2.77 5.29v34.62c3.43.7 6.91 1.05 10.44 1.05 7.49 0 14.14-1.05 19.95-3.17zm11.9 22.2l3.69-21.8c8.11 2.03 15.4 3.04 21.87 3.04 6.48 0 11.7-.27 15.66-.79v-6.61l-11.89-1.06c-10.75-.97-18.13-3.54-22.13-7.73-4.01-4.18-6.02-10.37-6.02-18.56 0-11.28 2.45-19.03 7.34-23.26s13.19-6.34 24.91-6.34 22.28 1.1 31.71 3.3l-3.3 21.14c-8.19-1.32-14.76-1.98-19.69-1.98-4.93 0-9.12.22-12.56.66v6.48l9.52.92c11.54 1.15 19.51 3.9 23.92 8.26 4.4 4.36 6.6 10.42 6.6 18.17 0 5.55-.74 10.24-2.24 14.07-1.5 3.83-3.28 6.74-5.35 8.72-2.07 1.99-5 3.5-8.79 4.56-3.79 1.06-7.11 1.7-9.98 1.92-2.86.22-6.67.33-11.43.33-11.45 0-22.07-1.15-31.84-3.44zm128.57-81.13h27.88l-20.48 82.59h-38.59l-20.48-82.59h27.88l11.24 52.46h1.19l11.36-52.46z" />
			</g>
		</g>
		<g id="icon-parquet" transform="scale(0.193,0.193) translate(11,3)">
			<path fill-rule="nonzero" d="M117.91 0h201.68c3.93 0 7.44 1.83 9.72 4.67l114.28 123.67c2.21 2.37 3.27 5.4 3.27 8.41l.06 310c0 35.43-29.4 64.81-64.8 64.81H117.91c-35.57 0-64.81-29.24-64.81-64.81V64.8C53.1 29.13 82.23 0 117.91 0zM325.5 37.15v52.94c2.4 31.34 23.57 42.99 52.93 43.5l36.16-.04-89.09-96.4zm96.5 121.3l-43.77-.04c-42.59-.68-74.12-21.97-77.54-66.54l-.09-66.95H117.91c-21.93 0-39.89 17.96-39.89 39.88v381.95c0 21.82 18.07 39.89 39.89 39.89h264.21c21.71 0 39.88-18.15 39.88-39.89v-288.3z" />
			<g transform="scale(5,5) translate(18,45)">
				<path class="b" d="M29,47.3c-2.5-2.7-2.6-2.8-2.1-3.3,.7-.8,31.4-28.9,31.8-29.1,.4-.2,4.1,1.6,5,2.4,.3,.3-2.1,2.9-15.5,16.5-8.7,8.9-16,16.2-16.2,16.2-.2,0-1.5-1.2-3-2.7h0Z" />
				<path class="b" d="M22.1,40.1c-1.4-1.4-2.2-2.4-2.1-2.7,.2-.4,17.8-14.7,18.1-14.6,.4,0,4.6,3.2,4.6,3.5s-17.7,16.1-18.1,16.1-1.2-1-2.5-2.3h0Z" />
				<path class="b" d="M15.7,33.6c-1.1-1.2-1.7-2.2-1.6-2.3,.7-.7,8.4-6,8.7-6,.4,0,4.1,3.2,4.1,3.5s-8.3,6.8-8.9,6.8-1.3-.9-2.3-2.1Z" />
				<path class="b" d="M10.4,28.2c-1.5-1.5-1.7-1.8-1.4-2.2,.5-.5,24.9-16.2,25.4-16.4,.4-.1,3.8,1.9,3.8,2.3S13.2,29.7,12.6,29.8c-.2,0-1.2-.6-2.2-1.7h0Z" />
				<path class="b" d="M26.7,25.7c-1-.8-1.8-1.7-1.8-1.8,0-.2,.9-.9,2-1.7,1.1-.8,5.9-4.2,10.8-7.7,4.8-3.5,9-6.3,9.2-6.3,.7,0,3.9,1.9,3.8,2.2-.2,.5-21.3,16.8-21.7,16.8-.2,0-1.2-.7-2.2-1.5h0Z" />
				<path class="b" d="M5.5,23.2c-1.2-1.3-1.4-1.6-1.1-1.9,.3-.2,15.4-9.2,17.2-10.2,.3-.2,3.5,2.1,3.4,2.5-.1,.4-17.2,11.1-17.7,11.1-.2,0-1.1-.7-1.9-1.5h0Z" />
				<path class="b" d="M42,23.3c-1.1-.8-2.1-1.6-2.1-1.7,0-.2,9.9-8.5,12.2-10.1,.4-.3,.8-.2,2.7,.8,1.2,.6,2.2,1.3,2.2,1.4,0,.4-11.9,10.9-12.5,11-.3,0-1.4-.6-2.5-1.4h0Z" />
				<path class="b" d="M1.5,18.9l-1.5-1.5,.6-.4c.4-.2,7.5-4.2,16-8.7L32,0l1.5,.7c.8,.4,1.5,.9,1.5,1S3.4,20.4,3,20.4s-.7-.7-1.5-1.5h0Z" />
				<path class="b" d="M25,11.5c-.7-.5-1.3-1.1-1.3-1.3,0-.2,2.9-2,6.4-4.1l6.4-3.8,1.6,.9c.9,.5,1.6,1,1.6,1.1,0,.3-12.5,8.2-13,8.1-.2,0-1-.4-1.7-1h0Z" />
				<path class="b" d="M37.8,9.9c-.9-.5-1.6-1.1-1.6-1.3,0-.3,4.4-3.2,5.1-3.4,.3,0,3.3,1.5,3.5,1.8,0,.1,0,.4-.3,.6-.9,.8-4.5,3.2-4.8,3.2-.2,0-1-.4-1.9-1h0Z" />
			</g>
		</g>

		<!-- Arrow heads -->

		<g id="arrow_head_up">
			<path d="M3,23 L25,3 L47,23" stroke-width="5" stroke="#000000" stroke-linecap="round" stroke-linejoin="round" fill="transparent"/>
		</g>
		<g id="arrow_head_down">
			<path d="M3,3 L25,23 L47,3" stroke-width="5" stroke="#000000" stroke-linecap="round" stroke-linejoin="round" fill="transparent"/>
		</g>
		<g id="arrow_head_right">
			<path d="M3,3 L23,25 L3,47" stroke-width="5" stroke="#000000" stroke-linecap="round" stroke-linejoin="round" fill="transparent"/>
		</g>
		<g id="arrow_head_left">
			<path d="M23,3 L3,25 L23,47" stroke-width="5" stroke="#000000" stroke-linecap="round" stroke-linejoin="round" fill="transparent"/>
		</g>

		<!-- Arrow 75 -->

		<g id="arrow_up_75">
			<!--<rect x="0" y="0" width="50" height="75" fill="red" stroke-width="0"/>-->
			<use x="0" y="0" xlink:href="#arrow_head_up"></use>
			<path d="M25,3 L25,72" stroke-width="5" stroke="#000000" stroke-linecap="round"/>
		</g>
		<g id="arrow_down_75">
			<!--<rect x="0" y="0" width="50" height="75" fill="green" stroke-width="0"/>-->
			<path d="M25,3 L25,72" stroke-width="5" stroke="#000000" stroke-linecap="round"/>
			<use x="0" y="49" xlink:href="#arrow_head_down"></use>
		</g>
		<g id="arrow_up_down_75">
			<use x="0" y="0" xlink:href="#arrow_up_75"></use>
			<use x="50" y="0" xlink:href="#arrow_down_75"></use>
		</g>

		<g id="arrow_right_75">
			<!--<rect x="0" y="0" width="75" height="50" fill="green" stroke-width="0"/>-->-->
			<path d="M3,25 L72,25" stroke-width="5" stroke="#000000" stroke-linecap="round"/>
			<use x="49" y="0" xlink:href="#arrow_head_right"></use>
		</g>
		<g id="arrow_left_75">
			<!--<rect x="0" y="0" width="75" height="50" fill="red" stroke-width="0"/>-->
			<path d="M3,25 L72,25" stroke-width="5" stroke="#000000" stroke-linecap="round"/>
			<use x="0" y="0" xlink:href="#arrow_head_left"></use>
		</g>

		<!-- Arrow 225 -->

		<g id="arrow_up_225">
			<!--<rect x="0" y="0" width="50" height="225" fill="red" stroke-width="0"/>-->
			<use x="0" y="0" xlink:href="#arrow_head_up"></use>
			<path d="M25,3 L25,222" stroke-width="5" stroke="#000000" stroke-linecap="round"/>
		</g>
		<g id="arrow_down_225">
			<!--<rect x="0" y="0" width="50" height="225" fill="green" stroke-width="0"/>-->
			<path d="M25,3 L25,219" stroke-width="5" stroke="#000000" stroke-linecap="round"/>
			<use x="0" y="199" xlink:href="#arrow_head_down"></use>
		</g>
		<g id="arrow_up_down_125">
			<use x="0" y="0" xlink:href="#arrow_up_225"></use>
			<use x="50" y="0" xlink:href="#arrow_down_225"></use>
		</g>

		<g id="instances">
			<rect x="60" y="60" width="550" height="300" stroke="#d86613" stroke-width="2" fill="#fff"/>
			<rect x="30" y="30" width="550" height="300" stroke="#d86613" stroke-width="2" fill="#fff"/>
			<rect x="0" y="0" width="550" height="300" stroke="#d86613" stroke-width="2" fill="#fff"/>
			<use x="0" y="0" transform="scale(0.5)" xlink:href="#dio-instance" />
			<text x="60" y="10" class="extra-small" fill="#d86613">EC2 Daemon instances</text>
			<use x="50" y="150" xlink:href="#icon-capillaries" />
			<text x="110" y="155" class="small">Capillaries Daemon</text>
		</g>
		<g id="private_subnet">
			<rect x="0" y="0" width="670" height="980" stroke-width="0" fill="#e6f6f7" />
			<use x="0" y="0" transform="scale(0.5)" xlink:href="#dio-privatesubnet" />
			<text x="70" y="10" class="extra-small" fill="#00a4a6">Private subnet</text>
			<use x="30" y="70" xlink:href="#cassandra" />
			<use x="300" y="500" xlink:href="#arrow_up_down_75" />
			<use x="30" y="600" xlink:href="#instances" />
		</g>

		<g id="db_inter" transform="scale(1,1) translate(0,0)">
			<path fill-rule="evenodd" d="M16.49,24.88C24.05,27.41,34.57,29,46.26,29S68.48,27.41,76,24.88c6.63-2.22,10.73-4.9,10.73-7.52S82.67,12.06,76,9.84C68.48,7.33,58,5.75,46.27,5.75S24.06,7.33,16.49,9.84c-14.06,4.7-14.46,10.21,0,15ZM64.91,55.34h48.73a9.27,9.27,0,0,1,9.24,9.24v42.58a9.27,9.27,0,0,1-9.24,9.25H64.91a9.27,9.27,0,0,1-9.24-9.25V64.58a9.27,9.27,0,0,1,9.24-9.24ZM91.09,99.18H118v12H91.09v-12Zm-30.89,0H87.13v12H60.2v-12Zm0-31.89H87.13v12H60.2v-12Zm0,15.94H87.13v12H60.2v-12ZM91.09,67.29H118v12H91.09v-12Zm0,15.94H118v12H91.09v-12ZM5.82,45.77c.52,2.45,4.5,4.91,10.68,7,7.22,2.42,17.16,3.95,28.24,4.08v5.77c-11.67-.13-22.25-1.78-30.05-4.39A35.86,35.86,0,0,1,5.84,54V71.27c.52,2.45,4.5,4.91,10.68,7,7.22,2.4,17.15,3.94,28.22,4.07v5.75c-11.67-.14-22.25-1.78-30.05-4.4A36.08,36.08,0,0,1,5.83,79.5V96.75c.52,2.45,4.51,4.91,10.68,7,7.22,2.41,17.16,4,28.23,4.08v5.75c-11.67-.13-22.24-1.78-30-4.4C10.4,107.72,0,103,0,97.38V95.55C0,69.86,0,43.06,0,17.41c0-5.43,5.61-10,14.66-13C22.82,1.68,34,0,46.27,0S69.7,1.68,77.87,4.41s13.64,6.78,14.55,11.53a3,3,0,0,1,.16,1v28.6H86.8V26.09a36.69,36.69,0,0,1-8.93,4.22c-8.15,2.75-19.31,4.41-31.58,4.41S22.83,33,14.66,30.31A36.26,36.26,0,0,1,5.8,26.14V45.77Z"></path>
		</g>
		<g id="db_wf" transform="scale(1,1) translate(0,0)">
			<path fill-rule="evenodd" d="M95.7,65.5c15.01,0,27.18,12.17,27.18,27.18c0,15.01-12.17,27.18-27.18,27.18 c-15.01,0-27.18-12.17-27.18-27.18C68.52,77.67,80.69,65.5,95.7,65.5L95.7,65.5z M95.96,86.85c3.24,0,5.86,2.63,5.86,5.86 s-2.63,5.86-5.86,5.86s-5.86-2.63-5.86-5.86S92.72,86.85,95.96,86.85L95.96,86.85z M106.25,79.94l2.32,2.32 c0.61,0.61,0.61,1.61,0,2.22l-1.87,1.87c0.52,0.97,0.91,2.02,1.16,3.09h2.42c0.87,0,1.57,0.71,1.57,1.57v3.28 c0,0.86-0.71,1.57-1.57,1.57h-2.64c-0.32,1.06-0.78,2.07-1.37,3l1.71,1.71c0.61,0.61,0.61,1.61,0,2.22l-2.32,2.32 c-0.61,0.61-1.61,0.61-2.22,0l-1.87-1.87c-0.97,0.52-2.02,0.92-3.09,1.16v2.42c0,0.86-0.71,1.57-1.57,1.57l-3.28,0 c-0.86,0-1.57-0.71-1.57-1.57v-2.64c-1.06-0.32-2.07-0.78-3-1.37l-1.71,1.71c-0.61,0.61-1.61,0.61-2.22,0l-2.32-2.32 c-0.61-0.61-0.61-1.61,0-2.22l1.87-1.87c-0.52-0.97-0.91-2.02-1.16-3.09l-2.42,0c-0.86,0-1.57-0.71-1.57-1.57v-3.28 c0-0.86,0.71-1.57,1.57-1.57h2.64c0.32-1.06,0.78-2.07,1.37-3.01l-1.71-1.71c-0.61-0.61-0.61-1.61,0-2.22l2.32-2.32 c0.61-0.61,1.61-0.61,2.22,0l1.87,1.87c0.96-0.52,2-0.91,3.09-1.16v-2.42c0-0.86,0.71-1.57,1.57-1.57h3.28 c0.86,0,1.57,0.71,1.57,1.57v2.64c1.06,0.32,2.07,0.78,3.01,1.37l1.71-1.71C104.64,79.33,105.64,79.33,106.25,79.94L106.25,79.94 L106.25,79.94z M17.69,26.67c8.1,2.71,19.38,4.38,31.91,4.38c12.53,0,23.81-1.67,31.91-4.38c7.11-2.37,11.51-5.25,11.51-8.06 c0-2.81-4.4-5.69-11.51-8.06c-8.1-2.7-19.38-4.38-31.91-4.38c-12.53,0-23.81,1.67-31.91,4.38C2.6,15.59,2.18,21.5,17.69,26.67 L17.69,26.67z M6.24,47.86c0.56,2.62,4.83,5.26,11.45,7.47c8.1,2.71,19.38,4.38,31.91,4.38s23.81-1.67,31.91-4.38 c7.11-2.37,11.51-5.25,11.51-8.06h0.03v-19.3c-2.53,1.73-5.78,3.26-9.59,4.53c-8.73,2.91-20.71,4.72-33.86,4.72 c-13.16,0-25.13-1.8-33.86-4.72c-3.77-1.26-6.98-2.76-9.49-4.47V47.86L6.24,47.86z M63.3,92.54c-4.35,0.44-8.95,0.67-13.7,0.67 c-13.16,0-25.13-1.8-33.86-4.72c-3.77-1.26-6.98-2.76-9.49-4.47v18.49c0.56,2.62,4.83,5.26,11.45,7.47 c8.1,2.7,19.38,4.38,31.91,4.38c7.52,0,14.58-0.6,20.78-1.67c1.56,1.94,3.33,3.7,5.29,5.24c-7.53,1.65-16.49,2.6-26.07,2.6 c-13.16,0-25.13-1.8-33.86-4.72c-4.6-1.54-15.67-6.58-15.67-12.62c0-0.71,0-1.3,0-1.98C0.06,73.69,0,46.15,0,18.61 c0-5.76,6.01-10.65,15.73-13.9C24.46,1.8,36.44,0,49.6,0c13.16,0,25.13,1.8,33.86,4.72c8.85,2.95,14.62,7.27,15.59,12.37 c0.12,0.32,0.18,0.67,0.18,1.04v42.37c-1.2-0.14-2.42-0.21-3.66-0.21c-0.85,0-1.68,0.03-2.51,0.1v-3.74 c-2.53,1.73-5.78,3.26-9.59,4.53c-8.73,2.91-20.71,4.72-33.86,4.72c-13.16,0-25.13-1.8-33.86-4.72c-3.77-1.26-6.98-2.76-9.49-4.47 v18.49c0.56,2.62,4.83,5.26,11.45,7.47c8.1,2.7,19.38,4.38,31.91,4.38c5.01,0,9.82-0.27,14.31-0.76 C63.51,88.3,63.3,90.4,63.3,92.54L63.3,92.54z"></path>
		</g>
		<g id="intermediate_db">
			<text x="150" y="20" class="small">Intermediate</text>
			<text x="150" y="70" class="small">data</text>
			<use x="0" y="0" xlink:href="#db_inter" />
		</g>
		<g id="wf_db">
			<text x="150" y="20" class="small">Workflow</text>
			<text x="150" y="70" class="small">state</text>
			<use x="0" y="0" xlink:href="#db_wf" />
		</g>
		<g id="cassandra">
			<rect x="140" y="60" width="470" height="350" stroke="#d86613" stroke-width="2" fill="#fff"/>
			<rect x="110" y="30" width="470" height="350" stroke="#d86613" stroke-width="2" fill="#fff"/>
			<rect x="80" y="0" width="470" height="350" stroke="#d86613" stroke-width="2" fill="#fff"/>
			<use x="155" y="0" transform="scale(0.5)" xlink:href="#dio-instance" />
			<text x="140" y="10" class="extra-small" fill="#d86613">EC2 Cassandra nodes</text>
			<use x="120" y="70" xlink:href="#intermediate_db" />
			<use x="120" y="210" xlink:href="#wf_db" />
		</g>



		<g id="final_data">
			<use x="0" y="0" xlink:href="#icon-parquet" />
			<use x="90" y="0" xlink:href="#icon-csv" />
			<text x="200" y="30" class="small">Result data</text>
		</g>

		<g id="source_data">
			<use x="0" y="0" xlink:href="#icon-parquet" />
			<use x="90" y="0" xlink:href="#icon-csv" />
			<text x="200" y="30" class="small">Source data</text>
		</g>

		<g id="scripts">
			<use x="0" y="0" xlink:href="#icon-json" />
			<text x="110" y="30" class="small">Capillaries scripts</text>
		</g>

		<g id="s3">
			<rect x="0" y="0" width="720" height="520" stroke="#7aa116" stroke-width="2" fill="#fff"/>
			<use x="0" y="0" transform="scale(0.5)" xlink:href="#dio-s3" />
			<text x="60" y="10" class="extra-small" fill="#7aa116">S3</text>
		</g>

		<g id="vpc">
			<use x="0" y="0" transform="scale(0.5)" xlink:href="#dio-vpc" />
			<text x="60" y="10" class="extra-small" fill="#8c4fff">VPC</text>
		</g>

		<g id="rabbitmq">
			<use x="0" y="0" xlink:href="#icon-rabbitmq" />
			<text x="60" y="3" class="small" fill="#000">RabbitMQ</text>
		</g>

		<g id="prometheus">
			<use x="0" y="0" xlink:href="#icon-prometheus" />
			<text x="60" y="5" class="small" fill="#000">Prometheus</text>
			<text x="100" y="45" class="small" fill="#000">Server</text>
		</g>

		<g id="bastion_instance">
			<rect x="0" y="0" width="1070" height="660" stroke="#d86613" stroke-width="2" fill="#fff"/>
			<use x="0" y="0" transform="scale(0.5)" xlink:href="#dio-instance" />
			<text x="60" y="10" class="extra-small" fill="#d86613">EC2 Bastion//RabbitMQ/Prometheus instance</text>

			<text x="890" y="10" class="extra-small" fill="#f58534">Elastic IP</text>
			<use x="920" y="15" xlink:href="#dio-elasticip" />

			<use x="240" y="100" xlink:href="#icon-nginx" />
			<text x="300" y="105" class="small">NGINX reverse proxy</text>

			<use x="460" y="170" xlink:href="#arrow_up_down_75" />

			<use x="340" y="260" xlink:href="#icon-capillaries" />
			<text x="400" y="265" class="small">Capillaries UI</text>

			<use x="680" y="170" xlink:href="#arrow_up_down_75" />
			<use x="700" y="260" xlink:href="#prometheus" />

			<use x="230" y="170" xlink:href="#arrow_up_down_125" />
			<use x="460" y="320" xlink:href="#arrow_up_down_75" />


			<use x="240" y="410" xlink:href="#icon-capillaries" />
			<text x="300" y="415" class="small">Capillaries Webapi</text>

		    <use x="390" y="480" xlink:href="#arrow_down_75" />

			<use x="310" y="565" xlink:href="#rabbitmq" />
		</g>

		<g id="public_subnet">
			<rect x="0" y="0" width="1130" height="770" stroke-width="0" fill="#f2f6e8"/>
			<use x="0" y="0" transform="scale(0.5)" xlink:href="#dio-publicsubnet" />
			<text x="60" y="10" class="extra-small" fill="#7aa116">Public subnet</text>
			<use x="30" y="80" xlink:href="#bastion_instance" />
		</g>

		<g id="user">
			<use x="0" y="0" xlink:href="#dio-user" />
			<text x="60" y="10" class="small">User (browser, HTTP tools, AWS CLI)</text>
		</g>

	</defs>

	<rect fill="white" x="0" y="0" width="1610" height="2100" />

    <use x="20" y="20" xlink:href="#user" />

	<use x="420" y="210" xlink:href="#vpc" />
	<path d="M420,210 L420,1070 L880,1070 L880,1540 L880,2060 L1590,2060 L1590,210z" stroke="#8c4fff" stroke-width="02" fill="transparent"/>

	<use x="740" y="100" xlink:href="#arrow_up_down_75" />

	<use x="440" y="280" xlink:href="#public_subnet" />

	<use x="20" y="1540" xlink:href="#s3" />

	<path d="M340,100 L340,1590" stroke-width="5" stroke="#000000" stroke-linecap="round"/>
	<use x="315" y="1570" xlink:href="#arrow_head_down" />

	<use x="700" y="840" xlink:href="#arrow_head_up" />
	<path d="M725,843 L725,1620" stroke-width="5" stroke="#000000" stroke-linecap="round"/>

	<use x="260" y="1600" xlink:href="#scripts" />
	<use x="770" y="1625" xlink:href="#arrow_right_75" />

	<path d="M240,100 L240,1740" stroke-width="5" stroke="#000000" stroke-linecap="round"/>
	<use x="215" y="1720" xlink:href="#arrow_head_down" />

	<use x="160" y="1750" xlink:href="#source_data" />
	<use x="770" y="1775" xlink:href="#arrow_right_75" />

	<use x="115" y="97" xlink:href="#arrow_head_up" />
	<path d="M140,100 L140,1890" stroke-width="5" stroke="#000000" stroke-linecap="round"/>

	<use x="60" y="1900" xlink:href="#final_data" />
	<use x="770" y="1925" xlink:href="#arrow_left_75" />

	<use x="900" y="1060" xlink:href="#private_subnet" />

	<use x="1040" y="840" xlink:href="#arrow_up_down_125" />

	<path d="M960,1000 L960,1630" stroke-width="5" stroke="#000000" stroke-linecap="round"/>
	<use x="935" y="1610" xlink:href="#arrow_head_down" />
</svg>