<svg xmlns="http://www.w3.org/2000/svg" xmlns:xlink="http://www.w3.org/1999/xlink" viewBox="-10 -10 1258 547">
<defs>
<marker id="arrow-1" viewBox="0 0 10 10" refX="5" refY="5" markerWidth="4" markerHeight="4" orient="auto-start-reverse" fill="#023EFF"><path d="M 0 0 L 10 5 L 0 10 z" /></marker>
<marker id="arrow-2" viewBox="0 0 10 10" refX="5" refY="5" markerWidth="4" markerHeight="4" orient="auto-start-reverse" fill="#000000"><path d="M 0 0 L 10 5 L 0 10 z" /></marker>
<marker id="arrow-3" viewBox="0 0 10 10" refX="5" refY="5" markerWidth="4" markerHeight="4" orient="auto-start-reverse" fill="#000000"><path d="M 0 0 L 10 5 L 0 10 z" /></marker>
<marker id="arrow-4" viewBox="0 0 10 10" refX="5" refY="5" markerWidth="4" markerHeight="4" orient="auto-start-reverse" fill="#000000"><path d="M 0 0 L 10 5 L 0 10 z" /></marker>
<marker id="arrow-5" viewBox="0 0 10 10" refX="5" refY="5" markerWidth="4" markerHeight="4" orient="auto-start-reverse" fill="#000000"><path d="M 0 0 L 10 5 L 0 10 z" /></marker>
<marker id="arrow-6" viewBox="0 0 10 10" refX="5" refY="5" markerWidth="4" markerHeight="4" orient="auto-start-reverse" fill="#FF7C00"><path d="M 0 0 L 10 5 L 0 10 z" /></marker>

<g id="icon-database-table-read">
	<g transform="scale(0.56) translate(2,61)">
		<path fill-rule="evenodd"
		d="M16.49,24.88C24.05,27.41,34.57,29,46.26,29S68.48,27.41,76,24.88c6.63-2.22,10.73-4.9,10.73-7.52S82.67,12.06,76,9.84C68.48,7.33,58,5.75,46.27,5.75S24.06,7.33,16.49,9.84c-14.06,4.7-14.46,10.21,0,15ZM64.91,55.34h48.73a9.27,9.27,0,0,1,9.24,9.24v42.58a9.27,9.27,0,0,1-9.24,9.25H64.91a9.27,9.27,0,0,1-9.24-9.25V64.58a9.27,9.27,0,0,1,9.24-9.24ZM91.09,99.18H118v12H91.09v-12Zm-30.89,0H87.13v12H60.2v-12Zm0-31.89H87.13v12H60.2v-12Zm0,15.94H87.13v12H60.2v-12ZM91.09,67.29H118v12H91.09v-12Zm0,15.94H118v12H91.09v-12ZM5.82,45.77c.52,2.45,4.5,4.91,10.68,7,7.22,2.42,17.16,3.95,28.24,4.08v5.77c-11.67-.13-22.25-1.78-30.05-4.39A35.86,35.86,0,0,1,5.84,54V71.27c.52,2.45,4.5,4.91,10.68,7,7.22,2.4,17.15,3.94,28.22,4.07v5.75c-11.67-.14-22.25-1.78-30.05-4.4A36.08,36.08,0,0,1,5.83,79.5V96.75c.52,2.45,4.51,4.91,10.68,7,7.22,2.41,17.16,4,28.23,4.08v5.75c-11.67-.13-22.24-1.78-30-4.4C10.4,107.72,0,103,0,97.38V95.55C0,69.86,0,43.06,0,17.41c0-5.43,5.61-10,14.66-13C22.82,1.68,34,0,46.27,0S69.7,1.68,77.87,4.41s13.64,6.78,14.55,11.53a3,3,0,0,1,.16,1v28.6H86.8V26.09a36.69,36.69,0,0,1-8.93,4.22c-8.15,2.75-19.31,4.41-31.58,4.41S22.83,33,14.66,30.31A36.26,36.26,0,0,1,5.8,26.14V45.77Z" />
	</g>
	<g transform="scale(0.1) translate(540,20)">
		<path fill-rule="nonzero"
		d="M117.91 0h201.68c3.93 0 7.44 1.83 9.72 4.67l114.28 123.67c2.21 2.37 3.27 5.4 3.27 8.41l.06 310c0 35.43-29.4 64.81-64.8 64.81H117.91c-35.57 0-64.81-29.24-64.81-64.81V64.8C53.1 29.13 82.23 0 117.91 0zM325.5 37.15v52.94c2.4 31.34 23.57 42.99 52.93 43.5l36.16-.04-89.09-96.4zm96.5 121.3l-43.77-.04c-42.59-.68-74.12-21.97-77.54-66.54l-.09-66.95H117.91c-21.93 0-39.89 17.96-39.89 39.88v381.95c0 21.82 18.07 39.89 39.89 39.89h264.21c21.71 0 39.88-18.15 39.88-39.89v-288.3z" />
	</g>
</g>
<g id="icon-database-table-py">
	<g transform="scale(0.56) translate(2,61)">
		<path fill-rule="evenodd"
		d="M16.49,24.88C24.05,27.41,34.57,29,46.26,29S68.48,27.41,76,24.88c6.63-2.22,10.73-4.9,10.73-7.52S82.67,12.06,76,9.84C68.48,7.33,58,5.75,46.27,5.75S24.06,7.33,16.49,9.84c-14.06,4.7-14.46,10.21,0,15ZM64.91,55.34h48.73a9.27,9.27,0,0,1,9.24,9.24v42.58a9.27,9.27,0,0,1-9.24,9.25H64.91a9.27,9.27,0,0,1-9.24-9.25V64.58a9.27,9.27,0,0,1,9.24-9.24ZM91.09,99.18H118v12H91.09v-12Zm-30.89,0H87.13v12H60.2v-12Zm0-31.89H87.13v12H60.2v-12Zm0,15.94H87.13v12H60.2v-12ZM91.09,67.29H118v12H91.09v-12Zm0,15.94H118v12H91.09v-12ZM5.82,45.77c.52,2.45,4.5,4.91,10.68,7,7.22,2.42,17.16,3.95,28.24,4.08v5.77c-11.67-.13-22.25-1.78-30.05-4.39A35.86,35.86,0,0,1,5.84,54V71.27c.52,2.45,4.5,4.91,10.68,7,7.22,2.4,17.15,3.94,28.22,4.07v5.75c-11.67-.14-22.25-1.78-30.05-4.4A36.08,36.08,0,0,1,5.83,79.5V96.75c.52,2.45,4.51,4.91,10.68,7,7.22,2.41,17.16,4,28.23,4.08v5.75c-11.67-.13-22.24-1.78-30-4.4C10.4,107.72,0,103,0,97.38V95.55C0,69.86,0,43.06,0,17.41c0-5.43,5.61-10,14.66-13C22.82,1.68,34,0,46.27,0S69.7,1.68,77.87,4.41s13.64,6.78,14.55,11.53a3,3,0,0,1,.16,1v28.6H86.8V26.09a36.69,36.69,0,0,1-8.93,4.22c-8.15,2.75-19.31,4.41-31.58,4.41S22.83,33,14.66,30.31A36.26,36.26,0,0,1,5.8,26.14V45.77Z" />
	</g>
	<g transform="scale(2.1) translate(24,0)">
		<path d="m9.8594 2.0009c-1.58 0-2.8594 1.2794-2.8594 2.8594v1.6797h4.2891c.39 0 .71094.57094.71094.96094h-7.1406c-1.58 0-2.8594 1.2794-2.8594 2.8594v3.7812c0 1.58 1.2794 2.8594 2.8594 2.8594h1.1797v-2.6797c0-1.58 1.2716-2.8594 2.8516-2.8594h5.25c1.58 0 2.8594-1.2716 2.8594-2.8516v-3.75c0-1.58-1.2794-2.8594-2.8594-2.8594zm-.71875 1.6094c.4 0 .71875.12094.71875.71094s-.31875.89062-.71875.89062c-.39 0-.71094-.30062-.71094-.89062s.32094-.71094.71094-.71094z"/>
		<path d="m17.959 7v2.6797c0 1.58-1.2696 2.8594-2.8496 2.8594h-5.25c-1.58 0-2.8594 1.2696-2.8594 2.8496v3.75a2.86 2.86 0 0 0 2.8594 2.8613h4.2812a2.86 2.86 0 0 0 2.8594 -2.8613v-1.6797h-4.291c-.39 0-.70898-.56898-.70898-.95898h7.1406a2.86 2.86 0 0 0 2.8594 -2.8613v-3.7793a2.86 2.86 0 0 0 -2.8594 -2.8594zm-9.6387 4.5137-.0039.0039c.01198-.0024.02507-.0016.03711-.0039zm6.5391 7.2754c.39 0 .71094.30062.71094.89062a.71 .71 0 0 1 -.71094 .70898c-.4 0-.71875-.11898-.71875-.70898s.31875-.89062.71875-.89062z"/>
	</g>
</g>
<g id="icon-database-table-join">
	<g transform="scale(0.56) translate(2,61)">
		<path fill-rule="evenodd"
		d="M16.49,24.88C24.05,27.41,34.57,29,46.26,29S68.48,27.41,76,24.88c6.63-2.22,10.73-4.9,10.73-7.52S82.67,12.06,76,9.84C68.48,7.33,58,5.75,46.27,5.75S24.06,7.33,16.49,9.84c-14.06,4.7-14.46,10.21,0,15ZM64.91,55.34h48.73a9.27,9.27,0,0,1,9.24,9.24v42.58a9.27,9.27,0,0,1-9.24,9.25H64.91a9.27,9.27,0,0,1-9.24-9.25V64.58a9.27,9.27,0,0,1,9.24-9.24ZM91.09,99.18H118v12H91.09v-12Zm-30.89,0H87.13v12H60.2v-12Zm0-31.89H87.13v12H60.2v-12Zm0,15.94H87.13v12H60.2v-12ZM91.09,67.29H118v12H91.09v-12Zm0,15.94H118v12H91.09v-12ZM5.82,45.77c.52,2.45,4.5,4.91,10.68,7,7.22,2.42,17.16,3.95,28.24,4.08v5.77c-11.67-.13-22.25-1.78-30.05-4.39A35.86,35.86,0,0,1,5.84,54V71.27c.52,2.45,4.5,4.91,10.68,7,7.22,2.4,17.15,3.94,28.22,4.07v5.75c-11.67-.14-22.25-1.78-30.05-4.4A36.08,36.08,0,0,1,5.83,79.5V96.75c.52,2.45,4.51,4.91,10.68,7,7.22,2.41,17.16,4,28.23,4.08v5.75c-11.67-.13-22.24-1.78-30-4.4C10.4,107.72,0,103,0,97.38V95.55C0,69.86,0,43.06,0,17.41c0-5.43,5.61-10,14.66-13C22.82,1.68,34,0,46.27,0S69.7,1.68,77.87,4.41s13.64,6.78,14.55,11.53a3,3,0,0,1,.16,1v28.6H86.8V26.09a36.69,36.69,0,0,1-8.93,4.22c-8.15,2.75-19.31,4.41-31.58,4.41S22.83,33,14.66,30.31A36.26,36.26,0,0,1,5.8,26.14V45.77Z" />
	</g>
	<g transform="scale(0.1) translate(500,50)">
		<path fill-rule="nonzero"
		d="M303.633 363.721c10.832-11.26 28.745-11.608 40.007-.776 11.26 10.832 11.608 28.745.776 40.006l-91.965 95.954c-5.07 7.72-13.8 12.824-23.727 12.824-1.387 0-2.75-.1-4.079-.296l-.239-.033a28.149 28.149 0 01-15.859-7.649l-96.64-100.8c-10.832-11.261-10.484-29.174.777-40.006s29.174-10.484 40.006.776l47.665 49.733V258.99c0-50.724-20.558-101.577-53.822-139.863-31.152-35.856-73.279-60.35-119.571-62.576C11.355 55.817-.702 42.569.032 26.962.766 11.355 14.014-.702 29.621.032c62.738 3.021 118.895 35.136 159.687 82.086 15.498 17.837 28.798 37.876 39.416 59.302 10.579-21.35 23.828-41.327 39.253-59.121C308.656 35.368 364.703 3.22 427.379.051c15.607-.734 28.855 11.323 29.589 26.93.734 15.607-11.323 28.855-26.93 29.589-46.168 2.335-88.19 26.868-119.285 62.738-33.168 38.253-53.66 89.029-53.66 139.682v153.292l46.54-48.561z" />
	</g>
</g>
</defs>
<style>
.viz-background {fill:white;opacity:1.0}
.rect-node-background {fill:white; rx:10; ry:10; stroke-width:0;opacity:0.8}
.rect-node {fill:none; rx:10; ry:10; stroke:black; stroke-width:1;}
.rect-selected-node {fill:transparent; rx:10; ry:10; stroke-width:5; stroke:black; opacity:1.0}
.rect-edge-label-background {fill:white; rx:10; ry:10; stroke-width:0; opacity:0.8;}
.rect-edge-label-pri {fill:none; rx:10; ry:10; stroke:#606060; stroke-width:1;}
.rect-edge-label-sec {fill:none; rx:10; ry:10; stroke:#606060; stroke-width:1; stroke-dasharray:5;}
.text-node {font-family:courier; font-weight:normal; font-size:20px; text-anchor:start; alignment-baseline:hanging; fill:black;stroke-width:0}
.text-edge-label {font-family:verdana; font-weight:normal; font-size:10px; text-anchor:start; alignment-baseline:hanging; fill:#606060;}
.path-edge-pri {stroke-width:2.00;fill:transparent;stroke:black;}
.path-edge-sec {stroke-width:2.00;stroke-dasharray:5;fill:transparent;stroke:black;}

.text-node {font-family:Verdana; font-size:16px; fill:gray;}
.path-edge-pri-1 {marker-end:url(#arrow-1);stroke:#023EFF}
.path-edge-sec-1 {marker-end:url(#arrow-1);stroke:#023EFF}
.rect-edge-label-pri-1 {stroke:#023EFF}
.rect-edge-label-sec-1 {stroke:#023EFF}
.rect-node-background-1 {fill:#023EFF;opacity:0.3}
.rect-node-root-1 {stroke:#023EFF}
.rect-selected-node-root-1 {stroke:#023EFF}
.text-node-root-1 {fill:#023EFF}
.text-edge-root-1 {fill:#023EFF}
.path-edge-pri-2 {marker-end:url(#arrow-2);stroke:#000000}
.path-edge-sec-2 {marker-end:url(#arrow-2);stroke:#000000}
.rect-edge-label-pri-2 {stroke:#000000}
.rect-edge-label-sec-2 {stroke:#000000}
.rect-node-background-2 {fill:#FFFFFF;opacity:0.3}
.path-edge-pri-3 {marker-end:url(#arrow-3);stroke:#000000}
.path-edge-sec-3 {marker-end:url(#arrow-3);stroke:#000000}
.rect-edge-label-pri-3 {stroke:#000000}
.rect-edge-label-sec-3 {stroke:#000000}
.rect-node-background-3 {fill:#FFFFFF;opacity:0.3}
.path-edge-pri-4 {marker-end:url(#arrow-4);stroke:#000000}
.path-edge-sec-4 {marker-end:url(#arrow-4);stroke:#000000}
.rect-edge-label-pri-4 {stroke:#000000}
.rect-edge-label-sec-4 {stroke:#000000}
.rect-node-background-4 {fill:#FFFFFF;opacity:0.3}
.path-edge-pri-5 {marker-end:url(#arrow-5);stroke:#000000}
.path-edge-sec-5 {marker-end:url(#arrow-5);stroke:#000000}
.rect-edge-label-pri-5 {stroke:#000000}
.rect-edge-label-sec-5 {stroke:#000000}
.rect-node-background-5 {fill:#FFFFFF;opacity:0.3}
.path-edge-pri-6 {marker-end:url(#arrow-6);stroke:#FF7C00}
.path-edge-sec-6 {marker-end:url(#arrow-6);stroke:#FF7C00}
.rect-edge-label-pri-6 {stroke:#FF7C00}
.rect-edge-label-sec-6 {stroke:#FF7C00}
.rect-node-background-6 {fill:#FF7C00;opacity:0.3}
.rect-node-root-6 {stroke:#FF7C00}
.rect-selected-node-root-6 {stroke:#FF7C00}
.text-edge-root-6 {fill:#FF7C00}
.capigraph-rendering-stats {font-family:arial; font-weight:normal; font-size:10px; text-anchor:start; alignment-baseline:hanging; fill:transparent;}</style>
<rect class="viz-background" x="-10" y="-10" width="1258" height="547"/>
<path class="path-edge-pri path-edge-pri-1" d="m614.00,116.00 L228.00,167.40"/>
<path class="path-edge-pri path-edge-pri-1" d="m228.00,289.40 L228.00,399.40"/>
<path class="path-edge-sec path-edge-sec-6" d="m622.00,289.40 C545.20,344.40 314.80,344.40 238.00,399.40"/>
<path class="path-edge-pri path-edge-pri-1" d="m614.00,116.00 L1018.00,167.40"/>
<path class="path-edge-pri path-edge-pri-1" d="m1018.00,289.40 L1018.00,399.40"/>
<path class="path-edge-sec path-edge-sec-6" d="m642.00,289.40 C715.20,344.40 934.80,344.40 1008.00,399.40"/>
<a xlink:title="1 icon-database-table-read">
  <rect class="rect-node-background rect-node-background-1"  x="476.00" y="0.00" width="276.00" height="112.00"/>
  <rect class="rect-node rect-node-root-1"  x="476.00" y="0.00" width="276.00" height="112.00" pointer-events="none"/>
  <g transform="translate(496.00,20.00)"><g transform="scale(0.720000)">
    <use xlink:href="#icon-database-table-read" style="fill:#023EFF;"/>
  </g></g>
  <text class="text-node text-node-root-1"  x="588.00" y="20.00">1 - Read</text>
  <text class="text-node text-node-root-1"  x="588.00" y="46.00">primary data</text>
  <text class="text-node text-node-root-1"  x="588.00" y="72.00">from file</text>
</a>
<a xlink:title="2 icon-database-table-py">
  <rect class="rect-node-background rect-node-background-1" style="fill:#001080;opacity:0.3;" x="0.00" y="173.40" width="456.00" height="112.00"/>
  <rect class="rect-selected-node rect-selected-node-root-1" style="stroke:#001080;" x="0.00" y="173.40" width="456.00" height="112.00" pointer-events="none"/>
  <g transform="translate(20.00,193.40)"><g transform="scale(0.720000)">
    <use xlink:href="#icon-database-table-py" style="fill:#001080;"/>
  </g></g>
  <text class="text-node text-node-root-1" style="fill:#001080;" x="112.00" y="193.40">2 - Apply</text>
  <text class="text-node text-node-root-1" style="fill:#001080;" x="112.00" y="219.40"> one set of Python formulas</text>
  <text class="text-node text-node-root-1" style="fill:#001080;" x="112.00" y="245.40">to primary data</text>
</a>
<a xlink:title="Data from file">
  <rect class="rect-edge-label-background" x="377.05" y="133.40" width="79.10" height="20.00"/>
  <rect class="rect-edge-label-pri rect-edge-label-pri-1" x="377.05" y="133.40" width="79.10" height="20.00"/>
  <text class="text-edge-label text-edge-root-1" x="382.05" y="138.40">Data from file</text>
</a>
<a xlink:title="4 icon-database-table-join">
  <rect class="rect-node-background rect-node-background-1" style="fill:#001080;opacity:0.3;" x="78.00" y="405.40" width="300.00" height="112.00"/>
  <rect class="rect-node rect-node-root-1" style="stroke:#001080;" x="78.00" y="405.40" width="300.00" height="112.00" pointer-events="none"/>
  <g transform="translate(98.00,425.40)"><g transform="scale(0.720000)">
    <use xlink:href="#icon-database-table-join" style="fill:#001080;"/>
  </g></g>
  <text class="text-node text-node-root-1" style="fill:#001080;" x="190.00" y="425.40">4 - Join</text>
  <text class="text-node text-node-root-1" style="fill:#001080;" x="190.00" y="451.40"> primary and</text>
  <text class="text-node text-node-root-1" style="fill:#001080;" x="190.00" y="477.40">secondary data</text>
</a>
<a xlink:title="Data to join">
  <rect class="rect-edge-label-background" x="395.45" y="335.40" width="69.10" height="20.00"/>
  <rect class="rect-edge-label-sec rect-edge-label-sec-6" x="395.45" y="335.40" width="69.10" height="20.00"/>
  <text class="text-edge-label text-edge-root-6" x="400.45" y="340.40">Data to join</text>
</a>
<a xlink:title="6 icon-database-table-read">
  <rect class="rect-node-background rect-node-background-6"  x="476.00" y="173.40" width="312.00" height="112.00"/>
  <rect class="rect-node rect-node-root-6"  x="476.00" y="173.40" width="312.00" height="112.00" pointer-events="none"/>
  <g transform="translate(496.00,193.40)"><g transform="scale(0.720000)">
    <use xlink:href="#icon-database-table-read" style="fill:#FF7C00;"/>
  </g></g>
  <text class="text-node" x="588.00" y="193.40">6 - Read</text>
  <text class="text-node" x="588.00" y="219.40"> secondary data</text>
  <text class="text-node" x="588.00" y="245.40">from file</text>
</a>
<a xlink:title="3 icon-database-table-py">
  <rect class="rect-node-background rect-node-background-1"  x="808.00" y="173.40" width="420.00" height="112.00"/>
  <rect class="rect-selected-node rect-selected-node-root-1"  x="808.00" y="173.40" width="420.00" height="112.00" pointer-events="none"/>
  <g transform="translate(828.00,193.40)"><g transform="scale(0.720000)">
    <use xlink:href="#icon-database-table-py" style="fill:#023EFF;"/>
  </g></g>
  <text class="text-node text-node-root-1"  x="920.00" y="193.40">3 - Apply</text>
  <text class="text-node text-node-root-1"  x="920.00" y="219.40"> another set of Python</text>
  <text class="text-node text-node-root-1"  x="920.00" y="245.40">formulas to primary data</text>
</a>
<a xlink:title="Other data from file">
  <rect class="rect-edge-label-background" x="765.86" y="133.40" width="109.50" height="20.00"/>
  <rect class="rect-edge-label-pri rect-edge-label-pri-1" x="765.86" y="133.40" width="109.50" height="20.00"/>
  <text class="text-edge-label" x="770.86" y="138.40">Other data from file</text>
</a>
<a xlink:title="5 icon-database-table-join">
  <rect class="rect-node-background rect-node-background-1"  x="868.00" y="405.40" width="300.00" height="112.00"/>
  <rect class="rect-node rect-node-root-1"  x="868.00" y="405.40" width="300.00" height="112.00" pointer-events="none"/>
  <g transform="translate(888.00,425.40)"><g transform="scale(0.720000)">
    <use xlink:href="#icon-database-table-join" style="fill:#023EFF;"/>
  </g></g>
  <text class="text-node text-node-root-1"  x="980.00" y="425.40">5 - Join</text>
  <text class="text-node text-node-root-1"  x="980.00" y="451.40"> primary and</text>
  <text class="text-node text-node-root-1"  x="980.00" y="477.40">secondary data</text>
</a>
<a xlink:title="Data to join">
  <rect class="rect-edge-label-background" x="790.45" y="335.40" width="69.10" height="20.00"/>
  <rect class="rect-edge-label-sec rect-edge-label-sec-6" x="790.45" y="335.40" width="69.10" height="20.00"/>
  <text class="text-edge-label" x="795.45" y="340.40">Data to join</text>
</a>
<text class="capigraph-rendering-stats" x="0" y="0">Perms 6, elapsed 0.000s, dist 790.0</text>
</svg>
