<?xml version="1.0" encoding="iso-8859-1"?>
<!-- Generator: Adobe Illustrator 19.0.0, SVG Export Plug-In . SVG Version: 6.00 Build 0)  -->
<svg version="1.1" id="Layer_1" xmlns="http://www.w3.org/2000/svg" xmlns:xlink="http://www.w3.org/1999/xlink" x="0px" y="0px"
	 viewBox="0 0 493.508 493.508" style="enable-background:new 0 0 493.508 493.508;" xml:space="preserve">
<g>
	<g>
		<path d="M421.38,72.426C374.82,25.786,312.86,0.07,246.736,0.006C110.804,0.006,0.116,110.578,0,246.506
			c-0.064,65.916,25.548,127.904,72.1,174.56c46.568,46.628,108.284,72.436,174.196,72.436h0.572v-0.024
			c134.956,0,246.54-110.596,246.64-246.516C493.572,181.05,467.924,119.07,421.38,72.426z M257.7,377.126
			c-2.836,2.864-6.8,4.504-10.872,4.504c-4.088-0.008-8.064-1.656-10.932-4.56c-2.848-2.824-4.484-6.792-4.48-10.876
			c0.008-4.072,1.664-8.064,4.532-10.924c2.856-2.848,7.064-4.488,10.92-4.488c4.06,0,8.028,1.648,10.86,4.504
			c2.896,2.92,4.556,6.916,4.548,10.932C262.272,370.25,260.604,374.222,257.7,377.126z M265.124,282.674
			c-1.76,0.388-3.02,1.948-3.024,3.752l-0.02,18.12c-0.008,8.488-6.916,15.408-15.436,15.408
			c-8.512-0.008-15.412-6.94-15.404-15.436l0.036-34.964c0.008-8.484,6.916-15.08,15.416-15.08h0.068
			c29.488,0,53.5-24.32,53.532-53.808c0.012-14.288-5.536-27.884-15.64-38.024c-10.14-10.132-23.568-15.788-37.884-15.804
			c-29.492,0-53.512,23.956-53.544,53.464c-0.008,8.492-6.924,15.38-15.44,15.38c-4.12,0-7.996-1.624-10.9-4.544
			c-2.916-2.912-4.508-6.788-4.504-10.904c0.044-46.492,37.896-84.324,84.448-84.324c46.532,0.048,84.344,37.936,84.3,84.46
			C331.096,239.542,303.348,274.158,265.124,282.674z"/>
	</g>
</g>
<g>
</g>
<g>
</g>
<g>
</g>
<g>
</g>
<g>
</g>
<g>
</g>
<g>
</g>
<g>
</g>
<g>
</g>
<g>
</g>
<g>
</g>
<g>
</g>
<g>
</g>
<g>
</g>
<g>
</g>
</svg>
